%TF.GenerationSoftware,KiCad,Pcbnew,(6.0.7-1)-1*%
%TF.CreationDate,2022-11-15T19:28:55-05:00*%
%TF.ProjectId,pcb,7063622e-6b69-4636-9164-5f7063625858,rev?*%
%TF.SameCoordinates,Original*%
%TF.FileFunction,Legend,Top*%
%TF.FilePolarity,Positive*%
%FSLAX46Y46*%
G04 Gerber Fmt 4.6, Leading zero omitted, Abs format (unit mm)*
G04 Created by KiCad (PCBNEW (6.0.7-1)-1) date 2022-11-15 19:28:55*
%MOMM*%
%LPD*%
G01*
G04 APERTURE LIST*
%ADD10C,0.150000*%
%ADD11C,0.120000*%
G04 APERTURE END LIST*
D10*
%TO.C,J1*%
X139702380Y-90833333D02*
X140416666Y-90833333D01*
X140559523Y-90880952D01*
X140654761Y-90976190D01*
X140702380Y-91119047D01*
X140702380Y-91214285D01*
X140702380Y-89833333D02*
X140702380Y-90404761D01*
X140702380Y-90119047D02*
X139702380Y-90119047D01*
X139845238Y-90214285D01*
X139940476Y-90309523D01*
X139988095Y-90404761D01*
%TO.C,J6*%
X110916666Y-110952380D02*
X110916666Y-111666666D01*
X110869047Y-111809523D01*
X110773809Y-111904761D01*
X110630952Y-111952380D01*
X110535714Y-111952380D01*
X111821428Y-110952380D02*
X111630952Y-110952380D01*
X111535714Y-111000000D01*
X111488095Y-111047619D01*
X111392857Y-111190476D01*
X111345238Y-111380952D01*
X111345238Y-111761904D01*
X111392857Y-111857142D01*
X111440476Y-111904761D01*
X111535714Y-111952380D01*
X111726190Y-111952380D01*
X111821428Y-111904761D01*
X111869047Y-111857142D01*
X111916666Y-111761904D01*
X111916666Y-111523809D01*
X111869047Y-111428571D01*
X111821428Y-111380952D01*
X111726190Y-111333333D01*
X111535714Y-111333333D01*
X111440476Y-111380952D01*
X111392857Y-111428571D01*
X111345238Y-111523809D01*
%TO.C,J2*%
X124382380Y-70808333D02*
X125096666Y-70808333D01*
X125239523Y-70855952D01*
X125334761Y-70951190D01*
X125382380Y-71094047D01*
X125382380Y-71189285D01*
X124477619Y-70379761D02*
X124430000Y-70332142D01*
X124382380Y-70236904D01*
X124382380Y-69998809D01*
X124430000Y-69903571D01*
X124477619Y-69855952D01*
X124572857Y-69808333D01*
X124668095Y-69808333D01*
X124810952Y-69855952D01*
X125382380Y-70427380D01*
X125382380Y-69808333D01*
%TO.C,Y1*%
X118773809Y-99226190D02*
X118773809Y-99702380D01*
X118440476Y-98702380D02*
X118773809Y-99226190D01*
X119107142Y-98702380D01*
X119964285Y-99702380D02*
X119392857Y-99702380D01*
X119678571Y-99702380D02*
X119678571Y-98702380D01*
X119583333Y-98845238D01*
X119488095Y-98940476D01*
X119392857Y-98988095D01*
%TO.C,C3*%
X135145833Y-102707142D02*
X135098214Y-102754761D01*
X134955357Y-102802380D01*
X134860119Y-102802380D01*
X134717261Y-102754761D01*
X134622023Y-102659523D01*
X134574404Y-102564285D01*
X134526785Y-102373809D01*
X134526785Y-102230952D01*
X134574404Y-102040476D01*
X134622023Y-101945238D01*
X134717261Y-101850000D01*
X134860119Y-101802380D01*
X134955357Y-101802380D01*
X135098214Y-101850000D01*
X135145833Y-101897619D01*
X135479166Y-101802380D02*
X136098214Y-101802380D01*
X135764880Y-102183333D01*
X135907738Y-102183333D01*
X136002976Y-102230952D01*
X136050595Y-102278571D01*
X136098214Y-102373809D01*
X136098214Y-102611904D01*
X136050595Y-102707142D01*
X136002976Y-102754761D01*
X135907738Y-102802380D01*
X135622023Y-102802380D01*
X135526785Y-102754761D01*
X135479166Y-102707142D01*
%TO.C,U1*%
X126198095Y-77372380D02*
X126198095Y-78181904D01*
X126245714Y-78277142D01*
X126293333Y-78324761D01*
X126388571Y-78372380D01*
X126579047Y-78372380D01*
X126674285Y-78324761D01*
X126721904Y-78277142D01*
X126769523Y-78181904D01*
X126769523Y-77372380D01*
X127769523Y-78372380D02*
X127198095Y-78372380D01*
X127483809Y-78372380D02*
X127483809Y-77372380D01*
X127388571Y-77515238D01*
X127293333Y-77610476D01*
X127198095Y-77658095D01*
%TO.C,C2*%
X135145833Y-96507142D02*
X135098214Y-96554761D01*
X134955357Y-96602380D01*
X134860119Y-96602380D01*
X134717261Y-96554761D01*
X134622023Y-96459523D01*
X134574404Y-96364285D01*
X134526785Y-96173809D01*
X134526785Y-96030952D01*
X134574404Y-95840476D01*
X134622023Y-95745238D01*
X134717261Y-95650000D01*
X134860119Y-95602380D01*
X134955357Y-95602380D01*
X135098214Y-95650000D01*
X135145833Y-95697619D01*
X135526785Y-95697619D02*
X135574404Y-95650000D01*
X135669642Y-95602380D01*
X135907738Y-95602380D01*
X136002976Y-95650000D01*
X136050595Y-95697619D01*
X136098214Y-95792857D01*
X136098214Y-95888095D01*
X136050595Y-96030952D01*
X135479166Y-96602380D01*
X136098214Y-96602380D01*
%TO.C,C4*%
X114083333Y-99107142D02*
X114035714Y-99154761D01*
X113892857Y-99202380D01*
X113797619Y-99202380D01*
X113654761Y-99154761D01*
X113559523Y-99059523D01*
X113511904Y-98964285D01*
X113464285Y-98773809D01*
X113464285Y-98630952D01*
X113511904Y-98440476D01*
X113559523Y-98345238D01*
X113654761Y-98250000D01*
X113797619Y-98202380D01*
X113892857Y-98202380D01*
X114035714Y-98250000D01*
X114083333Y-98297619D01*
X114940476Y-98535714D02*
X114940476Y-99202380D01*
X114702380Y-98154761D02*
X114464285Y-98869047D01*
X115083333Y-98869047D01*
%TO.C,J5*%
X138452380Y-78333333D02*
X139166666Y-78333333D01*
X139309523Y-78380952D01*
X139404761Y-78476190D01*
X139452380Y-78619047D01*
X139452380Y-78714285D01*
X138452380Y-77380952D02*
X138452380Y-77857142D01*
X138928571Y-77904761D01*
X138880952Y-77857142D01*
X138833333Y-77761904D01*
X138833333Y-77523809D01*
X138880952Y-77428571D01*
X138928571Y-77380952D01*
X139023809Y-77333333D01*
X139261904Y-77333333D01*
X139357142Y-77380952D01*
X139404761Y-77428571D01*
X139452380Y-77523809D01*
X139452380Y-77761904D01*
X139404761Y-77857142D01*
X139357142Y-77904761D01*
%TO.C,J4*%
X140416666Y-105952380D02*
X140416666Y-106666666D01*
X140369047Y-106809523D01*
X140273809Y-106904761D01*
X140130952Y-106952380D01*
X140035714Y-106952380D01*
X141321428Y-106285714D02*
X141321428Y-106952380D01*
X141083333Y-105904761D02*
X140845238Y-106619047D01*
X141464285Y-106619047D01*
%TO.C,J3*%
X108666666Y-79232380D02*
X108666666Y-79946666D01*
X108619047Y-80089523D01*
X108523809Y-80184761D01*
X108380952Y-80232380D01*
X108285714Y-80232380D01*
X109047619Y-79232380D02*
X109666666Y-79232380D01*
X109333333Y-79613333D01*
X109476190Y-79613333D01*
X109571428Y-79660952D01*
X109619047Y-79708571D01*
X109666666Y-79803809D01*
X109666666Y-80041904D01*
X109619047Y-80137142D01*
X109571428Y-80184761D01*
X109476190Y-80232380D01*
X109190476Y-80232380D01*
X109095238Y-80184761D01*
X109047619Y-80137142D01*
%TO.C,C5*%
X114183333Y-105607142D02*
X114135714Y-105654761D01*
X113992857Y-105702380D01*
X113897619Y-105702380D01*
X113754761Y-105654761D01*
X113659523Y-105559523D01*
X113611904Y-105464285D01*
X113564285Y-105273809D01*
X113564285Y-105130952D01*
X113611904Y-104940476D01*
X113659523Y-104845238D01*
X113754761Y-104750000D01*
X113897619Y-104702380D01*
X113992857Y-104702380D01*
X114135714Y-104750000D01*
X114183333Y-104797619D01*
X115088095Y-104702380D02*
X114611904Y-104702380D01*
X114564285Y-105178571D01*
X114611904Y-105130952D01*
X114707142Y-105083333D01*
X114945238Y-105083333D01*
X115040476Y-105130952D01*
X115088095Y-105178571D01*
X115135714Y-105273809D01*
X115135714Y-105511904D01*
X115088095Y-105607142D01*
X115040476Y-105654761D01*
X114945238Y-105702380D01*
X114707142Y-105702380D01*
X114611904Y-105654761D01*
X114564285Y-105607142D01*
%TO.C,C1*%
X118858333Y-97957142D02*
X118810714Y-98004761D01*
X118667857Y-98052380D01*
X118572619Y-98052380D01*
X118429761Y-98004761D01*
X118334523Y-97909523D01*
X118286904Y-97814285D01*
X118239285Y-97623809D01*
X118239285Y-97480952D01*
X118286904Y-97290476D01*
X118334523Y-97195238D01*
X118429761Y-97100000D01*
X118572619Y-97052380D01*
X118667857Y-97052380D01*
X118810714Y-97100000D01*
X118858333Y-97147619D01*
X119810714Y-98052380D02*
X119239285Y-98052380D01*
X119525000Y-98052380D02*
X119525000Y-97052380D01*
X119429761Y-97195238D01*
X119334523Y-97290476D01*
X119239285Y-97338095D01*
D11*
%TO.C,J1*%
X139755000Y-86445000D02*
X134615000Y-86445000D01*
X142355000Y-87775000D02*
X142355000Y-89105000D01*
X142355000Y-89105000D02*
X141025000Y-89105000D01*
X139755000Y-89105000D02*
X134615000Y-89105000D01*
X139755000Y-86445000D02*
X139755000Y-89105000D01*
X134615000Y-86445000D02*
X134615000Y-89105000D01*
%TO.C,J6*%
X111955000Y-112670000D02*
X109355000Y-112670000D01*
X109355000Y-112670000D02*
X109355000Y-115330000D01*
X113225000Y-112670000D02*
X114555000Y-112670000D01*
X111955000Y-112670000D02*
X111955000Y-115330000D01*
X114555000Y-112670000D02*
X114555000Y-114000000D01*
X111955000Y-115330000D02*
X109355000Y-115330000D01*
%TO.C,J2*%
X126370000Y-69145000D02*
X127700000Y-69145000D01*
X136650000Y-71805000D02*
X136650000Y-69145000D01*
X128970000Y-71805000D02*
X128970000Y-69145000D01*
X128970000Y-71805000D02*
X136650000Y-71805000D01*
X128970000Y-69145000D02*
X136650000Y-69145000D01*
X126370000Y-70475000D02*
X126370000Y-69145000D01*
%TO.C,Y1*%
X120750000Y-100100000D02*
X117450000Y-100100000D01*
X117450000Y-100100000D02*
X117450000Y-104100000D01*
%TO.C,C3*%
X136023752Y-99590000D02*
X134601248Y-99590000D01*
X136023752Y-101410000D02*
X134601248Y-101410000D01*
%TO.C,U1*%
X124310000Y-114600000D02*
X129610000Y-114600000D01*
X129610000Y-78920000D02*
X127960000Y-78920000D01*
X121820000Y-114660000D02*
X132100000Y-114660000D01*
X132100000Y-114660000D02*
X132100000Y-78860000D01*
X125960000Y-78920000D02*
X124310000Y-78920000D01*
X121820000Y-78860000D02*
X121820000Y-114660000D01*
X124310000Y-78920000D02*
X124310000Y-114600000D01*
X132100000Y-78860000D02*
X121820000Y-78860000D01*
X129610000Y-114600000D02*
X129610000Y-78920000D01*
X125960000Y-78920000D02*
G75*
G03*
X127960000Y-78920000I1000000J0D01*
G01*
%TO.C,C2*%
X134601248Y-98910000D02*
X136023752Y-98910000D01*
X134601248Y-97090000D02*
X136023752Y-97090000D01*
%TO.C,C4*%
X113638748Y-101510000D02*
X115061252Y-101510000D01*
X113638748Y-99690000D02*
X115061252Y-99690000D01*
%TO.C,J5*%
X140005000Y-83605000D02*
X134865000Y-83605000D01*
X142605000Y-82275000D02*
X142605000Y-83605000D01*
X134865000Y-80945000D02*
X134865000Y-83605000D01*
X140005000Y-80945000D02*
X140005000Y-83605000D01*
X140005000Y-80945000D02*
X134865000Y-80945000D01*
X142605000Y-83605000D02*
X141275000Y-83605000D01*
%TO.C,J4*%
X139330000Y-107770000D02*
X139330000Y-110370000D01*
X136670000Y-107770000D02*
X139330000Y-107770000D01*
X136670000Y-110370000D02*
X139330000Y-110370000D01*
X136670000Y-106500000D02*
X136670000Y-105170000D01*
X136670000Y-107770000D02*
X136670000Y-110370000D01*
X136670000Y-105170000D02*
X138000000Y-105170000D01*
%TO.C,J3*%
X110330000Y-81220000D02*
X110330000Y-82550000D01*
X107670000Y-83820000D02*
X110330000Y-83820000D01*
X109000000Y-81220000D02*
X110330000Y-81220000D01*
X110330000Y-83820000D02*
X110330000Y-101660000D01*
X107670000Y-83820000D02*
X107670000Y-101660000D01*
X107670000Y-101660000D02*
X110330000Y-101660000D01*
%TO.C,C5*%
X113638748Y-104260000D02*
X115061252Y-104260000D01*
X113638748Y-102440000D02*
X115061252Y-102440000D01*
%TO.C,C1*%
X119736252Y-96660000D02*
X118313748Y-96660000D01*
X119736252Y-94840000D02*
X118313748Y-94840000D01*
%TD*%
M02*
