%TF.GenerationSoftware,KiCad,Pcbnew,(6.0.7-1)-1*%
%TF.CreationDate,2022-11-15T19:28:55-05:00*%
%TF.ProjectId,pcb,7063622e-6b69-4636-9164-5f7063625858,rev?*%
%TF.SameCoordinates,Original*%
%TF.FileFunction,Soldermask,Top*%
%TF.FilePolarity,Negative*%
%FSLAX46Y46*%
G04 Gerber Fmt 4.6, Leading zero omitted, Abs format (unit mm)*
G04 Created by KiCad (PCBNEW (6.0.7-1)-1) date 2022-11-15 19:28:55*
%MOMM*%
%LPD*%
G01*
G04 APERTURE LIST*
G04 Aperture macros list*
%AMRoundRect*
0 Rectangle with rounded corners*
0 $1 Rounding radius*
0 $2 $3 $4 $5 $6 $7 $8 $9 X,Y pos of 4 corners*
0 Add a 4 corners polygon primitive as box body*
4,1,4,$2,$3,$4,$5,$6,$7,$8,$9,$2,$3,0*
0 Add four circle primitives for the rounded corners*
1,1,$1+$1,$2,$3*
1,1,$1+$1,$4,$5*
1,1,$1+$1,$6,$7*
1,1,$1+$1,$8,$9*
0 Add four rect primitives between the rounded corners*
20,1,$1+$1,$2,$3,$4,$5,0*
20,1,$1+$1,$4,$5,$6,$7,0*
20,1,$1+$1,$6,$7,$8,$9,0*
20,1,$1+$1,$8,$9,$2,$3,0*%
G04 Aperture macros list end*
%ADD10R,1.700000X1.700000*%
%ADD11O,1.700000X1.700000*%
%ADD12R,1.200000X1.400000*%
%ADD13RoundRect,0.250000X0.412500X0.650000X-0.412500X0.650000X-0.412500X-0.650000X0.412500X-0.650000X0*%
%ADD14R,1.600000X1.600000*%
%ADD15O,1.600000X1.600000*%
%ADD16RoundRect,0.250000X-0.412500X-0.650000X0.412500X-0.650000X0.412500X0.650000X-0.412500X0.650000X0*%
G04 APERTURE END LIST*
D10*
%TO.C,J1*%
X141025000Y-87775000D03*
D11*
X138485000Y-87775000D03*
X135945000Y-87775000D03*
%TD*%
D10*
%TO.C,J6*%
X113225000Y-114000000D03*
D11*
X110685000Y-114000000D03*
%TD*%
D10*
%TO.C,J2*%
X127700000Y-70475000D03*
D11*
X130240000Y-70475000D03*
X132780000Y-70475000D03*
X135320000Y-70475000D03*
%TD*%
D12*
%TO.C,Y1*%
X118250000Y-101000000D03*
X118250000Y-103200000D03*
X119950000Y-103200000D03*
X119950000Y-101000000D03*
%TD*%
D13*
%TO.C,C3*%
X136875000Y-100500000D03*
X133750000Y-100500000D03*
%TD*%
D14*
%TO.C,U1*%
X123150000Y-80250000D03*
D15*
X123150000Y-82790000D03*
X123150000Y-85330000D03*
X123150000Y-87870000D03*
X123150000Y-90410000D03*
X123150000Y-92950000D03*
X123150000Y-95490000D03*
X123150000Y-98030000D03*
X123150000Y-100570000D03*
X123150000Y-103110000D03*
X123150000Y-105650000D03*
X123150000Y-108190000D03*
X123150000Y-110730000D03*
X123150000Y-113270000D03*
X130770000Y-113270000D03*
X130770000Y-110730000D03*
X130770000Y-108190000D03*
X130770000Y-105650000D03*
X130770000Y-103110000D03*
X130770000Y-100570000D03*
X130770000Y-98030000D03*
X130770000Y-95490000D03*
X130770000Y-92950000D03*
X130770000Y-90410000D03*
X130770000Y-87870000D03*
X130770000Y-85330000D03*
X130770000Y-82790000D03*
X130770000Y-80250000D03*
%TD*%
D16*
%TO.C,C2*%
X133750000Y-98000000D03*
X136875000Y-98000000D03*
%TD*%
%TO.C,C4*%
X112787500Y-100600000D03*
X115912500Y-100600000D03*
%TD*%
D10*
%TO.C,J5*%
X141275000Y-82275000D03*
D11*
X138735000Y-82275000D03*
X136195000Y-82275000D03*
%TD*%
D10*
%TO.C,J4*%
X138000000Y-106500000D03*
D11*
X138000000Y-109040000D03*
%TD*%
D10*
%TO.C,J3*%
X109000000Y-82550000D03*
D11*
X109000000Y-85090000D03*
X109000000Y-87630000D03*
X109000000Y-90170000D03*
X109000000Y-92710000D03*
X109000000Y-95250000D03*
X109000000Y-97790000D03*
X109000000Y-100330000D03*
%TD*%
D16*
%TO.C,C5*%
X112787500Y-103350000D03*
X115912500Y-103350000D03*
%TD*%
D13*
%TO.C,C1*%
X120587500Y-95750000D03*
X117462500Y-95750000D03*
%TD*%
M02*
