M48
; DRILL file {KiCad (6.0.7-1)-1} date Tuesday, November 15, 2022 at 07:29:04 PM
; FORMAT={-:-/ absolute / inch / decimal}
; #@! TF.CreationDate,2022-11-15T19:29:04-05:00
; #@! TF.GenerationSoftware,Kicad,Pcbnew,(6.0.7-1)-1
; #@! TF.FileFunction,Plated,1,2,PTH
FMAT,2
INCH
; #@! TA.AperFunction,Plated,PTH,ViaDrill
T1C0.0157
; #@! TA.AperFunction,Plated,PTH,ComponentDrill
T2C0.0315
; #@! TA.AperFunction,Plated,PTH,ComponentDrill
T3C0.0394
%
G90
G05
T1
X4.439Y-3.8878
X4.4409Y-4.128
X4.5571Y-3.7697
X4.626Y-3.6909
X4.626Y-3.8484
X5.0Y-3.2894
X5.3839Y-3.7598
X5.3937Y-4.0453
X5.4626Y-3.8484
X5.4646Y-3.9665
T2
X4.8484Y-3.1594
X4.8484Y-3.2594
X4.8484Y-3.3594
X4.8484Y-3.4594
X4.8484Y-3.5594
X4.8484Y-3.6594
X4.8484Y-3.7594
X4.8484Y-3.8594
X4.8484Y-3.9594
X4.8484Y-4.0594
X4.8484Y-4.1594
X4.8484Y-4.2594
X4.8484Y-4.3594
X4.8484Y-4.4594
X5.1484Y-3.1594
X5.1484Y-3.2594
X5.1484Y-3.3594
X5.1484Y-3.4594
X5.1484Y-3.5594
X5.1484Y-3.6594
X5.1484Y-3.7594
X5.1484Y-3.8594
X5.1484Y-3.9594
X5.1484Y-4.0594
X5.1484Y-4.1594
X5.1484Y-4.2594
X5.1484Y-4.3594
X5.1484Y-4.4594
T3
X4.2913Y-3.25
X4.2913Y-3.35
X4.2913Y-3.45
X4.2913Y-3.55
X4.2913Y-3.65
X4.2913Y-3.75
X4.2913Y-3.85
X4.2913Y-3.95
X4.3577Y-4.4882
X4.4577Y-4.4882
X5.0276Y-2.7746
X5.1276Y-2.7746
X5.2276Y-2.7746
X5.3276Y-2.7746
X5.3522Y-3.4557
X5.362Y-3.2392
X5.4331Y-4.1929
X5.4331Y-4.2929
X5.4522Y-3.4557
X5.462Y-3.2392
X5.5522Y-3.4557
X5.562Y-3.2392
T0
M30
