%TF.GenerationSoftware,KiCad,Pcbnew,(6.0.7-1)-1*%
%TF.CreationDate,2022-11-15T19:28:54-05:00*%
%TF.ProjectId,pcb,7063622e-6b69-4636-9164-5f7063625858,rev?*%
%TF.SameCoordinates,Original*%
%TF.FileFunction,Copper,L1,Top*%
%TF.FilePolarity,Positive*%
%FSLAX46Y46*%
G04 Gerber Fmt 4.6, Leading zero omitted, Abs format (unit mm)*
G04 Created by KiCad (PCBNEW (6.0.7-1)-1) date 2022-11-15 19:28:54*
%MOMM*%
%LPD*%
G01*
G04 APERTURE LIST*
G04 Aperture macros list*
%AMRoundRect*
0 Rectangle with rounded corners*
0 $1 Rounding radius*
0 $2 $3 $4 $5 $6 $7 $8 $9 X,Y pos of 4 corners*
0 Add a 4 corners polygon primitive as box body*
4,1,4,$2,$3,$4,$5,$6,$7,$8,$9,$2,$3,0*
0 Add four circle primitives for the rounded corners*
1,1,$1+$1,$2,$3*
1,1,$1+$1,$4,$5*
1,1,$1+$1,$6,$7*
1,1,$1+$1,$8,$9*
0 Add four rect primitives between the rounded corners*
20,1,$1+$1,$2,$3,$4,$5,0*
20,1,$1+$1,$4,$5,$6,$7,0*
20,1,$1+$1,$6,$7,$8,$9,0*
20,1,$1+$1,$8,$9,$2,$3,0*%
G04 Aperture macros list end*
%TA.AperFunction,ComponentPad*%
%ADD10R,1.700000X1.700000*%
%TD*%
%TA.AperFunction,ComponentPad*%
%ADD11O,1.700000X1.700000*%
%TD*%
%TA.AperFunction,SMDPad,CuDef*%
%ADD12R,1.200000X1.400000*%
%TD*%
%TA.AperFunction,SMDPad,CuDef*%
%ADD13RoundRect,0.250000X0.412500X0.650000X-0.412500X0.650000X-0.412500X-0.650000X0.412500X-0.650000X0*%
%TD*%
%TA.AperFunction,ComponentPad*%
%ADD14R,1.600000X1.600000*%
%TD*%
%TA.AperFunction,ComponentPad*%
%ADD15O,1.600000X1.600000*%
%TD*%
%TA.AperFunction,SMDPad,CuDef*%
%ADD16RoundRect,0.250000X-0.412500X-0.650000X0.412500X-0.650000X0.412500X0.650000X-0.412500X0.650000X0*%
%TD*%
%TA.AperFunction,ViaPad*%
%ADD17C,0.800000*%
%TD*%
%TA.AperFunction,Conductor*%
%ADD18C,0.250000*%
%TD*%
G04 APERTURE END LIST*
D10*
%TO.P,J1,1,Pin_1*%
%TO.N,GND*%
X141025000Y-87775000D03*
D11*
%TO.P,J1,2,Pin_2*%
%TO.N,Net-(J1-Pad2)*%
X138485000Y-87775000D03*
%TO.P,J1,3,Pin_3*%
%TO.N,Net-(J1-Pad3)*%
X135945000Y-87775000D03*
%TD*%
D10*
%TO.P,J6,1,Pin_1*%
%TO.N,VCC*%
X113225000Y-114000000D03*
D11*
%TO.P,J6,2,Pin_2*%
%TO.N,GND*%
X110685000Y-114000000D03*
%TD*%
D10*
%TO.P,J2,1,Pin_1*%
%TO.N,Net-(J2-Pad1)*%
X127700000Y-70475000D03*
D11*
%TO.P,J2,2,Pin_2*%
%TO.N,Net-(J2-Pad2)*%
X130240000Y-70475000D03*
%TO.P,J2,3,Pin_3*%
%TO.N,VCC*%
X132780000Y-70475000D03*
%TO.P,J2,4,Pin_4*%
%TO.N,GND*%
X135320000Y-70475000D03*
%TD*%
D12*
%TO.P,Y1,1,1*%
%TO.N,Net-(C4-Pad2)*%
X118250000Y-101000000D03*
%TO.P,Y1,2,2*%
%TO.N,Net-(C5-Pad2)*%
X118250000Y-103200000D03*
%TO.P,Y1,3*%
%TO.N,N/C*%
X119950000Y-103200000D03*
%TO.P,Y1,4*%
X119950000Y-101000000D03*
%TD*%
D13*
%TO.P,C3,1*%
%TO.N,GND*%
X136875000Y-100500000D03*
%TO.P,C3,2*%
%TO.N,VCC*%
X133750000Y-100500000D03*
%TD*%
D14*
%TO.P,U1,1,~{RESET}/PC6*%
%TO.N,unconnected-(U1-Pad1)*%
X123150000Y-80250000D03*
D15*
%TO.P,U1,2,PD0*%
%TO.N,Net-(J3-Pad1)*%
X123150000Y-82790000D03*
%TO.P,U1,3,PD1*%
%TO.N,Net-(J3-Pad2)*%
X123150000Y-85330000D03*
%TO.P,U1,4,PD2*%
%TO.N,Net-(J3-Pad3)*%
X123150000Y-87870000D03*
%TO.P,U1,5,PD3*%
%TO.N,Net-(J3-Pad4)*%
X123150000Y-90410000D03*
%TO.P,U1,6,PD4*%
%TO.N,Net-(J3-Pad5)*%
X123150000Y-92950000D03*
%TO.P,U1,7,VCC*%
%TO.N,VCC*%
X123150000Y-95490000D03*
%TO.P,U1,8,GND*%
%TO.N,GND*%
X123150000Y-98030000D03*
%TO.P,U1,9,XTAL1/PB6*%
%TO.N,Net-(C4-Pad2)*%
X123150000Y-100570000D03*
%TO.P,U1,10,XTAL2/PB7*%
%TO.N,Net-(C5-Pad2)*%
X123150000Y-103110000D03*
%TO.P,U1,11,PD5*%
%TO.N,Net-(J3-Pad6)*%
X123150000Y-105650000D03*
%TO.P,U1,12,PD6*%
%TO.N,Net-(J3-Pad7)*%
X123150000Y-108190000D03*
%TO.P,U1,13,PD7*%
%TO.N,Net-(J3-Pad8)*%
X123150000Y-110730000D03*
%TO.P,U1,14,PB0*%
%TO.N,unconnected-(U1-Pad14)*%
X123150000Y-113270000D03*
%TO.P,U1,15,PB1*%
%TO.N,unconnected-(U1-Pad15)*%
X130770000Y-113270000D03*
%TO.P,U1,16,PB2*%
%TO.N,unconnected-(U1-Pad16)*%
X130770000Y-110730000D03*
%TO.P,U1,17,PB3*%
%TO.N,unconnected-(U1-Pad17)*%
X130770000Y-108190000D03*
%TO.P,U1,18,PB4*%
%TO.N,unconnected-(U1-Pad18)*%
X130770000Y-105650000D03*
%TO.P,U1,19,PB5*%
%TO.N,Net-(J4-Pad1)*%
X130770000Y-103110000D03*
%TO.P,U1,20,AVCC*%
%TO.N,VCC*%
X130770000Y-100570000D03*
%TO.P,U1,21,AREF*%
%TO.N,Net-(C2-Pad1)*%
X130770000Y-98030000D03*
%TO.P,U1,22,GND*%
%TO.N,GND*%
X130770000Y-95490000D03*
%TO.P,U1,23,PC0*%
%TO.N,unconnected-(U1-Pad23)*%
X130770000Y-92950000D03*
%TO.P,U1,24,PC1*%
%TO.N,unconnected-(U1-Pad24)*%
X130770000Y-90410000D03*
%TO.P,U1,25,PC2*%
%TO.N,Net-(J1-Pad3)*%
X130770000Y-87870000D03*
%TO.P,U1,26,PC3*%
%TO.N,Net-(J5-Pad2)*%
X130770000Y-85330000D03*
%TO.P,U1,27,PC4*%
%TO.N,Net-(J2-Pad1)*%
X130770000Y-82790000D03*
%TO.P,U1,28,PC5*%
%TO.N,Net-(J2-Pad2)*%
X130770000Y-80250000D03*
%TD*%
D16*
%TO.P,C2,1*%
%TO.N,Net-(C2-Pad1)*%
X133750000Y-98000000D03*
%TO.P,C2,2*%
%TO.N,GND*%
X136875000Y-98000000D03*
%TD*%
%TO.P,C4,1*%
%TO.N,GND*%
X112787500Y-100600000D03*
%TO.P,C4,2*%
%TO.N,Net-(C4-Pad2)*%
X115912500Y-100600000D03*
%TD*%
D10*
%TO.P,J5,1,Pin_1*%
%TO.N,Net-(J1-Pad2)*%
X141275000Y-82275000D03*
D11*
%TO.P,J5,2,Pin_2*%
%TO.N,Net-(J5-Pad2)*%
X138735000Y-82275000D03*
%TO.P,J5,3,Pin_3*%
%TO.N,VCC*%
X136195000Y-82275000D03*
%TD*%
D10*
%TO.P,J4,1,Pin_1*%
%TO.N,Net-(J4-Pad1)*%
X138000000Y-106500000D03*
D11*
%TO.P,J4,2,Pin_2*%
%TO.N,GND*%
X138000000Y-109040000D03*
%TD*%
D10*
%TO.P,J3,1,Pin_1*%
%TO.N,Net-(J3-Pad1)*%
X109000000Y-82550000D03*
D11*
%TO.P,J3,2,Pin_2*%
%TO.N,Net-(J3-Pad2)*%
X109000000Y-85090000D03*
%TO.P,J3,3,Pin_3*%
%TO.N,Net-(J3-Pad3)*%
X109000000Y-87630000D03*
%TO.P,J3,4,Pin_4*%
%TO.N,Net-(J3-Pad4)*%
X109000000Y-90170000D03*
%TO.P,J3,5,Pin_5*%
%TO.N,Net-(J3-Pad5)*%
X109000000Y-92710000D03*
%TO.P,J3,6,Pin_6*%
%TO.N,Net-(J3-Pad6)*%
X109000000Y-95250000D03*
%TO.P,J3,7,Pin_7*%
%TO.N,Net-(J3-Pad7)*%
X109000000Y-97790000D03*
%TO.P,J3,8,Pin_8*%
%TO.N,Net-(J3-Pad8)*%
X109000000Y-100330000D03*
%TD*%
D16*
%TO.P,C5,1*%
%TO.N,GND*%
X112787500Y-103350000D03*
%TO.P,C5,2*%
%TO.N,Net-(C5-Pad2)*%
X115912500Y-103350000D03*
%TD*%
D13*
%TO.P,C1,1*%
%TO.N,VCC*%
X120587500Y-95750000D03*
%TO.P,C1,2*%
%TO.N,GND*%
X117462500Y-95750000D03*
%TD*%
D17*
%TO.N,VCC*%
X127000000Y-83550000D03*
%TO.N,GND*%
X115750000Y-95750000D03*
X117500000Y-93750000D03*
X112750000Y-98750000D03*
X138750000Y-97750000D03*
X136750000Y-95500000D03*
X137000000Y-102750000D03*
X117500000Y-97750000D03*
X112800000Y-104850000D03*
X138800000Y-100750000D03*
%TD*%
D18*
%TO.N,VCC*%
X123150000Y-95490000D02*
X126860000Y-95490000D01*
X120760000Y-95490000D02*
X120500000Y-95750000D01*
X120000000Y-114000000D02*
X113225000Y-114000000D01*
X124750000Y-115750000D02*
X121750000Y-115750000D01*
X127000000Y-113500000D02*
X124750000Y-115750000D01*
X127000000Y-95350000D02*
X127000000Y-100550000D01*
X121750000Y-115750000D02*
X120000000Y-114000000D01*
X127000000Y-100550000D02*
X127000000Y-113500000D01*
X130770000Y-100570000D02*
X133370000Y-100570000D01*
X126860000Y-95490000D02*
X127000000Y-95350000D01*
X123150000Y-95490000D02*
X120760000Y-95490000D01*
X127000000Y-83550000D02*
X127000000Y-95350000D01*
X133370000Y-100570000D02*
X133550000Y-100750000D01*
X127020000Y-100570000D02*
X127000000Y-100550000D01*
X130770000Y-100570000D02*
X127020000Y-100570000D01*
%TO.N,Net-(C2-Pad1)*%
X130770000Y-98030000D02*
X133720000Y-98030000D01*
X133720000Y-98030000D02*
X133750000Y-98000000D01*
%TO.N,Net-(C4-Pad2)*%
X123150000Y-100570000D02*
X121830000Y-99250000D01*
X118250000Y-99250000D02*
X118250000Y-101000000D01*
X116850000Y-100600000D02*
X115825000Y-100600000D01*
X118250000Y-101000000D02*
X117250000Y-101000000D01*
X117250000Y-101000000D02*
X116850000Y-100600000D01*
X121830000Y-99250000D02*
X118250000Y-99250000D01*
%TO.N,Net-(C5-Pad2)*%
X123150000Y-103110000D02*
X121510000Y-104750000D01*
X118250000Y-103200000D02*
X115975000Y-103200000D01*
X115975000Y-103200000D02*
X115825000Y-103350000D01*
X118250000Y-104750000D02*
X118250000Y-103200000D01*
X121510000Y-104750000D02*
X118250000Y-104750000D01*
%TO.N,Net-(J1-Pad2)*%
X138485000Y-86265000D02*
X138485000Y-87775000D01*
X141275000Y-83475000D02*
X138485000Y-86265000D01*
X141275000Y-82275000D02*
X141275000Y-83475000D01*
%TO.N,Net-(J3-Pad3)*%
X109000000Y-87630000D02*
X122910000Y-87630000D01*
X122910000Y-87630000D02*
X123150000Y-87870000D01*
%TO.N,Net-(J2-Pad1)*%
X127700000Y-70475000D02*
X127700000Y-79720000D01*
X127700000Y-79720000D02*
X130770000Y-82790000D01*
%TO.N,Net-(J2-Pad2)*%
X130770000Y-74755000D02*
X130240000Y-74225000D01*
X130770000Y-80250000D02*
X130770000Y-74755000D01*
X130240000Y-70475000D02*
X130240000Y-74225000D01*
%TO.N,Net-(J3-Pad1)*%
X122910000Y-82550000D02*
X123150000Y-82790000D01*
X109000000Y-82550000D02*
X122910000Y-82550000D01*
%TO.N,Net-(J3-Pad2)*%
X122910000Y-85090000D02*
X123150000Y-85330000D01*
X109000000Y-85090000D02*
X122910000Y-85090000D01*
%TO.N,Net-(J3-Pad4)*%
X109000000Y-90170000D02*
X122910000Y-90170000D01*
X122910000Y-90170000D02*
X123150000Y-90410000D01*
%TO.N,Net-(J3-Pad5)*%
X122910000Y-92710000D02*
X123150000Y-92950000D01*
X109000000Y-92710000D02*
X122910000Y-92710000D01*
%TO.N,Net-(J3-Pad6)*%
X111350000Y-105650000D02*
X123150000Y-105650000D01*
X109000000Y-95250000D02*
X111000000Y-97250000D01*
X111000000Y-105300000D02*
X111350000Y-105650000D01*
X111000000Y-97250000D02*
X111000000Y-105300000D01*
%TO.N,Net-(J3-Pad7)*%
X109000000Y-98750000D02*
X109405000Y-99155000D01*
X109000000Y-97790000D02*
X109000000Y-98750000D01*
X109486701Y-99155000D02*
X110250000Y-99918299D01*
X110250000Y-99918299D02*
X110250000Y-105500000D01*
X112940000Y-108190000D02*
X123150000Y-108190000D01*
X109405000Y-99155000D02*
X109486701Y-99155000D01*
X110250000Y-105500000D02*
X112940000Y-108190000D01*
%TO.N,Net-(J3-Pad8)*%
X109000000Y-106250000D02*
X109000000Y-100330000D01*
X115730000Y-110730000D02*
X115710000Y-110750000D01*
X113500000Y-110750000D02*
X109000000Y-106250000D01*
X115710000Y-110750000D02*
X113500000Y-110750000D01*
X123150000Y-110730000D02*
X115730000Y-110730000D01*
%TO.N,Net-(J4-Pad1)*%
X135500000Y-106500000D02*
X138000000Y-106500000D01*
X130770000Y-103110000D02*
X132110000Y-103110000D01*
X132110000Y-103110000D02*
X135500000Y-106500000D01*
%TO.N,Net-(J1-Pad3)*%
X130770000Y-87870000D02*
X135850000Y-87870000D01*
X135850000Y-87870000D02*
X135945000Y-87775000D01*
%TO.N,Net-(J5-Pad2)*%
X135680000Y-85330000D02*
X138735000Y-82275000D01*
X130770000Y-85330000D02*
X135680000Y-85330000D01*
%TD*%
%TA.AperFunction,Conductor*%
%TO.N,GND*%
G36*
X140392581Y-66760154D02*
G01*
X140401558Y-66761551D01*
X140406429Y-66762310D01*
X140406430Y-66762310D01*
X140415300Y-66763691D01*
X140434655Y-66761160D01*
X140457170Y-66760248D01*
X140757632Y-66775007D01*
X140769921Y-66776217D01*
X141096615Y-66824676D01*
X141108736Y-66827086D01*
X141259700Y-66864900D01*
X141429102Y-66907332D01*
X141440934Y-66910921D01*
X141751899Y-67022184D01*
X141763306Y-67026909D01*
X142061875Y-67168119D01*
X142072774Y-67173945D01*
X142356055Y-67343736D01*
X142366336Y-67350606D01*
X142631602Y-67547339D01*
X142641160Y-67555183D01*
X142885863Y-67776966D01*
X142894607Y-67785709D01*
X143116407Y-68030427D01*
X143124243Y-68039975D01*
X143320995Y-68305263D01*
X143327845Y-68315515D01*
X143447647Y-68515391D01*
X143497642Y-68598802D01*
X143503471Y-68609707D01*
X143644680Y-68908268D01*
X143649411Y-68919692D01*
X143760668Y-69230632D01*
X143764258Y-69242464D01*
X143788068Y-69337517D01*
X143836481Y-69530791D01*
X143844508Y-69562838D01*
X143846919Y-69574963D01*
X143879855Y-69796993D01*
X143895379Y-69901649D01*
X143896591Y-69913955D01*
X143910982Y-70206902D01*
X143909635Y-70232464D01*
X143907882Y-70243724D01*
X143909046Y-70252627D01*
X143909046Y-70252630D01*
X143912085Y-70275873D01*
X143913149Y-70291976D01*
X143986065Y-110270729D01*
X143991409Y-113200988D01*
X143989909Y-113220602D01*
X143986309Y-113243724D01*
X143988984Y-113264183D01*
X143989928Y-113286007D01*
X143977436Y-113572101D01*
X143974648Y-113635964D01*
X143973690Y-113646913D01*
X143926725Y-114003657D01*
X143923982Y-114024490D01*
X143922074Y-114035307D01*
X143864126Y-114296695D01*
X143839647Y-114407114D01*
X143836802Y-114417731D01*
X143729043Y-114759500D01*
X143722285Y-114780932D01*
X143718529Y-114791254D01*
X143583808Y-115116500D01*
X143572784Y-115143114D01*
X143568142Y-115153067D01*
X143475312Y-115331392D01*
X143392295Y-115490867D01*
X143386799Y-115500387D01*
X143182180Y-115821574D01*
X143175876Y-115830578D01*
X142944038Y-116132716D01*
X142936972Y-116141137D01*
X142679686Y-116421914D01*
X142671914Y-116429686D01*
X142391137Y-116686972D01*
X142382716Y-116694038D01*
X142080578Y-116925876D01*
X142071574Y-116932180D01*
X141750387Y-117136799D01*
X141740868Y-117142294D01*
X141403067Y-117318142D01*
X141393123Y-117322780D01*
X141041254Y-117468529D01*
X141030939Y-117472282D01*
X140667732Y-117586802D01*
X140657115Y-117589647D01*
X140285307Y-117672074D01*
X140274498Y-117673981D01*
X139896914Y-117723690D01*
X139885965Y-117724648D01*
X139543446Y-117739603D01*
X139518571Y-117738223D01*
X139506276Y-117736309D01*
X139497374Y-117737473D01*
X139497372Y-117737473D01*
X139486928Y-117738839D01*
X139474714Y-117740436D01*
X139458379Y-117741500D01*
X108549367Y-117741500D01*
X108529982Y-117740000D01*
X108515148Y-117737690D01*
X108515145Y-117737690D01*
X108506276Y-117736309D01*
X108497373Y-117737473D01*
X108497372Y-117737473D01*
X108486924Y-117738839D01*
X108464406Y-117739751D01*
X108163949Y-117724990D01*
X108151655Y-117723779D01*
X107824966Y-117675320D01*
X107812844Y-117672910D01*
X107718804Y-117649354D01*
X107492477Y-117592661D01*
X107480645Y-117589072D01*
X107169689Y-117477810D01*
X107158265Y-117473078D01*
X106994130Y-117395448D01*
X106859708Y-117331872D01*
X106848812Y-117326047D01*
X106707899Y-117241588D01*
X106565533Y-117156256D01*
X106555252Y-117149386D01*
X106484483Y-117096901D01*
X106289983Y-116952650D01*
X106280444Y-116944823D01*
X106035718Y-116723015D01*
X106026980Y-116714277D01*
X105805177Y-116469556D01*
X105797350Y-116460017D01*
X105644960Y-116254542D01*
X105600614Y-116194748D01*
X105593744Y-116184467D01*
X105423955Y-115901193D01*
X105418126Y-115890288D01*
X105410422Y-115873998D01*
X105276922Y-115591735D01*
X105272190Y-115580311D01*
X105160928Y-115269355D01*
X105157339Y-115257523D01*
X105087278Y-114977826D01*
X105077090Y-114937156D01*
X105074679Y-114925031D01*
X105070689Y-114898134D01*
X105026220Y-114598343D01*
X105025009Y-114586045D01*
X105024861Y-114583019D01*
X105016473Y-114412275D01*
X105010795Y-114296695D01*
X105012387Y-114269619D01*
X105012665Y-114267966D01*
X109353257Y-114267966D01*
X109383565Y-114402446D01*
X109386645Y-114412275D01*
X109466770Y-114609603D01*
X109471413Y-114618794D01*
X109582694Y-114800388D01*
X109588777Y-114808699D01*
X109728213Y-114969667D01*
X109735580Y-114976883D01*
X109899434Y-115112916D01*
X109907881Y-115118831D01*
X110091756Y-115226279D01*
X110101042Y-115230729D01*
X110300001Y-115306703D01*
X110309899Y-115309579D01*
X110413250Y-115330606D01*
X110427299Y-115329410D01*
X110431000Y-115319065D01*
X110431000Y-114272115D01*
X110426525Y-114256876D01*
X110425135Y-114255671D01*
X110417452Y-114254000D01*
X109368225Y-114254000D01*
X109354694Y-114257973D01*
X109353257Y-114267966D01*
X105012665Y-114267966D01*
X105013576Y-114262552D01*
X105013729Y-114250000D01*
X105009688Y-114221785D01*
X105008417Y-114204163D01*
X105007560Y-113734183D01*
X109349389Y-113734183D01*
X109350912Y-113742607D01*
X109363292Y-113746000D01*
X110412885Y-113746000D01*
X110428124Y-113741525D01*
X110429329Y-113740135D01*
X110431000Y-113732452D01*
X110431000Y-112683102D01*
X110427082Y-112669758D01*
X110412806Y-112667771D01*
X110374324Y-112673660D01*
X110364288Y-112676051D01*
X110161868Y-112742212D01*
X110152359Y-112746209D01*
X109963463Y-112844542D01*
X109954738Y-112850036D01*
X109784433Y-112977905D01*
X109776726Y-112984748D01*
X109629590Y-113138717D01*
X109623104Y-113146727D01*
X109503098Y-113322649D01*
X109498000Y-113331623D01*
X109408338Y-113524783D01*
X109404775Y-113534470D01*
X109349389Y-113734183D01*
X105007560Y-113734183D01*
X104983052Y-100296695D01*
X107637251Y-100296695D01*
X107637548Y-100301848D01*
X107637548Y-100301851D01*
X107640094Y-100346000D01*
X107650110Y-100519715D01*
X107651247Y-100524761D01*
X107651248Y-100524767D01*
X107661442Y-100570000D01*
X107699222Y-100737639D01*
X107783266Y-100944616D01*
X107899987Y-101135088D01*
X108046250Y-101303938D01*
X108218126Y-101446632D01*
X108304070Y-101496853D01*
X108352794Y-101548491D01*
X108366500Y-101605641D01*
X108366500Y-106171233D01*
X108365973Y-106182416D01*
X108364298Y-106189909D01*
X108364547Y-106197835D01*
X108364547Y-106197836D01*
X108366438Y-106257986D01*
X108366500Y-106261945D01*
X108366500Y-106289856D01*
X108366997Y-106293790D01*
X108366997Y-106293791D01*
X108367005Y-106293856D01*
X108367938Y-106305693D01*
X108369327Y-106349889D01*
X108374978Y-106369339D01*
X108378987Y-106388700D01*
X108381526Y-106408797D01*
X108384445Y-106416168D01*
X108384445Y-106416170D01*
X108397804Y-106449912D01*
X108401649Y-106461142D01*
X108413982Y-106503593D01*
X108418015Y-106510412D01*
X108418017Y-106510417D01*
X108424293Y-106521028D01*
X108432988Y-106538776D01*
X108440448Y-106557617D01*
X108445110Y-106564033D01*
X108445110Y-106564034D01*
X108466436Y-106593387D01*
X108472952Y-106603307D01*
X108495458Y-106641362D01*
X108509779Y-106655683D01*
X108522619Y-106670716D01*
X108534528Y-106687107D01*
X108540634Y-106692158D01*
X108568605Y-106715298D01*
X108577384Y-106723288D01*
X112996348Y-111142253D01*
X113003888Y-111150539D01*
X113008000Y-111157018D01*
X113013777Y-111162443D01*
X113057651Y-111203643D01*
X113060493Y-111206398D01*
X113080230Y-111226135D01*
X113083427Y-111228615D01*
X113092447Y-111236318D01*
X113124679Y-111266586D01*
X113131625Y-111270405D01*
X113131628Y-111270407D01*
X113142434Y-111276348D01*
X113158953Y-111287199D01*
X113174959Y-111299614D01*
X113182228Y-111302759D01*
X113182232Y-111302762D01*
X113215537Y-111317174D01*
X113226187Y-111322391D01*
X113264940Y-111343695D01*
X113272615Y-111345666D01*
X113272616Y-111345666D01*
X113284562Y-111348733D01*
X113303267Y-111355137D01*
X113321855Y-111363181D01*
X113329678Y-111364420D01*
X113329688Y-111364423D01*
X113365524Y-111370099D01*
X113377144Y-111372505D01*
X113408959Y-111380673D01*
X113419970Y-111383500D01*
X113440224Y-111383500D01*
X113459934Y-111385051D01*
X113479943Y-111388220D01*
X113487835Y-111387474D01*
X113506580Y-111385702D01*
X113523962Y-111384059D01*
X113535819Y-111383500D01*
X115631233Y-111383500D01*
X115642416Y-111384027D01*
X115649909Y-111385702D01*
X115657835Y-111385453D01*
X115657836Y-111385453D01*
X115717986Y-111383562D01*
X115721945Y-111383500D01*
X115749856Y-111383500D01*
X115753791Y-111383003D01*
X115753856Y-111382995D01*
X115765693Y-111382062D01*
X115797951Y-111381048D01*
X115801970Y-111380922D01*
X115809889Y-111380673D01*
X115829343Y-111375021D01*
X115848700Y-111371013D01*
X115860933Y-111369468D01*
X115860937Y-111369467D01*
X115868797Y-111368474D01*
X115872581Y-111366976D01*
X115900091Y-111363500D01*
X121930606Y-111363500D01*
X121998727Y-111383502D01*
X122033819Y-111417229D01*
X122143802Y-111574300D01*
X122305700Y-111736198D01*
X122310208Y-111739355D01*
X122310211Y-111739357D01*
X122388389Y-111794098D01*
X122493251Y-111867523D01*
X122498233Y-111869846D01*
X122498238Y-111869849D01*
X122532457Y-111885805D01*
X122585742Y-111932722D01*
X122605203Y-112000999D01*
X122584661Y-112068959D01*
X122532457Y-112114195D01*
X122498238Y-112130151D01*
X122498233Y-112130154D01*
X122493251Y-112132477D01*
X122388389Y-112205902D01*
X122310211Y-112260643D01*
X122310208Y-112260645D01*
X122305700Y-112263802D01*
X122143802Y-112425700D01*
X122012477Y-112613251D01*
X122010154Y-112618233D01*
X122010151Y-112618238D01*
X121944234Y-112759599D01*
X121915716Y-112820757D01*
X121914294Y-112826065D01*
X121914293Y-112826067D01*
X121904526Y-112862517D01*
X121856457Y-113041913D01*
X121836502Y-113270000D01*
X121856457Y-113498087D01*
X121857881Y-113503400D01*
X121857881Y-113503402D01*
X121893003Y-113634476D01*
X121915716Y-113719243D01*
X121918039Y-113724224D01*
X121918039Y-113724225D01*
X122010151Y-113921762D01*
X122010154Y-113921767D01*
X122012477Y-113926749D01*
X122143802Y-114114300D01*
X122305700Y-114276198D01*
X122310208Y-114279355D01*
X122310211Y-114279357D01*
X122388389Y-114334098D01*
X122493251Y-114407523D01*
X122498233Y-114409846D01*
X122498238Y-114409849D01*
X122695775Y-114501961D01*
X122700757Y-114504284D01*
X122706065Y-114505706D01*
X122706067Y-114505707D01*
X122916598Y-114562119D01*
X122916600Y-114562119D01*
X122921913Y-114563543D01*
X123150000Y-114583498D01*
X123378087Y-114563543D01*
X123383400Y-114562119D01*
X123383402Y-114562119D01*
X123593933Y-114505707D01*
X123593935Y-114505706D01*
X123599243Y-114504284D01*
X123604225Y-114501961D01*
X123801762Y-114409849D01*
X123801767Y-114409846D01*
X123806749Y-114407523D01*
X123911611Y-114334098D01*
X123989789Y-114279357D01*
X123989792Y-114279355D01*
X123994300Y-114276198D01*
X124156198Y-114114300D01*
X124287523Y-113926749D01*
X124289846Y-113921767D01*
X124289849Y-113921762D01*
X124381961Y-113724225D01*
X124381961Y-113724224D01*
X124384284Y-113719243D01*
X124406998Y-113634476D01*
X124442119Y-113503402D01*
X124442119Y-113503400D01*
X124443543Y-113498087D01*
X124463498Y-113270000D01*
X124443543Y-113041913D01*
X124395474Y-112862517D01*
X124385707Y-112826067D01*
X124385706Y-112826065D01*
X124384284Y-112820757D01*
X124355766Y-112759599D01*
X124289849Y-112618238D01*
X124289846Y-112618233D01*
X124287523Y-112613251D01*
X124156198Y-112425700D01*
X123994300Y-112263802D01*
X123989792Y-112260645D01*
X123989789Y-112260643D01*
X123911611Y-112205902D01*
X123806749Y-112132477D01*
X123801767Y-112130154D01*
X123801762Y-112130151D01*
X123767543Y-112114195D01*
X123714258Y-112067278D01*
X123694797Y-111999001D01*
X123715339Y-111931041D01*
X123767543Y-111885805D01*
X123801762Y-111869849D01*
X123801767Y-111869846D01*
X123806749Y-111867523D01*
X123911611Y-111794098D01*
X123989789Y-111739357D01*
X123989792Y-111739355D01*
X123994300Y-111736198D01*
X124156198Y-111574300D01*
X124287523Y-111386749D01*
X124289846Y-111381767D01*
X124289849Y-111381762D01*
X124381961Y-111184225D01*
X124381961Y-111184224D01*
X124384284Y-111179243D01*
X124443543Y-110958087D01*
X124463498Y-110730000D01*
X124443543Y-110501913D01*
X124384284Y-110280757D01*
X124350107Y-110207464D01*
X124289849Y-110078238D01*
X124289846Y-110078233D01*
X124287523Y-110073251D01*
X124184985Y-109926812D01*
X124159357Y-109890211D01*
X124159355Y-109890208D01*
X124156198Y-109885700D01*
X123994300Y-109723802D01*
X123989792Y-109720645D01*
X123989789Y-109720643D01*
X123888333Y-109649603D01*
X123806749Y-109592477D01*
X123801767Y-109590154D01*
X123801762Y-109590151D01*
X123767543Y-109574195D01*
X123714258Y-109527278D01*
X123694797Y-109459001D01*
X123715339Y-109391041D01*
X123767543Y-109345805D01*
X123801762Y-109329849D01*
X123801767Y-109329846D01*
X123806749Y-109327523D01*
X123911611Y-109254098D01*
X123989789Y-109199357D01*
X123989792Y-109199355D01*
X123994300Y-109196198D01*
X124156198Y-109034300D01*
X124287523Y-108846749D01*
X124289846Y-108841767D01*
X124289849Y-108841762D01*
X124381961Y-108644225D01*
X124381961Y-108644224D01*
X124384284Y-108639243D01*
X124443543Y-108418087D01*
X124463498Y-108190000D01*
X124443543Y-107961913D01*
X124423568Y-107887367D01*
X124385707Y-107746067D01*
X124385706Y-107746065D01*
X124384284Y-107740757D01*
X124373972Y-107718642D01*
X124289849Y-107538238D01*
X124289846Y-107538233D01*
X124287523Y-107533251D01*
X124214098Y-107428389D01*
X124159357Y-107350211D01*
X124159355Y-107350208D01*
X124156198Y-107345700D01*
X123994300Y-107183802D01*
X123989792Y-107180645D01*
X123989789Y-107180643D01*
X123827738Y-107067174D01*
X123806749Y-107052477D01*
X123801767Y-107050154D01*
X123801762Y-107050151D01*
X123767543Y-107034195D01*
X123714258Y-106987278D01*
X123694797Y-106919001D01*
X123715339Y-106851041D01*
X123767543Y-106805805D01*
X123801762Y-106789849D01*
X123801767Y-106789846D01*
X123806749Y-106787523D01*
X123942944Y-106692158D01*
X123989789Y-106659357D01*
X123989792Y-106659355D01*
X123994300Y-106656198D01*
X124156198Y-106494300D01*
X124183415Y-106455431D01*
X124262861Y-106341970D01*
X124287523Y-106306749D01*
X124289846Y-106301767D01*
X124289849Y-106301762D01*
X124381961Y-106104225D01*
X124381961Y-106104224D01*
X124384284Y-106099243D01*
X124443543Y-105878087D01*
X124463498Y-105650000D01*
X124443543Y-105421913D01*
X124384284Y-105200757D01*
X124359802Y-105148255D01*
X124289849Y-104998238D01*
X124289846Y-104998233D01*
X124287523Y-104993251D01*
X124195433Y-104861733D01*
X124159357Y-104810211D01*
X124159355Y-104810208D01*
X124156198Y-104805700D01*
X123994300Y-104643802D01*
X123989792Y-104640645D01*
X123989789Y-104640643D01*
X123883993Y-104566564D01*
X123806749Y-104512477D01*
X123801767Y-104510154D01*
X123801762Y-104510151D01*
X123767543Y-104494195D01*
X123714258Y-104447278D01*
X123694797Y-104379001D01*
X123715339Y-104311041D01*
X123767543Y-104265805D01*
X123801762Y-104249849D01*
X123801767Y-104249846D01*
X123806749Y-104247523D01*
X123950732Y-104146705D01*
X123989789Y-104119357D01*
X123989792Y-104119355D01*
X123994300Y-104116198D01*
X124156198Y-103954300D01*
X124160516Y-103948134D01*
X124284366Y-103771257D01*
X124287523Y-103766749D01*
X124289846Y-103761767D01*
X124289849Y-103761762D01*
X124381961Y-103564225D01*
X124381961Y-103564224D01*
X124384284Y-103559243D01*
X124426541Y-103401541D01*
X124442119Y-103343402D01*
X124442120Y-103343398D01*
X124443543Y-103338087D01*
X124463498Y-103110000D01*
X124443543Y-102881913D01*
X124384284Y-102660757D01*
X124380582Y-102652817D01*
X124289849Y-102458238D01*
X124289846Y-102458233D01*
X124287523Y-102453251D01*
X124156198Y-102265700D01*
X123994300Y-102103802D01*
X123989792Y-102100645D01*
X123989789Y-102100643D01*
X123888090Y-102029433D01*
X123806749Y-101972477D01*
X123801767Y-101970154D01*
X123801762Y-101970151D01*
X123767543Y-101954195D01*
X123714258Y-101907278D01*
X123694797Y-101839001D01*
X123715339Y-101771041D01*
X123767543Y-101725805D01*
X123801762Y-101709849D01*
X123801767Y-101709846D01*
X123806749Y-101707523D01*
X123918594Y-101629208D01*
X123989789Y-101579357D01*
X123989792Y-101579355D01*
X123994300Y-101576198D01*
X124156198Y-101414300D01*
X124287523Y-101226749D01*
X124289846Y-101221767D01*
X124289849Y-101221762D01*
X124381961Y-101024225D01*
X124381961Y-101024224D01*
X124384284Y-101019243D01*
X124403101Y-100949020D01*
X124442119Y-100803402D01*
X124442119Y-100803400D01*
X124443543Y-100798087D01*
X124463498Y-100570000D01*
X124443543Y-100341913D01*
X124439784Y-100327885D01*
X124385707Y-100126067D01*
X124385706Y-100126065D01*
X124384284Y-100120757D01*
X124351470Y-100050386D01*
X124289849Y-99918238D01*
X124289846Y-99918233D01*
X124287523Y-99913251D01*
X124208302Y-99800112D01*
X124159357Y-99730211D01*
X124159355Y-99730208D01*
X124156198Y-99725700D01*
X123994300Y-99563802D01*
X123989792Y-99560645D01*
X123989789Y-99560643D01*
X123878800Y-99482928D01*
X123806749Y-99432477D01*
X123801767Y-99430154D01*
X123801762Y-99430151D01*
X123766951Y-99413919D01*
X123713666Y-99367002D01*
X123694205Y-99298725D01*
X123714747Y-99230765D01*
X123766951Y-99185529D01*
X123801511Y-99169414D01*
X123811007Y-99163931D01*
X123989467Y-99038972D01*
X123997875Y-99031916D01*
X124151916Y-98877875D01*
X124158972Y-98869467D01*
X124283931Y-98691007D01*
X124289414Y-98681511D01*
X124381490Y-98484053D01*
X124385236Y-98473761D01*
X124431394Y-98301497D01*
X124431058Y-98287401D01*
X124423116Y-98284000D01*
X121882033Y-98284000D01*
X121868502Y-98287973D01*
X121867273Y-98296522D01*
X121910511Y-98457889D01*
X121908821Y-98528866D01*
X121869027Y-98587661D01*
X121803762Y-98615609D01*
X121788804Y-98616500D01*
X118321793Y-98616500D01*
X118298184Y-98614268D01*
X118297881Y-98614210D01*
X118297877Y-98614210D01*
X118290094Y-98612725D01*
X118234049Y-98616251D01*
X118226138Y-98616500D01*
X118210144Y-98616500D01*
X118194270Y-98618506D01*
X118186410Y-98619248D01*
X118158951Y-98620976D01*
X118138263Y-98622277D01*
X118138262Y-98622277D01*
X118130350Y-98622775D01*
X118122809Y-98625225D01*
X118122513Y-98625321D01*
X118099369Y-98630494D01*
X118099065Y-98630532D01*
X118099060Y-98630533D01*
X118091203Y-98631526D01*
X118083838Y-98634442D01*
X118083834Y-98634443D01*
X118038989Y-98652199D01*
X118031570Y-98654871D01*
X117978125Y-98672236D01*
X117971429Y-98676486D01*
X117971428Y-98676486D01*
X117971169Y-98676650D01*
X117950042Y-98687415D01*
X117949754Y-98687529D01*
X117949749Y-98687532D01*
X117942383Y-98690448D01*
X117935975Y-98695104D01*
X117935969Y-98695107D01*
X117896948Y-98723458D01*
X117890411Y-98727901D01*
X117842982Y-98758000D01*
X117837556Y-98763778D01*
X117837555Y-98763779D01*
X117837341Y-98764007D01*
X117819554Y-98779688D01*
X117819309Y-98779866D01*
X117819307Y-98779868D01*
X117812893Y-98784528D01*
X117807839Y-98790637D01*
X117807838Y-98790638D01*
X117777097Y-98827796D01*
X117771866Y-98833730D01*
X117738842Y-98868898D01*
X117738840Y-98868901D01*
X117733414Y-98874679D01*
X117729445Y-98881899D01*
X117716119Y-98901506D01*
X117715920Y-98901746D01*
X117715916Y-98901753D01*
X117710867Y-98907856D01*
X117700481Y-98929927D01*
X117686953Y-98958676D01*
X117683371Y-98965708D01*
X117656305Y-99014940D01*
X117654335Y-99022615D01*
X117654332Y-99022621D01*
X117654256Y-99022919D01*
X117646224Y-99045228D01*
X117646094Y-99045503D01*
X117646091Y-99045511D01*
X117642717Y-99052682D01*
X117632195Y-99107843D01*
X117630471Y-99115558D01*
X117616500Y-99169970D01*
X117616500Y-99178207D01*
X117614268Y-99201816D01*
X117612725Y-99209906D01*
X117615152Y-99248478D01*
X117616251Y-99265951D01*
X117616500Y-99273862D01*
X117616500Y-99682130D01*
X117596498Y-99750251D01*
X117542842Y-99796744D01*
X117534730Y-99800112D01*
X117425192Y-99841176D01*
X117403295Y-99849385D01*
X117286739Y-99936739D01*
X117286093Y-99935877D01*
X117231066Y-99965925D01*
X117160251Y-99960860D01*
X117103415Y-99918313D01*
X117078956Y-99855807D01*
X117073238Y-99800693D01*
X117073237Y-99800690D01*
X117072526Y-99793834D01*
X117048495Y-99721803D01*
X117018868Y-99633002D01*
X117016550Y-99626054D01*
X116923478Y-99475652D01*
X116798303Y-99350695D01*
X116779540Y-99339129D01*
X116653968Y-99261725D01*
X116653966Y-99261724D01*
X116647738Y-99257885D01*
X116526936Y-99217817D01*
X116486389Y-99204368D01*
X116486387Y-99204368D01*
X116479861Y-99202203D01*
X116473025Y-99201503D01*
X116473022Y-99201502D01*
X116429969Y-99197091D01*
X116375400Y-99191500D01*
X115449600Y-99191500D01*
X115446354Y-99191837D01*
X115446350Y-99191837D01*
X115350692Y-99201762D01*
X115350688Y-99201763D01*
X115343834Y-99202474D01*
X115337298Y-99204655D01*
X115337296Y-99204655D01*
X115253170Y-99232722D01*
X115176054Y-99258450D01*
X115025652Y-99351522D01*
X114900695Y-99476697D01*
X114807885Y-99627262D01*
X114783496Y-99700794D01*
X114767092Y-99750251D01*
X114752203Y-99795139D01*
X114741500Y-99899600D01*
X114741500Y-101300400D01*
X114741837Y-101303646D01*
X114741837Y-101303650D01*
X114751618Y-101397914D01*
X114752474Y-101406166D01*
X114754655Y-101412702D01*
X114754655Y-101412704D01*
X114772698Y-101466784D01*
X114808450Y-101573946D01*
X114901522Y-101724348D01*
X114906704Y-101729521D01*
X114921927Y-101744717D01*
X115026697Y-101849305D01*
X115032929Y-101853147D01*
X115032931Y-101853148D01*
X115056691Y-101867794D01*
X115104185Y-101920566D01*
X115115609Y-101990637D01*
X115087335Y-102055761D01*
X115056879Y-102082198D01*
X115025652Y-102101522D01*
X114900695Y-102226697D01*
X114896855Y-102232927D01*
X114896854Y-102232928D01*
X114821669Y-102354901D01*
X114807885Y-102377262D01*
X114784267Y-102448469D01*
X114762421Y-102514334D01*
X114752203Y-102545139D01*
X114741500Y-102649600D01*
X114741500Y-104050400D01*
X114741837Y-104053646D01*
X114741837Y-104053650D01*
X114751618Y-104147914D01*
X114752474Y-104156166D01*
X114754655Y-104162702D01*
X114754655Y-104162704D01*
X114767939Y-104202521D01*
X114808450Y-104323946D01*
X114901522Y-104474348D01*
X115026697Y-104599305D01*
X115032927Y-104603145D01*
X115032928Y-104603146D01*
X115170288Y-104687816D01*
X115177262Y-104692115D01*
X115230901Y-104709906D01*
X115338611Y-104745632D01*
X115338613Y-104745632D01*
X115345139Y-104747797D01*
X115351975Y-104748497D01*
X115351978Y-104748498D01*
X115395031Y-104752909D01*
X115449600Y-104758500D01*
X116375400Y-104758500D01*
X116378646Y-104758163D01*
X116378650Y-104758163D01*
X116474308Y-104748238D01*
X116474312Y-104748237D01*
X116481166Y-104747526D01*
X116487702Y-104745345D01*
X116487704Y-104745345D01*
X116619806Y-104701272D01*
X116648946Y-104691550D01*
X116799348Y-104598478D01*
X116924305Y-104473303D01*
X116989393Y-104367712D01*
X117013275Y-104328968D01*
X117013276Y-104328966D01*
X117017115Y-104322738D01*
X117037632Y-104260881D01*
X117078063Y-104202521D01*
X117143627Y-104175284D01*
X117213508Y-104187817D01*
X117258052Y-104224983D01*
X117286739Y-104263261D01*
X117403295Y-104350615D01*
X117411703Y-104353767D01*
X117534730Y-104399888D01*
X117591494Y-104442530D01*
X117616194Y-104509091D01*
X117616500Y-104517870D01*
X117616500Y-104678207D01*
X117614268Y-104701816D01*
X117612725Y-104709906D01*
X117615730Y-104757672D01*
X117616251Y-104765951D01*
X117616500Y-104773862D01*
X117616500Y-104789856D01*
X117618506Y-104805730D01*
X117619248Y-104813590D01*
X117622775Y-104869650D01*
X117622942Y-104870164D01*
X117616376Y-104937554D01*
X117572382Y-104993277D01*
X117499492Y-105016500D01*
X111759500Y-105016500D01*
X111691379Y-104996498D01*
X111644886Y-104942842D01*
X111633500Y-104890500D01*
X111633500Y-104634685D01*
X111653502Y-104566564D01*
X111707158Y-104520071D01*
X111777432Y-104509967D01*
X111842012Y-104539461D01*
X111848518Y-104545512D01*
X111896829Y-104593739D01*
X111908240Y-104602751D01*
X112046243Y-104687816D01*
X112059424Y-104693963D01*
X112213710Y-104745138D01*
X112227086Y-104748005D01*
X112321438Y-104757672D01*
X112327854Y-104758000D01*
X112515385Y-104758000D01*
X112530624Y-104753525D01*
X112531829Y-104752135D01*
X112533500Y-104744452D01*
X112533500Y-104739884D01*
X113041500Y-104739884D01*
X113045975Y-104755123D01*
X113047365Y-104756328D01*
X113055048Y-104757999D01*
X113247095Y-104757999D01*
X113253614Y-104757662D01*
X113349206Y-104747743D01*
X113362600Y-104744851D01*
X113516784Y-104693412D01*
X113529962Y-104687239D01*
X113667807Y-104601937D01*
X113679208Y-104592901D01*
X113793739Y-104478171D01*
X113802751Y-104466760D01*
X113887816Y-104328757D01*
X113893963Y-104315576D01*
X113945138Y-104161290D01*
X113948005Y-104147914D01*
X113957672Y-104053562D01*
X113958000Y-104047146D01*
X113958000Y-103622115D01*
X113953525Y-103606876D01*
X113952135Y-103605671D01*
X113944452Y-103604000D01*
X113059615Y-103604000D01*
X113044376Y-103608475D01*
X113043171Y-103609865D01*
X113041500Y-103617548D01*
X113041500Y-104739884D01*
X112533500Y-104739884D01*
X112533500Y-103077885D01*
X113041500Y-103077885D01*
X113045975Y-103093124D01*
X113047365Y-103094329D01*
X113055048Y-103096000D01*
X113939884Y-103096000D01*
X113955123Y-103091525D01*
X113956328Y-103090135D01*
X113957999Y-103082452D01*
X113957999Y-102652905D01*
X113957662Y-102646386D01*
X113947743Y-102550794D01*
X113944851Y-102537400D01*
X113893412Y-102383216D01*
X113887239Y-102370038D01*
X113801937Y-102232193D01*
X113792901Y-102220792D01*
X113678171Y-102106261D01*
X113666757Y-102097247D01*
X113642355Y-102082205D01*
X113594862Y-102029433D01*
X113583440Y-101959361D01*
X113611714Y-101894238D01*
X113642170Y-101867801D01*
X113667810Y-101851935D01*
X113679208Y-101842901D01*
X113793739Y-101728171D01*
X113802751Y-101716760D01*
X113887816Y-101578757D01*
X113893963Y-101565576D01*
X113945138Y-101411290D01*
X113948005Y-101397914D01*
X113957672Y-101303562D01*
X113958000Y-101297146D01*
X113958000Y-100872115D01*
X113953525Y-100856876D01*
X113952135Y-100855671D01*
X113944452Y-100854000D01*
X113059615Y-100854000D01*
X113044376Y-100858475D01*
X113043171Y-100859865D01*
X113041500Y-100867548D01*
X113041500Y-103077885D01*
X112533500Y-103077885D01*
X112533500Y-100327885D01*
X113041500Y-100327885D01*
X113045975Y-100343124D01*
X113047365Y-100344329D01*
X113055048Y-100346000D01*
X113939884Y-100346000D01*
X113955123Y-100341525D01*
X113956328Y-100340135D01*
X113957999Y-100332452D01*
X113957999Y-99902905D01*
X113957662Y-99896386D01*
X113947743Y-99800794D01*
X113944851Y-99787400D01*
X113893412Y-99633216D01*
X113887239Y-99620038D01*
X113801937Y-99482193D01*
X113792901Y-99470792D01*
X113678171Y-99356261D01*
X113666760Y-99347249D01*
X113528757Y-99262184D01*
X113515576Y-99256037D01*
X113361290Y-99204862D01*
X113347914Y-99201995D01*
X113253562Y-99192328D01*
X113247145Y-99192000D01*
X113059615Y-99192000D01*
X113044376Y-99196475D01*
X113043171Y-99197865D01*
X113041500Y-99205548D01*
X113041500Y-100327885D01*
X112533500Y-100327885D01*
X112533500Y-99210116D01*
X112529025Y-99194877D01*
X112527635Y-99193672D01*
X112519952Y-99192001D01*
X112327905Y-99192001D01*
X112321386Y-99192338D01*
X112225794Y-99202257D01*
X112212400Y-99205149D01*
X112058216Y-99256588D01*
X112045038Y-99262761D01*
X111907193Y-99348063D01*
X111895792Y-99357099D01*
X111848673Y-99404300D01*
X111786390Y-99438379D01*
X111715570Y-99433376D01*
X111658697Y-99390879D01*
X111633829Y-99324380D01*
X111633500Y-99315282D01*
X111633500Y-97328767D01*
X111634027Y-97317584D01*
X111635702Y-97310091D01*
X111633562Y-97242014D01*
X111633500Y-97238055D01*
X111633500Y-97210144D01*
X111632995Y-97206144D01*
X111632062Y-97194301D01*
X111632048Y-97193834D01*
X111630673Y-97150110D01*
X111625022Y-97130658D01*
X111621014Y-97111306D01*
X111619467Y-97099063D01*
X111618474Y-97091203D01*
X111615556Y-97083832D01*
X111602200Y-97050097D01*
X111598355Y-97038870D01*
X111593977Y-97023802D01*
X111586018Y-96996407D01*
X111575707Y-96978972D01*
X111567012Y-96961224D01*
X111559552Y-96942383D01*
X111533564Y-96906613D01*
X111527048Y-96896693D01*
X111508580Y-96865465D01*
X111508578Y-96865462D01*
X111504542Y-96858638D01*
X111490221Y-96844317D01*
X111477380Y-96829283D01*
X111470131Y-96819306D01*
X111465472Y-96812893D01*
X111431395Y-96784702D01*
X111422616Y-96776712D01*
X111092999Y-96447095D01*
X116292001Y-96447095D01*
X116292338Y-96453614D01*
X116302257Y-96549206D01*
X116305149Y-96562600D01*
X116356588Y-96716784D01*
X116362761Y-96729962D01*
X116448063Y-96867807D01*
X116457099Y-96879208D01*
X116571829Y-96993739D01*
X116583240Y-97002751D01*
X116721243Y-97087816D01*
X116734424Y-97093963D01*
X116888710Y-97145138D01*
X116902086Y-97148005D01*
X116996438Y-97157672D01*
X117002854Y-97158000D01*
X117190385Y-97158000D01*
X117205624Y-97153525D01*
X117206829Y-97152135D01*
X117208500Y-97144452D01*
X117208500Y-97139884D01*
X117716500Y-97139884D01*
X117720975Y-97155123D01*
X117722365Y-97156328D01*
X117730048Y-97157999D01*
X117922095Y-97157999D01*
X117928614Y-97157662D01*
X118024206Y-97147743D01*
X118037600Y-97144851D01*
X118191784Y-97093412D01*
X118204962Y-97087239D01*
X118342807Y-97001937D01*
X118354208Y-96992901D01*
X118468739Y-96878171D01*
X118477751Y-96866760D01*
X118562816Y-96728757D01*
X118568963Y-96715576D01*
X118620138Y-96561290D01*
X118623005Y-96547914D01*
X118632672Y-96453562D01*
X118633000Y-96447146D01*
X118633000Y-96022115D01*
X118628525Y-96006876D01*
X118627135Y-96005671D01*
X118619452Y-96004000D01*
X117734615Y-96004000D01*
X117719376Y-96008475D01*
X117718171Y-96009865D01*
X117716500Y-96017548D01*
X117716500Y-97139884D01*
X117208500Y-97139884D01*
X117208500Y-96022115D01*
X117204025Y-96006876D01*
X117202635Y-96005671D01*
X117194952Y-96004000D01*
X116310116Y-96004000D01*
X116294877Y-96008475D01*
X116293672Y-96009865D01*
X116292001Y-96017548D01*
X116292001Y-96447095D01*
X111092999Y-96447095D01*
X110351218Y-95705313D01*
X110317192Y-95643001D01*
X110319755Y-95579589D01*
X110330865Y-95543022D01*
X110332370Y-95538069D01*
X110340294Y-95477885D01*
X116292000Y-95477885D01*
X116296475Y-95493124D01*
X116297865Y-95494329D01*
X116305548Y-95496000D01*
X117190385Y-95496000D01*
X117205624Y-95491525D01*
X117206829Y-95490135D01*
X117208500Y-95482452D01*
X117208500Y-95477885D01*
X117716500Y-95477885D01*
X117720975Y-95493124D01*
X117722365Y-95494329D01*
X117730048Y-95496000D01*
X118614884Y-95496000D01*
X118630123Y-95491525D01*
X118631328Y-95490135D01*
X118632999Y-95482452D01*
X118632999Y-95052905D01*
X118632662Y-95046386D01*
X118622743Y-94950794D01*
X118619851Y-94937400D01*
X118568412Y-94783216D01*
X118562239Y-94770038D01*
X118476937Y-94632193D01*
X118467901Y-94620792D01*
X118353171Y-94506261D01*
X118341760Y-94497249D01*
X118203757Y-94412184D01*
X118190576Y-94406037D01*
X118036290Y-94354862D01*
X118022914Y-94351995D01*
X117928562Y-94342328D01*
X117922145Y-94342000D01*
X117734615Y-94342000D01*
X117719376Y-94346475D01*
X117718171Y-94347865D01*
X117716500Y-94355548D01*
X117716500Y-95477885D01*
X117208500Y-95477885D01*
X117208500Y-94360116D01*
X117204025Y-94344877D01*
X117202635Y-94343672D01*
X117194952Y-94342001D01*
X117002905Y-94342001D01*
X116996386Y-94342338D01*
X116900794Y-94352257D01*
X116887400Y-94355149D01*
X116733216Y-94406588D01*
X116720038Y-94412761D01*
X116582193Y-94498063D01*
X116570792Y-94507099D01*
X116456261Y-94621829D01*
X116447249Y-94633240D01*
X116362184Y-94771243D01*
X116356037Y-94784424D01*
X116304862Y-94938710D01*
X116301995Y-94952086D01*
X116292328Y-95046438D01*
X116292000Y-95052855D01*
X116292000Y-95477885D01*
X110340294Y-95477885D01*
X110361529Y-95316590D01*
X110363156Y-95250000D01*
X110344852Y-95027361D01*
X110290431Y-94810702D01*
X110201354Y-94605840D01*
X110137220Y-94506704D01*
X110082822Y-94422617D01*
X110082820Y-94422614D01*
X110080014Y-94418277D01*
X109929670Y-94253051D01*
X109925619Y-94249852D01*
X109925615Y-94249848D01*
X109758414Y-94117800D01*
X109758410Y-94117798D01*
X109754359Y-94114598D01*
X109713053Y-94091796D01*
X109663084Y-94041364D01*
X109648312Y-93971921D01*
X109673428Y-93905516D01*
X109700780Y-93878909D01*
X109744603Y-93847650D01*
X109879860Y-93751173D01*
X110038096Y-93593489D01*
X110097594Y-93510689D01*
X110165435Y-93416277D01*
X110168453Y-93412077D01*
X110170746Y-93407437D01*
X110172446Y-93404608D01*
X110224674Y-93356518D01*
X110280451Y-93343500D01*
X121809451Y-93343500D01*
X121877572Y-93363502D01*
X121923646Y-93416250D01*
X122010151Y-93601762D01*
X122010154Y-93601767D01*
X122012477Y-93606749D01*
X122143802Y-93794300D01*
X122305700Y-93956198D01*
X122310208Y-93959355D01*
X122310211Y-93959357D01*
X122338470Y-93979144D01*
X122493251Y-94087523D01*
X122498233Y-94089846D01*
X122498238Y-94089849D01*
X122532457Y-94105805D01*
X122585742Y-94152722D01*
X122605203Y-94220999D01*
X122584661Y-94288959D01*
X122532457Y-94334195D01*
X122498238Y-94350151D01*
X122498233Y-94350154D01*
X122493251Y-94352477D01*
X122413314Y-94408450D01*
X122310211Y-94480643D01*
X122310208Y-94480645D01*
X122305700Y-94483802D01*
X122143802Y-94645700D01*
X122140645Y-94650208D01*
X122140643Y-94650211D01*
X122033819Y-94802771D01*
X121978362Y-94847099D01*
X121930606Y-94856500D01*
X121808414Y-94856500D01*
X121740293Y-94836498D01*
X121694313Y-94783951D01*
X121693867Y-94782999D01*
X121691550Y-94776054D01*
X121598478Y-94625652D01*
X121473303Y-94500695D01*
X121467072Y-94496854D01*
X121328968Y-94411725D01*
X121328966Y-94411724D01*
X121322738Y-94407885D01*
X121242995Y-94381436D01*
X121161389Y-94354368D01*
X121161387Y-94354368D01*
X121154861Y-94352203D01*
X121148025Y-94351503D01*
X121148022Y-94351502D01*
X121104969Y-94347091D01*
X121050400Y-94341500D01*
X120124600Y-94341500D01*
X120121354Y-94341837D01*
X120121350Y-94341837D01*
X120025692Y-94351762D01*
X120025688Y-94351763D01*
X120018834Y-94352474D01*
X120012298Y-94354655D01*
X120012296Y-94354655D01*
X119995928Y-94360116D01*
X119851054Y-94408450D01*
X119700652Y-94501522D01*
X119575695Y-94626697D01*
X119571855Y-94632927D01*
X119571854Y-94632928D01*
X119511710Y-94730500D01*
X119482885Y-94777262D01*
X119427203Y-94945139D01*
X119416500Y-95049600D01*
X119416500Y-96450400D01*
X119416837Y-96453646D01*
X119416837Y-96453650D01*
X119426752Y-96549206D01*
X119427474Y-96556166D01*
X119429655Y-96562702D01*
X119429655Y-96562704D01*
X119462885Y-96662306D01*
X119483450Y-96723946D01*
X119576522Y-96874348D01*
X119581704Y-96879521D01*
X119592353Y-96890151D01*
X119701697Y-96999305D01*
X119707927Y-97003145D01*
X119707928Y-97003146D01*
X119845288Y-97087816D01*
X119852262Y-97092115D01*
X119913423Y-97112401D01*
X120013611Y-97145632D01*
X120013613Y-97145632D01*
X120020139Y-97147797D01*
X120026975Y-97148497D01*
X120026978Y-97148498D01*
X120070031Y-97152909D01*
X120124600Y-97158500D01*
X121050400Y-97158500D01*
X121053646Y-97158163D01*
X121053650Y-97158163D01*
X121149308Y-97148238D01*
X121149312Y-97148237D01*
X121156166Y-97147526D01*
X121162702Y-97145345D01*
X121162704Y-97145345D01*
X121301427Y-97099063D01*
X121323946Y-97091550D01*
X121474348Y-96998478D01*
X121599305Y-96873303D01*
X121603338Y-96866760D01*
X121688275Y-96728968D01*
X121688276Y-96728966D01*
X121692115Y-96722738D01*
X121732077Y-96602257D01*
X121745632Y-96561389D01*
X121745632Y-96561387D01*
X121747797Y-96554861D01*
X121750253Y-96530897D01*
X121758167Y-96453650D01*
X121758500Y-96450400D01*
X121758500Y-96249500D01*
X121778502Y-96181379D01*
X121832158Y-96134886D01*
X121884500Y-96123500D01*
X121930606Y-96123500D01*
X121998727Y-96143502D01*
X122033819Y-96177229D01*
X122084424Y-96249500D01*
X122143802Y-96334300D01*
X122305700Y-96496198D01*
X122310208Y-96499355D01*
X122310211Y-96499357D01*
X122338470Y-96519144D01*
X122493251Y-96627523D01*
X122498233Y-96629846D01*
X122498238Y-96629849D01*
X122533049Y-96646081D01*
X122586334Y-96692998D01*
X122605795Y-96761275D01*
X122585253Y-96829235D01*
X122533049Y-96874471D01*
X122498489Y-96890586D01*
X122488993Y-96896069D01*
X122310533Y-97021028D01*
X122302125Y-97028084D01*
X122148084Y-97182125D01*
X122141028Y-97190533D01*
X122016069Y-97368993D01*
X122010586Y-97378489D01*
X121918510Y-97575947D01*
X121914764Y-97586239D01*
X121868606Y-97758503D01*
X121868942Y-97772599D01*
X121876884Y-97776000D01*
X124417967Y-97776000D01*
X124431498Y-97772027D01*
X124432727Y-97763478D01*
X124385236Y-97586239D01*
X124381490Y-97575947D01*
X124289414Y-97378489D01*
X124283931Y-97368993D01*
X124158972Y-97190533D01*
X124151916Y-97182125D01*
X123997875Y-97028084D01*
X123989467Y-97021028D01*
X123811007Y-96896069D01*
X123801511Y-96890586D01*
X123766951Y-96874471D01*
X123713666Y-96827554D01*
X123694205Y-96759277D01*
X123714747Y-96691317D01*
X123766951Y-96646081D01*
X123801762Y-96629849D01*
X123801767Y-96629846D01*
X123806749Y-96627523D01*
X123961530Y-96519144D01*
X123989789Y-96499357D01*
X123989792Y-96499355D01*
X123994300Y-96496198D01*
X124156198Y-96334300D01*
X124215576Y-96249500D01*
X124266181Y-96177229D01*
X124321638Y-96132901D01*
X124369394Y-96123500D01*
X126240500Y-96123500D01*
X126308621Y-96143502D01*
X126355114Y-96197158D01*
X126366500Y-96249500D01*
X126366500Y-100471233D01*
X126365973Y-100482416D01*
X126364298Y-100489909D01*
X126364547Y-100497835D01*
X126364547Y-100497836D01*
X126366438Y-100557986D01*
X126366500Y-100561945D01*
X126366500Y-113185406D01*
X126346498Y-113253527D01*
X126329595Y-113274501D01*
X124524500Y-115079595D01*
X124462188Y-115113621D01*
X124435405Y-115116500D01*
X122064594Y-115116500D01*
X121996473Y-115096498D01*
X121975499Y-115079595D01*
X120503652Y-113607747D01*
X120496112Y-113599461D01*
X120492000Y-113592982D01*
X120442348Y-113546356D01*
X120439507Y-113543602D01*
X120419770Y-113523865D01*
X120416573Y-113521385D01*
X120407551Y-113513680D01*
X120390946Y-113498087D01*
X120375321Y-113483414D01*
X120368375Y-113479595D01*
X120368372Y-113479593D01*
X120357566Y-113473652D01*
X120341047Y-113462801D01*
X120340583Y-113462441D01*
X120325041Y-113450386D01*
X120317772Y-113447241D01*
X120317768Y-113447238D01*
X120284463Y-113432826D01*
X120273813Y-113427609D01*
X120235060Y-113406305D01*
X120215437Y-113401267D01*
X120196734Y-113394863D01*
X120185420Y-113389967D01*
X120185419Y-113389967D01*
X120178145Y-113386819D01*
X120170322Y-113385580D01*
X120170312Y-113385577D01*
X120134476Y-113379901D01*
X120122856Y-113377495D01*
X120087711Y-113368472D01*
X120087710Y-113368472D01*
X120080030Y-113366500D01*
X120059776Y-113366500D01*
X120040065Y-113364949D01*
X120027886Y-113363020D01*
X120020057Y-113361780D01*
X120012165Y-113362526D01*
X119976039Y-113365941D01*
X119964181Y-113366500D01*
X114709500Y-113366500D01*
X114641379Y-113346498D01*
X114594886Y-113292842D01*
X114583500Y-113240500D01*
X114583500Y-113101866D01*
X114576745Y-113039684D01*
X114525615Y-112903295D01*
X114438261Y-112786739D01*
X114321705Y-112699385D01*
X114185316Y-112648255D01*
X114123134Y-112641500D01*
X112326866Y-112641500D01*
X112264684Y-112648255D01*
X112128295Y-112699385D01*
X112011739Y-112786739D01*
X111924385Y-112903295D01*
X111921233Y-112911703D01*
X111921232Y-112911705D01*
X111879722Y-113022433D01*
X111837081Y-113079198D01*
X111770519Y-113103898D01*
X111701170Y-113088691D01*
X111668546Y-113063004D01*
X111617799Y-113007234D01*
X111610273Y-113000215D01*
X111443139Y-112868222D01*
X111434552Y-112862517D01*
X111248117Y-112759599D01*
X111238705Y-112755369D01*
X111037959Y-112684280D01*
X111027988Y-112681646D01*
X110956837Y-112668972D01*
X110943540Y-112670432D01*
X110939000Y-112684989D01*
X110939000Y-115318517D01*
X110943064Y-115332359D01*
X110956478Y-115334393D01*
X110963184Y-115333534D01*
X110973262Y-115331392D01*
X111177255Y-115270191D01*
X111186842Y-115266433D01*
X111378095Y-115172739D01*
X111386945Y-115167464D01*
X111560328Y-115043792D01*
X111568193Y-115037145D01*
X111672897Y-114932805D01*
X111735268Y-114898889D01*
X111806075Y-114904077D01*
X111862837Y-114946723D01*
X111879819Y-114977826D01*
X111902057Y-115037145D01*
X111924385Y-115096705D01*
X112011739Y-115213261D01*
X112128295Y-115300615D01*
X112264684Y-115351745D01*
X112326866Y-115358500D01*
X114123134Y-115358500D01*
X114185316Y-115351745D01*
X114321705Y-115300615D01*
X114438261Y-115213261D01*
X114525615Y-115096705D01*
X114576745Y-114960316D01*
X114583500Y-114898134D01*
X114583500Y-114759500D01*
X114603502Y-114691379D01*
X114657158Y-114644886D01*
X114709500Y-114633500D01*
X119685406Y-114633500D01*
X119753527Y-114653502D01*
X119774501Y-114670405D01*
X121246348Y-116142253D01*
X121253888Y-116150539D01*
X121258000Y-116157018D01*
X121263777Y-116162443D01*
X121307651Y-116203643D01*
X121310493Y-116206398D01*
X121330230Y-116226135D01*
X121333427Y-116228615D01*
X121342447Y-116236318D01*
X121374679Y-116266586D01*
X121381625Y-116270405D01*
X121381628Y-116270407D01*
X121392434Y-116276348D01*
X121408953Y-116287199D01*
X121424959Y-116299614D01*
X121432228Y-116302759D01*
X121432232Y-116302762D01*
X121465537Y-116317174D01*
X121476187Y-116322391D01*
X121514940Y-116343695D01*
X121522615Y-116345666D01*
X121522616Y-116345666D01*
X121534562Y-116348733D01*
X121553267Y-116355137D01*
X121571855Y-116363181D01*
X121579678Y-116364420D01*
X121579688Y-116364423D01*
X121615524Y-116370099D01*
X121627144Y-116372505D01*
X121658959Y-116380673D01*
X121669970Y-116383500D01*
X121690224Y-116383500D01*
X121709934Y-116385051D01*
X121729943Y-116388220D01*
X121737835Y-116387474D01*
X121756580Y-116385702D01*
X121773962Y-116384059D01*
X121785819Y-116383500D01*
X124671233Y-116383500D01*
X124682416Y-116384027D01*
X124689909Y-116385702D01*
X124697835Y-116385453D01*
X124697836Y-116385453D01*
X124757986Y-116383562D01*
X124761945Y-116383500D01*
X124789856Y-116383500D01*
X124793791Y-116383003D01*
X124793856Y-116382995D01*
X124805693Y-116382062D01*
X124837951Y-116381048D01*
X124841970Y-116380922D01*
X124849889Y-116380673D01*
X124869343Y-116375021D01*
X124888700Y-116371013D01*
X124900930Y-116369468D01*
X124900931Y-116369468D01*
X124908797Y-116368474D01*
X124916168Y-116365555D01*
X124916170Y-116365555D01*
X124949912Y-116352196D01*
X124961142Y-116348351D01*
X124995983Y-116338229D01*
X124995984Y-116338229D01*
X125003593Y-116336018D01*
X125010412Y-116331985D01*
X125010417Y-116331983D01*
X125021028Y-116325707D01*
X125038776Y-116317012D01*
X125057617Y-116309552D01*
X125093387Y-116283564D01*
X125103307Y-116277048D01*
X125134535Y-116258580D01*
X125134538Y-116258578D01*
X125141362Y-116254542D01*
X125155683Y-116240221D01*
X125170717Y-116227380D01*
X125180694Y-116220131D01*
X125187107Y-116215472D01*
X125215298Y-116181395D01*
X125223288Y-116172616D01*
X127392247Y-114003657D01*
X127400537Y-113996113D01*
X127407018Y-113992000D01*
X127453659Y-113942332D01*
X127456413Y-113939491D01*
X127476135Y-113919769D01*
X127478612Y-113916576D01*
X127486317Y-113907555D01*
X127511159Y-113881100D01*
X127516586Y-113875321D01*
X127520407Y-113868371D01*
X127526346Y-113857568D01*
X127537202Y-113841041D01*
X127544757Y-113831302D01*
X127544758Y-113831300D01*
X127549614Y-113825040D01*
X127567174Y-113784460D01*
X127572391Y-113773812D01*
X127589875Y-113742009D01*
X127589876Y-113742007D01*
X127593695Y-113735060D01*
X127598733Y-113715437D01*
X127605137Y-113696734D01*
X127610033Y-113685420D01*
X127610033Y-113685419D01*
X127613181Y-113678145D01*
X127614420Y-113670322D01*
X127614423Y-113670312D01*
X127620099Y-113634476D01*
X127622505Y-113622856D01*
X127631528Y-113587711D01*
X127631528Y-113587710D01*
X127633500Y-113580030D01*
X127633500Y-113559776D01*
X127635051Y-113540065D01*
X127636980Y-113527886D01*
X127638220Y-113520057D01*
X127634059Y-113476038D01*
X127633500Y-113464181D01*
X127633500Y-101329500D01*
X127653502Y-101261379D01*
X127707158Y-101214886D01*
X127759500Y-101203500D01*
X129550606Y-101203500D01*
X129618727Y-101223502D01*
X129653819Y-101257229D01*
X129692661Y-101312701D01*
X129763802Y-101414300D01*
X129925700Y-101576198D01*
X129930208Y-101579355D01*
X129930211Y-101579357D01*
X130001406Y-101629208D01*
X130113251Y-101707523D01*
X130118233Y-101709846D01*
X130118238Y-101709849D01*
X130152457Y-101725805D01*
X130205742Y-101772722D01*
X130225203Y-101840999D01*
X130204661Y-101908959D01*
X130152457Y-101954195D01*
X130118238Y-101970151D01*
X130118233Y-101970154D01*
X130113251Y-101972477D01*
X130031910Y-102029433D01*
X129930211Y-102100643D01*
X129930208Y-102100645D01*
X129925700Y-102103802D01*
X129763802Y-102265700D01*
X129632477Y-102453251D01*
X129630154Y-102458233D01*
X129630151Y-102458238D01*
X129539418Y-102652817D01*
X129535716Y-102660757D01*
X129476457Y-102881913D01*
X129456502Y-103110000D01*
X129476457Y-103338087D01*
X129477880Y-103343398D01*
X129477881Y-103343402D01*
X129493460Y-103401541D01*
X129535716Y-103559243D01*
X129538039Y-103564224D01*
X129538039Y-103564225D01*
X129630151Y-103761762D01*
X129630154Y-103761767D01*
X129632477Y-103766749D01*
X129635634Y-103771257D01*
X129759485Y-103948134D01*
X129763802Y-103954300D01*
X129925700Y-104116198D01*
X129930208Y-104119355D01*
X129930211Y-104119357D01*
X129969268Y-104146705D01*
X130113251Y-104247523D01*
X130118233Y-104249846D01*
X130118238Y-104249849D01*
X130152457Y-104265805D01*
X130205742Y-104312722D01*
X130225203Y-104380999D01*
X130204661Y-104448959D01*
X130152457Y-104494195D01*
X130118238Y-104510151D01*
X130118233Y-104510154D01*
X130113251Y-104512477D01*
X130036007Y-104566564D01*
X129930211Y-104640643D01*
X129930208Y-104640645D01*
X129925700Y-104643802D01*
X129763802Y-104805700D01*
X129760645Y-104810208D01*
X129760643Y-104810211D01*
X129724567Y-104861733D01*
X129632477Y-104993251D01*
X129630154Y-104998233D01*
X129630151Y-104998238D01*
X129560198Y-105148255D01*
X129535716Y-105200757D01*
X129476457Y-105421913D01*
X129456502Y-105650000D01*
X129476457Y-105878087D01*
X129535716Y-106099243D01*
X129538039Y-106104224D01*
X129538039Y-106104225D01*
X129630151Y-106301762D01*
X129630154Y-106301767D01*
X129632477Y-106306749D01*
X129657139Y-106341970D01*
X129736586Y-106455431D01*
X129763802Y-106494300D01*
X129925700Y-106656198D01*
X129930208Y-106659355D01*
X129930211Y-106659357D01*
X129977056Y-106692158D01*
X130113251Y-106787523D01*
X130118233Y-106789846D01*
X130118238Y-106789849D01*
X130152457Y-106805805D01*
X130205742Y-106852722D01*
X130225203Y-106920999D01*
X130204661Y-106988959D01*
X130152457Y-107034195D01*
X130118238Y-107050151D01*
X130118233Y-107050154D01*
X130113251Y-107052477D01*
X130092262Y-107067174D01*
X129930211Y-107180643D01*
X129930208Y-107180645D01*
X129925700Y-107183802D01*
X129763802Y-107345700D01*
X129760645Y-107350208D01*
X129760643Y-107350211D01*
X129705902Y-107428389D01*
X129632477Y-107533251D01*
X129630154Y-107538233D01*
X129630151Y-107538238D01*
X129546028Y-107718642D01*
X129535716Y-107740757D01*
X129534294Y-107746065D01*
X129534293Y-107746067D01*
X129496432Y-107887367D01*
X129476457Y-107961913D01*
X129456502Y-108190000D01*
X129476457Y-108418087D01*
X129535716Y-108639243D01*
X129538039Y-108644224D01*
X129538039Y-108644225D01*
X129630151Y-108841762D01*
X129630154Y-108841767D01*
X129632477Y-108846749D01*
X129763802Y-109034300D01*
X129925700Y-109196198D01*
X129930208Y-109199355D01*
X129930211Y-109199357D01*
X130008389Y-109254098D01*
X130113251Y-109327523D01*
X130118233Y-109329846D01*
X130118238Y-109329849D01*
X130152457Y-109345805D01*
X130205742Y-109392722D01*
X130225203Y-109460999D01*
X130204661Y-109528959D01*
X130152457Y-109574195D01*
X130118238Y-109590151D01*
X130118233Y-109590154D01*
X130113251Y-109592477D01*
X130031667Y-109649603D01*
X129930211Y-109720643D01*
X129930208Y-109720645D01*
X129925700Y-109723802D01*
X129763802Y-109885700D01*
X129760645Y-109890208D01*
X129760643Y-109890211D01*
X129735015Y-109926812D01*
X129632477Y-110073251D01*
X129630154Y-110078233D01*
X129630151Y-110078238D01*
X129569893Y-110207464D01*
X129535716Y-110280757D01*
X129476457Y-110501913D01*
X129456502Y-110730000D01*
X129476457Y-110958087D01*
X129535716Y-111179243D01*
X129538039Y-111184224D01*
X129538039Y-111184225D01*
X129630151Y-111381762D01*
X129630154Y-111381767D01*
X129632477Y-111386749D01*
X129763802Y-111574300D01*
X129925700Y-111736198D01*
X129930208Y-111739355D01*
X129930211Y-111739357D01*
X130008389Y-111794098D01*
X130113251Y-111867523D01*
X130118233Y-111869846D01*
X130118238Y-111869849D01*
X130152457Y-111885805D01*
X130205742Y-111932722D01*
X130225203Y-112000999D01*
X130204661Y-112068959D01*
X130152457Y-112114195D01*
X130118238Y-112130151D01*
X130118233Y-112130154D01*
X130113251Y-112132477D01*
X130008389Y-112205902D01*
X129930211Y-112260643D01*
X129930208Y-112260645D01*
X129925700Y-112263802D01*
X129763802Y-112425700D01*
X129632477Y-112613251D01*
X129630154Y-112618233D01*
X129630151Y-112618238D01*
X129564234Y-112759599D01*
X129535716Y-112820757D01*
X129534294Y-112826065D01*
X129534293Y-112826067D01*
X129524526Y-112862517D01*
X129476457Y-113041913D01*
X129456502Y-113270000D01*
X129476457Y-113498087D01*
X129477881Y-113503400D01*
X129477881Y-113503402D01*
X129513003Y-113634476D01*
X129535716Y-113719243D01*
X129538039Y-113724224D01*
X129538039Y-113724225D01*
X129630151Y-113921762D01*
X129630154Y-113921767D01*
X129632477Y-113926749D01*
X129763802Y-114114300D01*
X129925700Y-114276198D01*
X129930208Y-114279355D01*
X129930211Y-114279357D01*
X130008389Y-114334098D01*
X130113251Y-114407523D01*
X130118233Y-114409846D01*
X130118238Y-114409849D01*
X130315775Y-114501961D01*
X130320757Y-114504284D01*
X130326065Y-114505706D01*
X130326067Y-114505707D01*
X130536598Y-114562119D01*
X130536600Y-114562119D01*
X130541913Y-114563543D01*
X130770000Y-114583498D01*
X130998087Y-114563543D01*
X131003400Y-114562119D01*
X131003402Y-114562119D01*
X131213933Y-114505707D01*
X131213935Y-114505706D01*
X131219243Y-114504284D01*
X131224225Y-114501961D01*
X131421762Y-114409849D01*
X131421767Y-114409846D01*
X131426749Y-114407523D01*
X131531611Y-114334098D01*
X131609789Y-114279357D01*
X131609792Y-114279355D01*
X131614300Y-114276198D01*
X131776198Y-114114300D01*
X131907523Y-113926749D01*
X131909846Y-113921767D01*
X131909849Y-113921762D01*
X132001961Y-113724225D01*
X132001961Y-113724224D01*
X132004284Y-113719243D01*
X132026998Y-113634476D01*
X132062119Y-113503402D01*
X132062119Y-113503400D01*
X132063543Y-113498087D01*
X132083498Y-113270000D01*
X132063543Y-113041913D01*
X132015474Y-112862517D01*
X132005707Y-112826067D01*
X132005706Y-112826065D01*
X132004284Y-112820757D01*
X131975766Y-112759599D01*
X131909849Y-112618238D01*
X131909846Y-112618233D01*
X131907523Y-112613251D01*
X131776198Y-112425700D01*
X131614300Y-112263802D01*
X131609792Y-112260645D01*
X131609789Y-112260643D01*
X131531611Y-112205902D01*
X131426749Y-112132477D01*
X131421767Y-112130154D01*
X131421762Y-112130151D01*
X131387543Y-112114195D01*
X131334258Y-112067278D01*
X131314797Y-111999001D01*
X131335339Y-111931041D01*
X131387543Y-111885805D01*
X131421762Y-111869849D01*
X131421767Y-111869846D01*
X131426749Y-111867523D01*
X131531611Y-111794098D01*
X131609789Y-111739357D01*
X131609792Y-111739355D01*
X131614300Y-111736198D01*
X131776198Y-111574300D01*
X131907523Y-111386749D01*
X131909846Y-111381767D01*
X131909849Y-111381762D01*
X132001961Y-111184225D01*
X132001961Y-111184224D01*
X132004284Y-111179243D01*
X132063543Y-110958087D01*
X132083498Y-110730000D01*
X132063543Y-110501913D01*
X132004284Y-110280757D01*
X131970107Y-110207464D01*
X131909849Y-110078238D01*
X131909846Y-110078233D01*
X131907523Y-110073251D01*
X131804985Y-109926812D01*
X131779357Y-109890211D01*
X131779355Y-109890208D01*
X131776198Y-109885700D01*
X131614300Y-109723802D01*
X131609792Y-109720645D01*
X131609789Y-109720643D01*
X131508333Y-109649603D01*
X131426749Y-109592477D01*
X131421767Y-109590154D01*
X131421762Y-109590151D01*
X131387543Y-109574195D01*
X131334258Y-109527278D01*
X131314797Y-109459001D01*
X131335339Y-109391041D01*
X131387543Y-109345805D01*
X131421762Y-109329849D01*
X131421767Y-109329846D01*
X131426749Y-109327523D01*
X131454679Y-109307966D01*
X136668257Y-109307966D01*
X136698565Y-109442446D01*
X136701645Y-109452275D01*
X136781770Y-109649603D01*
X136786413Y-109658794D01*
X136897694Y-109840388D01*
X136903777Y-109848699D01*
X137043213Y-110009667D01*
X137050580Y-110016883D01*
X137214434Y-110152916D01*
X137222881Y-110158831D01*
X137406756Y-110266279D01*
X137416042Y-110270729D01*
X137615001Y-110346703D01*
X137624899Y-110349579D01*
X137728250Y-110370606D01*
X137742299Y-110369410D01*
X137746000Y-110359065D01*
X137746000Y-110358517D01*
X138254000Y-110358517D01*
X138258064Y-110372359D01*
X138271478Y-110374393D01*
X138278184Y-110373534D01*
X138288262Y-110371392D01*
X138492255Y-110310191D01*
X138501842Y-110306433D01*
X138693095Y-110212739D01*
X138701945Y-110207464D01*
X138875328Y-110083792D01*
X138883200Y-110077139D01*
X139034052Y-109926812D01*
X139040730Y-109918965D01*
X139165003Y-109746020D01*
X139170313Y-109737183D01*
X139264670Y-109546267D01*
X139268469Y-109536672D01*
X139330377Y-109332910D01*
X139332555Y-109322837D01*
X139333986Y-109311962D01*
X139331775Y-109297778D01*
X139318617Y-109294000D01*
X138272115Y-109294000D01*
X138256876Y-109298475D01*
X138255671Y-109299865D01*
X138254000Y-109307548D01*
X138254000Y-110358517D01*
X137746000Y-110358517D01*
X137746000Y-109312115D01*
X137741525Y-109296876D01*
X137740135Y-109295671D01*
X137732452Y-109294000D01*
X136683225Y-109294000D01*
X136669694Y-109297973D01*
X136668257Y-109307966D01*
X131454679Y-109307966D01*
X131531611Y-109254098D01*
X131609789Y-109199357D01*
X131609792Y-109199355D01*
X131614300Y-109196198D01*
X131776198Y-109034300D01*
X131907523Y-108846749D01*
X131909846Y-108841767D01*
X131909849Y-108841762D01*
X132001961Y-108644225D01*
X132001961Y-108644224D01*
X132004284Y-108639243D01*
X132063543Y-108418087D01*
X132083498Y-108190000D01*
X132063543Y-107961913D01*
X132043568Y-107887367D01*
X132005707Y-107746067D01*
X132005706Y-107746065D01*
X132004284Y-107740757D01*
X131993972Y-107718642D01*
X131909849Y-107538238D01*
X131909846Y-107538233D01*
X131907523Y-107533251D01*
X131834098Y-107428389D01*
X131779357Y-107350211D01*
X131779355Y-107350208D01*
X131776198Y-107345700D01*
X131614300Y-107183802D01*
X131609792Y-107180645D01*
X131609789Y-107180643D01*
X131447738Y-107067174D01*
X131426749Y-107052477D01*
X131421767Y-107050154D01*
X131421762Y-107050151D01*
X131387543Y-107034195D01*
X131334258Y-106987278D01*
X131314797Y-106919001D01*
X131335339Y-106851041D01*
X131387543Y-106805805D01*
X131421762Y-106789849D01*
X131421767Y-106789846D01*
X131426749Y-106787523D01*
X131562944Y-106692158D01*
X131609789Y-106659357D01*
X131609792Y-106659355D01*
X131614300Y-106656198D01*
X131776198Y-106494300D01*
X131803415Y-106455431D01*
X131882861Y-106341970D01*
X131907523Y-106306749D01*
X131909846Y-106301767D01*
X131909849Y-106301762D01*
X132001961Y-106104225D01*
X132001961Y-106104224D01*
X132004284Y-106099243D01*
X132063543Y-105878087D01*
X132083498Y-105650000D01*
X132063543Y-105421913D01*
X132004284Y-105200757D01*
X131979802Y-105148255D01*
X131909849Y-104998238D01*
X131909846Y-104998233D01*
X131907523Y-104993251D01*
X131815433Y-104861733D01*
X131779357Y-104810211D01*
X131779355Y-104810208D01*
X131776198Y-104805700D01*
X131614300Y-104643802D01*
X131609792Y-104640645D01*
X131609789Y-104640643D01*
X131503993Y-104566564D01*
X131426749Y-104512477D01*
X131421767Y-104510154D01*
X131421762Y-104510151D01*
X131387543Y-104494195D01*
X131334258Y-104447278D01*
X131314797Y-104379001D01*
X131335339Y-104311041D01*
X131387543Y-104265805D01*
X131421762Y-104249849D01*
X131421767Y-104249846D01*
X131426749Y-104247523D01*
X131570732Y-104146705D01*
X131609789Y-104119357D01*
X131609792Y-104119355D01*
X131614300Y-104116198D01*
X131776198Y-103954300D01*
X131806290Y-103911324D01*
X131861745Y-103866997D01*
X131932365Y-103859688D01*
X131998597Y-103894501D01*
X134996348Y-106892253D01*
X135003888Y-106900539D01*
X135008000Y-106907018D01*
X135013777Y-106912443D01*
X135057651Y-106953643D01*
X135060493Y-106956398D01*
X135080230Y-106976135D01*
X135083427Y-106978615D01*
X135092447Y-106986318D01*
X135124679Y-107016586D01*
X135131625Y-107020405D01*
X135131628Y-107020407D01*
X135142434Y-107026348D01*
X135158953Y-107037199D01*
X135174959Y-107049614D01*
X135182228Y-107052759D01*
X135182232Y-107052762D01*
X135215537Y-107067174D01*
X135226187Y-107072391D01*
X135264940Y-107093695D01*
X135272615Y-107095666D01*
X135272616Y-107095666D01*
X135284562Y-107098733D01*
X135303267Y-107105137D01*
X135321855Y-107113181D01*
X135329678Y-107114420D01*
X135329688Y-107114423D01*
X135365524Y-107120099D01*
X135377144Y-107122505D01*
X135412289Y-107131528D01*
X135419970Y-107133500D01*
X135440224Y-107133500D01*
X135459934Y-107135051D01*
X135479943Y-107138220D01*
X135487835Y-107137474D01*
X135523961Y-107134059D01*
X135535819Y-107133500D01*
X136515500Y-107133500D01*
X136583621Y-107153502D01*
X136630114Y-107207158D01*
X136641500Y-107259500D01*
X136641500Y-107398134D01*
X136648255Y-107460316D01*
X136699385Y-107596705D01*
X136786739Y-107713261D01*
X136903295Y-107800615D01*
X136911704Y-107803767D01*
X136911705Y-107803768D01*
X137020960Y-107844726D01*
X137077725Y-107887367D01*
X137102425Y-107953929D01*
X137087218Y-108023278D01*
X137067825Y-108049759D01*
X136944590Y-108178717D01*
X136938104Y-108186727D01*
X136818098Y-108362649D01*
X136813000Y-108371623D01*
X136723338Y-108564783D01*
X136719775Y-108574470D01*
X136664389Y-108774183D01*
X136665912Y-108782607D01*
X136678292Y-108786000D01*
X139318344Y-108786000D01*
X139331875Y-108782027D01*
X139333180Y-108772947D01*
X139291214Y-108605875D01*
X139287894Y-108596124D01*
X139202972Y-108400814D01*
X139198105Y-108391739D01*
X139082426Y-108212926D01*
X139076136Y-108204757D01*
X138932293Y-108046677D01*
X138901241Y-107982831D01*
X138909635Y-107912333D01*
X138954812Y-107857564D01*
X138981256Y-107843895D01*
X139088297Y-107803767D01*
X139096705Y-107800615D01*
X139213261Y-107713261D01*
X139300615Y-107596705D01*
X139351745Y-107460316D01*
X139358500Y-107398134D01*
X139358500Y-105601866D01*
X139351745Y-105539684D01*
X139300615Y-105403295D01*
X139213261Y-105286739D01*
X139096705Y-105199385D01*
X138960316Y-105148255D01*
X138898134Y-105141500D01*
X137101866Y-105141500D01*
X137039684Y-105148255D01*
X136903295Y-105199385D01*
X136786739Y-105286739D01*
X136699385Y-105403295D01*
X136648255Y-105539684D01*
X136641500Y-105601866D01*
X136641500Y-105740500D01*
X136621498Y-105808621D01*
X136567842Y-105855114D01*
X136515500Y-105866500D01*
X135814594Y-105866500D01*
X135746473Y-105846498D01*
X135725499Y-105829595D01*
X132613652Y-102717747D01*
X132606112Y-102709461D01*
X132602000Y-102702982D01*
X132552348Y-102656356D01*
X132549507Y-102653602D01*
X132529770Y-102633865D01*
X132526573Y-102631385D01*
X132517551Y-102623680D01*
X132491100Y-102598841D01*
X132485321Y-102593414D01*
X132478375Y-102589595D01*
X132478372Y-102589593D01*
X132467566Y-102583652D01*
X132451047Y-102572801D01*
X132442923Y-102566500D01*
X132435041Y-102560386D01*
X132427772Y-102557241D01*
X132427768Y-102557238D01*
X132394463Y-102542826D01*
X132383813Y-102537609D01*
X132345060Y-102516305D01*
X132325437Y-102511267D01*
X132306734Y-102504863D01*
X132295420Y-102499967D01*
X132295419Y-102499967D01*
X132288145Y-102496819D01*
X132280322Y-102495580D01*
X132280312Y-102495577D01*
X132244476Y-102489901D01*
X132232856Y-102487495D01*
X132197711Y-102478472D01*
X132197710Y-102478472D01*
X132190030Y-102476500D01*
X132169776Y-102476500D01*
X132150065Y-102474949D01*
X132137886Y-102473020D01*
X132130057Y-102471780D01*
X132122165Y-102472526D01*
X132086039Y-102475941D01*
X132074181Y-102476500D01*
X131989394Y-102476500D01*
X131921273Y-102456498D01*
X131886181Y-102422771D01*
X131779357Y-102270211D01*
X131779355Y-102270208D01*
X131776198Y-102265700D01*
X131614300Y-102103802D01*
X131609792Y-102100645D01*
X131609789Y-102100643D01*
X131508090Y-102029433D01*
X131426749Y-101972477D01*
X131421767Y-101970154D01*
X131421762Y-101970151D01*
X131387543Y-101954195D01*
X131334258Y-101907278D01*
X131314797Y-101839001D01*
X131335339Y-101771041D01*
X131387543Y-101725805D01*
X131421762Y-101709849D01*
X131421767Y-101709846D01*
X131426749Y-101707523D01*
X131538594Y-101629208D01*
X131609789Y-101579357D01*
X131609792Y-101579355D01*
X131614300Y-101576198D01*
X131776198Y-101414300D01*
X131847339Y-101312701D01*
X131886181Y-101257229D01*
X131941638Y-101212901D01*
X131989394Y-101203500D01*
X132466878Y-101203500D01*
X132534999Y-101223502D01*
X132581492Y-101277158D01*
X132589452Y-101301138D01*
X132589974Y-101306166D01*
X132645950Y-101473946D01*
X132739022Y-101624348D01*
X132864197Y-101749305D01*
X132870427Y-101753145D01*
X132870428Y-101753146D01*
X133007788Y-101837816D01*
X133014762Y-101842115D01*
X133046835Y-101852753D01*
X133176111Y-101895632D01*
X133176113Y-101895632D01*
X133182639Y-101897797D01*
X133189475Y-101898497D01*
X133189478Y-101898498D01*
X133232531Y-101902909D01*
X133287100Y-101908500D01*
X134212900Y-101908500D01*
X134216146Y-101908163D01*
X134216150Y-101908163D01*
X134311808Y-101898238D01*
X134311812Y-101898237D01*
X134318666Y-101897526D01*
X134325202Y-101895345D01*
X134325204Y-101895345D01*
X134457306Y-101851272D01*
X134486446Y-101841550D01*
X134636848Y-101748478D01*
X134761805Y-101623303D01*
X134854615Y-101472738D01*
X134910297Y-101304861D01*
X134911088Y-101297146D01*
X134919719Y-101212901D01*
X134921000Y-101200400D01*
X134921000Y-101197095D01*
X135704501Y-101197095D01*
X135704838Y-101203614D01*
X135714757Y-101299206D01*
X135717649Y-101312600D01*
X135769088Y-101466784D01*
X135775261Y-101479962D01*
X135860563Y-101617807D01*
X135869599Y-101629208D01*
X135984329Y-101743739D01*
X135995740Y-101752751D01*
X136133743Y-101837816D01*
X136146924Y-101843963D01*
X136301210Y-101895138D01*
X136314586Y-101898005D01*
X136408938Y-101907672D01*
X136415354Y-101908000D01*
X136602885Y-101908000D01*
X136618124Y-101903525D01*
X136619329Y-101902135D01*
X136621000Y-101894452D01*
X136621000Y-101889884D01*
X137129000Y-101889884D01*
X137133475Y-101905123D01*
X137134865Y-101906328D01*
X137142548Y-101907999D01*
X137334595Y-101907999D01*
X137341114Y-101907662D01*
X137436706Y-101897743D01*
X137450100Y-101894851D01*
X137604284Y-101843412D01*
X137617462Y-101837239D01*
X137755307Y-101751937D01*
X137766708Y-101742901D01*
X137881239Y-101628171D01*
X137890251Y-101616760D01*
X137975316Y-101478757D01*
X137981463Y-101465576D01*
X138032638Y-101311290D01*
X138035505Y-101297914D01*
X138045172Y-101203562D01*
X138045500Y-101197146D01*
X138045500Y-100772115D01*
X138041025Y-100756876D01*
X138039635Y-100755671D01*
X138031952Y-100754000D01*
X137147115Y-100754000D01*
X137131876Y-100758475D01*
X137130671Y-100759865D01*
X137129000Y-100767548D01*
X137129000Y-101889884D01*
X136621000Y-101889884D01*
X136621000Y-100772115D01*
X136616525Y-100756876D01*
X136615135Y-100755671D01*
X136607452Y-100754000D01*
X135722616Y-100754000D01*
X135707377Y-100758475D01*
X135706172Y-100759865D01*
X135704501Y-100767548D01*
X135704501Y-101197095D01*
X134921000Y-101197095D01*
X134921000Y-100227885D01*
X135704500Y-100227885D01*
X135708975Y-100243124D01*
X135710365Y-100244329D01*
X135718048Y-100246000D01*
X136602885Y-100246000D01*
X136618124Y-100241525D01*
X136619329Y-100240135D01*
X136621000Y-100232452D01*
X136621000Y-100227885D01*
X137129000Y-100227885D01*
X137133475Y-100243124D01*
X137134865Y-100244329D01*
X137142548Y-100246000D01*
X138027384Y-100246000D01*
X138042623Y-100241525D01*
X138043828Y-100240135D01*
X138045499Y-100232452D01*
X138045499Y-99802905D01*
X138045162Y-99796386D01*
X138035243Y-99700794D01*
X138032351Y-99687400D01*
X137980912Y-99533216D01*
X137974739Y-99520038D01*
X137889437Y-99382193D01*
X137880401Y-99370792D01*
X137848683Y-99339129D01*
X137814604Y-99276846D01*
X137819607Y-99206026D01*
X137848529Y-99160937D01*
X137881239Y-99128171D01*
X137890251Y-99116760D01*
X137975316Y-98978757D01*
X137981463Y-98965576D01*
X138032638Y-98811290D01*
X138035505Y-98797914D01*
X138045172Y-98703562D01*
X138045500Y-98697146D01*
X138045500Y-98272115D01*
X138041025Y-98256876D01*
X138039635Y-98255671D01*
X138031952Y-98254000D01*
X137147115Y-98254000D01*
X137131876Y-98258475D01*
X137130671Y-98259865D01*
X137129000Y-98267548D01*
X137129000Y-100227885D01*
X136621000Y-100227885D01*
X136621000Y-98272115D01*
X136616525Y-98256876D01*
X136615135Y-98255671D01*
X136607452Y-98254000D01*
X135722616Y-98254000D01*
X135707377Y-98258475D01*
X135706172Y-98259865D01*
X135704501Y-98267548D01*
X135704501Y-98697095D01*
X135704838Y-98703614D01*
X135714757Y-98799206D01*
X135717649Y-98812600D01*
X135769088Y-98966784D01*
X135775261Y-98979962D01*
X135860563Y-99117807D01*
X135869599Y-99129208D01*
X135901317Y-99160871D01*
X135935396Y-99223154D01*
X135930393Y-99293974D01*
X135901471Y-99339063D01*
X135868761Y-99371829D01*
X135859749Y-99383240D01*
X135774684Y-99521243D01*
X135768537Y-99534424D01*
X135717362Y-99688710D01*
X135714495Y-99702086D01*
X135704828Y-99796438D01*
X135704500Y-99802855D01*
X135704500Y-100227885D01*
X134921000Y-100227885D01*
X134921000Y-99799600D01*
X134919734Y-99787400D01*
X134910738Y-99700692D01*
X134910737Y-99700688D01*
X134910026Y-99693834D01*
X134897631Y-99656680D01*
X134856368Y-99533002D01*
X134854050Y-99526054D01*
X134760978Y-99375652D01*
X134755796Y-99370479D01*
X134755792Y-99370474D01*
X134724392Y-99339129D01*
X134690312Y-99276847D01*
X134695315Y-99206027D01*
X134724235Y-99160939D01*
X134756633Y-99128484D01*
X134761805Y-99123303D01*
X134766571Y-99115571D01*
X134850775Y-98978968D01*
X134850776Y-98978966D01*
X134854615Y-98972738D01*
X134885973Y-98878197D01*
X134908132Y-98811389D01*
X134908132Y-98811387D01*
X134910297Y-98804861D01*
X134911755Y-98790638D01*
X134916125Y-98747982D01*
X134921000Y-98700400D01*
X134921000Y-97727885D01*
X135704500Y-97727885D01*
X135708975Y-97743124D01*
X135710365Y-97744329D01*
X135718048Y-97746000D01*
X136602885Y-97746000D01*
X136618124Y-97741525D01*
X136619329Y-97740135D01*
X136621000Y-97732452D01*
X136621000Y-97727885D01*
X137129000Y-97727885D01*
X137133475Y-97743124D01*
X137134865Y-97744329D01*
X137142548Y-97746000D01*
X138027384Y-97746000D01*
X138042623Y-97741525D01*
X138043828Y-97740135D01*
X138045499Y-97732452D01*
X138045499Y-97302905D01*
X138045162Y-97296386D01*
X138035243Y-97200794D01*
X138032351Y-97187400D01*
X137980912Y-97033216D01*
X137974739Y-97020038D01*
X137889437Y-96882193D01*
X137880401Y-96870792D01*
X137765671Y-96756261D01*
X137754260Y-96747249D01*
X137616257Y-96662184D01*
X137603076Y-96656037D01*
X137448790Y-96604862D01*
X137435414Y-96601995D01*
X137341062Y-96592328D01*
X137334645Y-96592000D01*
X137147115Y-96592000D01*
X137131876Y-96596475D01*
X137130671Y-96597865D01*
X137129000Y-96605548D01*
X137129000Y-97727885D01*
X136621000Y-97727885D01*
X136621000Y-96610116D01*
X136616525Y-96594877D01*
X136615135Y-96593672D01*
X136607452Y-96592001D01*
X136415405Y-96592001D01*
X136408886Y-96592338D01*
X136313294Y-96602257D01*
X136299900Y-96605149D01*
X136145716Y-96656588D01*
X136132538Y-96662761D01*
X135994693Y-96748063D01*
X135983292Y-96757099D01*
X135868761Y-96871829D01*
X135859749Y-96883240D01*
X135774684Y-97021243D01*
X135768537Y-97034424D01*
X135717362Y-97188710D01*
X135714495Y-97202086D01*
X135704828Y-97296438D01*
X135704500Y-97302855D01*
X135704500Y-97727885D01*
X134921000Y-97727885D01*
X134921000Y-97299600D01*
X134915025Y-97242014D01*
X134910738Y-97200692D01*
X134910737Y-97200688D01*
X134910026Y-97193834D01*
X134907313Y-97185700D01*
X134856368Y-97033002D01*
X134854050Y-97026054D01*
X134760978Y-96875652D01*
X134752071Y-96866760D01*
X134640983Y-96755866D01*
X134635803Y-96750695D01*
X134602168Y-96729962D01*
X134491468Y-96661725D01*
X134491466Y-96661724D01*
X134485238Y-96657885D01*
X134382869Y-96623931D01*
X134323889Y-96604368D01*
X134323887Y-96604368D01*
X134317361Y-96602203D01*
X134310525Y-96601503D01*
X134310522Y-96601502D01*
X134263349Y-96596669D01*
X134212900Y-96591500D01*
X133287100Y-96591500D01*
X133283854Y-96591837D01*
X133283850Y-96591837D01*
X133188192Y-96601762D01*
X133188188Y-96601763D01*
X133181334Y-96602474D01*
X133174798Y-96604655D01*
X133174796Y-96604655D01*
X133079325Y-96636507D01*
X133013554Y-96658450D01*
X132863152Y-96751522D01*
X132857979Y-96756704D01*
X132853967Y-96760723D01*
X132738195Y-96876697D01*
X132734355Y-96882927D01*
X132734354Y-96882928D01*
X132649228Y-97021028D01*
X132645385Y-97027262D01*
X132641535Y-97038870D01*
X132594020Y-97182125D01*
X132589703Y-97195139D01*
X132589002Y-97201977D01*
X132589002Y-97201979D01*
X132580666Y-97283342D01*
X132553825Y-97349070D01*
X132495710Y-97389852D01*
X132455322Y-97396500D01*
X131989394Y-97396500D01*
X131921273Y-97376498D01*
X131886181Y-97342771D01*
X131779357Y-97190211D01*
X131779355Y-97190208D01*
X131776198Y-97185700D01*
X131614300Y-97023802D01*
X131609792Y-97020645D01*
X131609789Y-97020643D01*
X131489493Y-96936411D01*
X131426749Y-96892477D01*
X131421767Y-96890154D01*
X131421762Y-96890151D01*
X131386951Y-96873919D01*
X131333666Y-96827002D01*
X131314205Y-96758725D01*
X131334747Y-96690765D01*
X131386951Y-96645529D01*
X131421511Y-96629414D01*
X131431007Y-96623931D01*
X131609467Y-96498972D01*
X131617875Y-96491916D01*
X131771916Y-96337875D01*
X131778972Y-96329467D01*
X131903931Y-96151007D01*
X131909414Y-96141511D01*
X132001490Y-95944053D01*
X132005236Y-95933761D01*
X132051394Y-95761497D01*
X132051058Y-95747401D01*
X132043116Y-95744000D01*
X129502033Y-95744000D01*
X129488502Y-95747973D01*
X129487273Y-95756522D01*
X129534764Y-95933761D01*
X129538510Y-95944053D01*
X129630586Y-96141511D01*
X129636069Y-96151007D01*
X129761028Y-96329467D01*
X129768084Y-96337875D01*
X129922125Y-96491916D01*
X129930533Y-96498972D01*
X130108993Y-96623931D01*
X130118489Y-96629414D01*
X130153049Y-96645529D01*
X130206334Y-96692446D01*
X130225795Y-96760723D01*
X130205253Y-96828683D01*
X130153049Y-96873919D01*
X130118238Y-96890151D01*
X130118233Y-96890154D01*
X130113251Y-96892477D01*
X130050507Y-96936411D01*
X129930211Y-97020643D01*
X129930208Y-97020645D01*
X129925700Y-97023802D01*
X129763802Y-97185700D01*
X129760645Y-97190208D01*
X129760643Y-97190211D01*
X129725751Y-97240042D01*
X129632477Y-97373251D01*
X129630154Y-97378233D01*
X129630151Y-97378238D01*
X129538039Y-97575775D01*
X129535716Y-97580757D01*
X129534294Y-97586065D01*
X129534293Y-97586067D01*
X129486756Y-97763478D01*
X129476457Y-97801913D01*
X129456502Y-98030000D01*
X129476457Y-98258087D01*
X129477881Y-98263400D01*
X129477881Y-98263402D01*
X129516900Y-98409020D01*
X129535716Y-98479243D01*
X129538039Y-98484224D01*
X129538039Y-98484225D01*
X129630151Y-98681762D01*
X129630154Y-98681767D01*
X129632477Y-98686749D01*
X129695320Y-98776498D01*
X129747839Y-98851502D01*
X129763802Y-98874300D01*
X129925700Y-99036198D01*
X129930208Y-99039355D01*
X129930211Y-99039357D01*
X129975255Y-99070897D01*
X130113251Y-99167523D01*
X130118233Y-99169846D01*
X130118238Y-99169849D01*
X130152457Y-99185805D01*
X130205742Y-99232722D01*
X130225203Y-99300999D01*
X130204661Y-99368959D01*
X130152457Y-99414195D01*
X130118238Y-99430151D01*
X130118233Y-99430154D01*
X130113251Y-99432477D01*
X130041200Y-99482928D01*
X129930211Y-99560643D01*
X129930208Y-99560645D01*
X129925700Y-99563802D01*
X129763802Y-99725700D01*
X129760645Y-99730208D01*
X129760643Y-99730211D01*
X129653819Y-99882771D01*
X129598362Y-99927099D01*
X129550606Y-99936500D01*
X127759500Y-99936500D01*
X127691379Y-99916498D01*
X127644886Y-99862842D01*
X127633500Y-99810500D01*
X127633500Y-95409776D01*
X127635051Y-95390065D01*
X127636980Y-95377886D01*
X127638220Y-95370057D01*
X127634059Y-95326038D01*
X127633500Y-95314181D01*
X127633500Y-84252524D01*
X127653502Y-84184403D01*
X127665858Y-84168221D01*
X127739040Y-84086944D01*
X127834527Y-83921556D01*
X127893542Y-83739928D01*
X127896682Y-83710059D01*
X127912814Y-83556565D01*
X127913504Y-83550000D01*
X127909333Y-83510316D01*
X127894232Y-83366635D01*
X127894232Y-83366633D01*
X127893542Y-83360072D01*
X127834527Y-83178444D01*
X127829489Y-83169717D01*
X127742341Y-83018774D01*
X127739040Y-83013056D01*
X127706645Y-82977077D01*
X127615675Y-82876045D01*
X127615674Y-82876044D01*
X127611253Y-82871134D01*
X127499582Y-82790000D01*
X127462094Y-82762763D01*
X127462093Y-82762762D01*
X127456752Y-82758882D01*
X127450724Y-82756198D01*
X127450722Y-82756197D01*
X127288319Y-82683891D01*
X127288318Y-82683891D01*
X127282288Y-82681206D01*
X127188888Y-82661353D01*
X127101944Y-82642872D01*
X127101939Y-82642872D01*
X127095487Y-82641500D01*
X126904513Y-82641500D01*
X126898061Y-82642872D01*
X126898056Y-82642872D01*
X126811112Y-82661353D01*
X126717712Y-82681206D01*
X126711682Y-82683891D01*
X126711681Y-82683891D01*
X126549278Y-82756197D01*
X126549276Y-82756198D01*
X126543248Y-82758882D01*
X126537907Y-82762762D01*
X126537906Y-82762763D01*
X126500418Y-82790000D01*
X126388747Y-82871134D01*
X126384326Y-82876044D01*
X126384325Y-82876045D01*
X126293356Y-82977077D01*
X126260960Y-83013056D01*
X126257659Y-83018774D01*
X126170512Y-83169717D01*
X126165473Y-83178444D01*
X126106458Y-83360072D01*
X126105768Y-83366633D01*
X126105768Y-83366635D01*
X126090667Y-83510316D01*
X126086496Y-83550000D01*
X126087186Y-83556565D01*
X126103319Y-83710059D01*
X126106458Y-83739928D01*
X126165473Y-83921556D01*
X126260960Y-84086944D01*
X126334137Y-84168215D01*
X126364853Y-84232221D01*
X126366500Y-84252524D01*
X126366500Y-94730500D01*
X126346498Y-94798621D01*
X126292842Y-94845114D01*
X126240500Y-94856500D01*
X124369394Y-94856500D01*
X124301273Y-94836498D01*
X124266181Y-94802771D01*
X124159357Y-94650211D01*
X124159355Y-94650208D01*
X124156198Y-94645700D01*
X123994300Y-94483802D01*
X123989792Y-94480645D01*
X123989789Y-94480643D01*
X123886686Y-94408450D01*
X123806749Y-94352477D01*
X123801767Y-94350154D01*
X123801762Y-94350151D01*
X123767543Y-94334195D01*
X123714258Y-94287278D01*
X123694797Y-94219001D01*
X123715339Y-94151041D01*
X123767543Y-94105805D01*
X123801762Y-94089849D01*
X123801767Y-94089846D01*
X123806749Y-94087523D01*
X123961530Y-93979144D01*
X123989789Y-93959357D01*
X123989792Y-93959355D01*
X123994300Y-93956198D01*
X124156198Y-93794300D01*
X124287523Y-93606749D01*
X124289846Y-93601767D01*
X124289849Y-93601762D01*
X124381961Y-93404225D01*
X124381961Y-93404224D01*
X124384284Y-93399243D01*
X124399221Y-93343500D01*
X124442119Y-93183402D01*
X124442119Y-93183400D01*
X124443543Y-93178087D01*
X124463498Y-92950000D01*
X124443543Y-92721913D01*
X124442119Y-92716598D01*
X124385707Y-92506067D01*
X124385706Y-92506065D01*
X124384284Y-92500757D01*
X124360424Y-92449588D01*
X124289849Y-92298238D01*
X124289846Y-92298233D01*
X124287523Y-92293251D01*
X124156198Y-92105700D01*
X123994300Y-91943802D01*
X123989792Y-91940645D01*
X123989789Y-91940643D01*
X123869493Y-91856411D01*
X123806749Y-91812477D01*
X123801767Y-91810154D01*
X123801762Y-91810151D01*
X123767543Y-91794195D01*
X123714258Y-91747278D01*
X123694797Y-91679001D01*
X123715339Y-91611041D01*
X123767543Y-91565805D01*
X123801762Y-91549849D01*
X123801767Y-91549846D01*
X123806749Y-91547523D01*
X123961530Y-91439144D01*
X123989789Y-91419357D01*
X123989792Y-91419355D01*
X123994300Y-91416198D01*
X124156198Y-91254300D01*
X124287523Y-91066749D01*
X124289846Y-91061767D01*
X124289849Y-91061762D01*
X124381961Y-90864225D01*
X124381961Y-90864224D01*
X124384284Y-90859243D01*
X124399221Y-90803500D01*
X124442119Y-90643402D01*
X124442119Y-90643400D01*
X124443543Y-90638087D01*
X124463498Y-90410000D01*
X124443543Y-90181913D01*
X124442119Y-90176598D01*
X124385707Y-89966067D01*
X124385706Y-89966065D01*
X124384284Y-89960757D01*
X124360424Y-89909588D01*
X124289849Y-89758238D01*
X124289846Y-89758233D01*
X124287523Y-89753251D01*
X124156198Y-89565700D01*
X123994300Y-89403802D01*
X123989792Y-89400645D01*
X123989789Y-89400643D01*
X123869493Y-89316411D01*
X123806749Y-89272477D01*
X123801767Y-89270154D01*
X123801762Y-89270151D01*
X123767543Y-89254195D01*
X123714258Y-89207278D01*
X123694797Y-89139001D01*
X123715339Y-89071041D01*
X123767543Y-89025805D01*
X123801762Y-89009849D01*
X123801767Y-89009846D01*
X123806749Y-89007523D01*
X123968531Y-88894242D01*
X123989789Y-88879357D01*
X123989792Y-88879355D01*
X123994300Y-88876198D01*
X124156198Y-88714300D01*
X124160657Y-88707933D01*
X124231162Y-88607240D01*
X124287523Y-88526749D01*
X124289846Y-88521767D01*
X124289849Y-88521762D01*
X124381961Y-88324225D01*
X124381961Y-88324224D01*
X124384284Y-88319243D01*
X124399221Y-88263500D01*
X124442119Y-88103402D01*
X124442119Y-88103400D01*
X124443543Y-88098087D01*
X124463498Y-87870000D01*
X124443543Y-87641913D01*
X124442119Y-87636598D01*
X124385707Y-87426067D01*
X124385706Y-87426065D01*
X124384284Y-87420757D01*
X124360424Y-87369588D01*
X124289849Y-87218238D01*
X124289846Y-87218233D01*
X124287523Y-87213251D01*
X124156198Y-87025700D01*
X123994300Y-86863802D01*
X123989792Y-86860645D01*
X123989789Y-86860643D01*
X123867261Y-86774848D01*
X123806749Y-86732477D01*
X123801767Y-86730154D01*
X123801762Y-86730151D01*
X123767543Y-86714195D01*
X123714258Y-86667278D01*
X123694797Y-86599001D01*
X123715339Y-86531041D01*
X123767543Y-86485805D01*
X123801762Y-86469849D01*
X123801767Y-86469846D01*
X123806749Y-86467523D01*
X123961530Y-86359144D01*
X123989789Y-86339357D01*
X123989792Y-86339355D01*
X123994300Y-86336198D01*
X124156198Y-86174300D01*
X124186851Y-86130524D01*
X124231162Y-86067240D01*
X124287523Y-85986749D01*
X124289846Y-85981767D01*
X124289849Y-85981762D01*
X124381961Y-85784225D01*
X124381961Y-85784224D01*
X124384284Y-85779243D01*
X124386939Y-85769337D01*
X124442119Y-85563402D01*
X124442119Y-85563400D01*
X124443543Y-85558087D01*
X124463498Y-85330000D01*
X124443543Y-85101913D01*
X124442119Y-85096598D01*
X124385707Y-84886067D01*
X124385706Y-84886065D01*
X124384284Y-84880757D01*
X124360424Y-84829588D01*
X124289849Y-84678238D01*
X124289846Y-84678233D01*
X124287523Y-84673251D01*
X124156198Y-84485700D01*
X123994300Y-84323802D01*
X123989792Y-84320645D01*
X123989789Y-84320643D01*
X123863509Y-84232221D01*
X123806749Y-84192477D01*
X123801767Y-84190154D01*
X123801762Y-84190151D01*
X123767543Y-84174195D01*
X123714258Y-84127278D01*
X123694797Y-84059001D01*
X123715339Y-83991041D01*
X123767543Y-83945805D01*
X123801762Y-83929849D01*
X123801767Y-83929846D01*
X123806749Y-83927523D01*
X123965953Y-83816047D01*
X123989789Y-83799357D01*
X123989792Y-83799355D01*
X123994300Y-83796198D01*
X124156198Y-83634300D01*
X124160080Y-83628757D01*
X124245908Y-83506181D01*
X124287523Y-83446749D01*
X124289846Y-83441767D01*
X124289849Y-83441762D01*
X124381961Y-83244225D01*
X124381961Y-83244224D01*
X124384284Y-83239243D01*
X124399221Y-83183500D01*
X124442119Y-83023402D01*
X124442119Y-83023400D01*
X124443543Y-83018087D01*
X124463498Y-82790000D01*
X124443543Y-82561913D01*
X124442117Y-82556591D01*
X124385707Y-82346067D01*
X124385706Y-82346065D01*
X124384284Y-82340757D01*
X124381961Y-82335775D01*
X124289849Y-82138238D01*
X124289846Y-82138233D01*
X124287523Y-82133251D01*
X124211519Y-82024707D01*
X124159357Y-81950211D01*
X124159355Y-81950208D01*
X124156198Y-81945700D01*
X123994300Y-81783802D01*
X123989789Y-81780643D01*
X123985576Y-81777108D01*
X123986527Y-81775974D01*
X123946529Y-81725929D01*
X123939224Y-81655310D01*
X123971258Y-81591951D01*
X124032462Y-81555970D01*
X124049517Y-81552918D01*
X124060316Y-81551745D01*
X124196705Y-81500615D01*
X124313261Y-81413261D01*
X124400615Y-81296705D01*
X124451745Y-81160316D01*
X124458500Y-81098134D01*
X124458500Y-79401866D01*
X124451745Y-79339684D01*
X124400615Y-79203295D01*
X124313261Y-79086739D01*
X124196705Y-78999385D01*
X124060316Y-78948255D01*
X123998134Y-78941500D01*
X122301866Y-78941500D01*
X122239684Y-78948255D01*
X122103295Y-78999385D01*
X121986739Y-79086739D01*
X121899385Y-79203295D01*
X121848255Y-79339684D01*
X121841500Y-79401866D01*
X121841500Y-81098134D01*
X121848255Y-81160316D01*
X121899385Y-81296705D01*
X121986739Y-81413261D01*
X122103295Y-81500615D01*
X122239684Y-81551745D01*
X122250474Y-81552917D01*
X122252606Y-81553803D01*
X122255222Y-81554425D01*
X122255121Y-81554848D01*
X122316035Y-81580155D01*
X122356463Y-81638517D01*
X122358922Y-81709471D01*
X122322629Y-81770490D01*
X122313969Y-81777489D01*
X122310207Y-81780646D01*
X122305700Y-81783802D01*
X122209907Y-81879595D01*
X122147595Y-81913621D01*
X122120812Y-81916500D01*
X110484500Y-81916500D01*
X110416379Y-81896498D01*
X110369886Y-81842842D01*
X110358500Y-81790500D01*
X110358500Y-81651866D01*
X110351745Y-81589684D01*
X110300615Y-81453295D01*
X110213261Y-81336739D01*
X110096705Y-81249385D01*
X109960316Y-81198255D01*
X109898134Y-81191500D01*
X108101866Y-81191500D01*
X108039684Y-81198255D01*
X107903295Y-81249385D01*
X107786739Y-81336739D01*
X107699385Y-81453295D01*
X107648255Y-81589684D01*
X107641500Y-81651866D01*
X107641500Y-83448134D01*
X107648255Y-83510316D01*
X107699385Y-83646705D01*
X107786739Y-83763261D01*
X107903295Y-83850615D01*
X107911704Y-83853767D01*
X107911705Y-83853768D01*
X108020451Y-83894535D01*
X108077216Y-83937176D01*
X108101916Y-84003738D01*
X108086709Y-84073087D01*
X108067316Y-84099568D01*
X107940629Y-84232138D01*
X107937715Y-84236410D01*
X107937714Y-84236411D01*
X107925409Y-84254450D01*
X107814743Y-84416680D01*
X107720688Y-84619305D01*
X107660989Y-84834570D01*
X107637251Y-85056695D01*
X107650110Y-85279715D01*
X107651247Y-85284761D01*
X107651248Y-85284767D01*
X107661442Y-85330000D01*
X107699222Y-85497639D01*
X107783266Y-85704616D01*
X107785965Y-85709020D01*
X107896595Y-85889552D01*
X107899987Y-85895088D01*
X107903367Y-85898990D01*
X107910681Y-85907434D01*
X108046250Y-86063938D01*
X108218126Y-86206632D01*
X108249448Y-86224935D01*
X108291445Y-86249476D01*
X108340169Y-86301114D01*
X108353240Y-86370897D01*
X108326509Y-86436669D01*
X108286055Y-86470027D01*
X108273607Y-86476507D01*
X108269474Y-86479610D01*
X108269471Y-86479612D01*
X108099100Y-86607530D01*
X108094965Y-86610635D01*
X108067287Y-86639598D01*
X107952828Y-86759373D01*
X107940629Y-86772138D01*
X107814743Y-86956680D01*
X107797596Y-86993621D01*
X107739109Y-87119621D01*
X107720688Y-87159305D01*
X107660989Y-87374570D01*
X107637251Y-87596695D01*
X107650110Y-87819715D01*
X107651247Y-87824761D01*
X107651248Y-87824767D01*
X107661442Y-87870000D01*
X107699222Y-88037639D01*
X107783266Y-88244616D01*
X107785965Y-88249020D01*
X107892350Y-88422625D01*
X107899987Y-88435088D01*
X108046250Y-88603938D01*
X108218126Y-88746632D01*
X108227723Y-88752240D01*
X108291445Y-88789476D01*
X108340169Y-88841114D01*
X108353240Y-88910897D01*
X108326509Y-88976669D01*
X108286055Y-89010027D01*
X108273607Y-89016507D01*
X108269474Y-89019610D01*
X108269471Y-89019612D01*
X108099100Y-89147530D01*
X108094965Y-89150635D01*
X107940629Y-89312138D01*
X107814743Y-89496680D01*
X107720688Y-89699305D01*
X107660989Y-89914570D01*
X107637251Y-90136695D01*
X107650110Y-90359715D01*
X107651247Y-90364761D01*
X107651248Y-90364767D01*
X107661442Y-90410000D01*
X107699222Y-90577639D01*
X107783266Y-90784616D01*
X107899987Y-90975088D01*
X108046250Y-91143938D01*
X108218126Y-91286632D01*
X108288595Y-91327811D01*
X108291445Y-91329476D01*
X108340169Y-91381114D01*
X108353240Y-91450897D01*
X108326509Y-91516669D01*
X108286055Y-91550027D01*
X108273607Y-91556507D01*
X108269474Y-91559610D01*
X108269471Y-91559612D01*
X108099100Y-91687530D01*
X108094965Y-91690635D01*
X107940629Y-91852138D01*
X107814743Y-92036680D01*
X107720688Y-92239305D01*
X107660989Y-92454570D01*
X107637251Y-92676695D01*
X107650110Y-92899715D01*
X107651247Y-92904761D01*
X107651248Y-92904767D01*
X107661442Y-92950000D01*
X107699222Y-93117639D01*
X107783266Y-93324616D01*
X107899987Y-93515088D01*
X108046250Y-93683938D01*
X108218126Y-93826632D01*
X108288595Y-93867811D01*
X108291445Y-93869476D01*
X108340169Y-93921114D01*
X108353240Y-93990897D01*
X108326509Y-94056669D01*
X108286055Y-94090027D01*
X108273607Y-94096507D01*
X108269474Y-94099610D01*
X108269471Y-94099612D01*
X108107431Y-94221275D01*
X108094965Y-94230635D01*
X108029346Y-94299301D01*
X107975977Y-94355149D01*
X107940629Y-94392138D01*
X107937715Y-94396410D01*
X107937714Y-94396411D01*
X107926871Y-94412306D01*
X107814743Y-94576680D01*
X107793786Y-94621829D01*
X107724990Y-94770038D01*
X107720688Y-94779305D01*
X107660989Y-94994570D01*
X107637251Y-95216695D01*
X107637548Y-95221848D01*
X107637548Y-95221851D01*
X107646094Y-95370057D01*
X107650110Y-95439715D01*
X107651247Y-95444761D01*
X107651248Y-95444767D01*
X107671119Y-95532939D01*
X107699222Y-95657639D01*
X107783266Y-95864616D01*
X107785965Y-95869020D01*
X107876983Y-96017548D01*
X107899987Y-96055088D01*
X108046250Y-96223938D01*
X108218126Y-96366632D01*
X108288595Y-96407811D01*
X108291445Y-96409476D01*
X108340169Y-96461114D01*
X108353240Y-96530897D01*
X108326509Y-96596669D01*
X108286055Y-96630027D01*
X108273607Y-96636507D01*
X108269474Y-96639610D01*
X108269471Y-96639612D01*
X108107431Y-96761275D01*
X108094965Y-96770635D01*
X107940629Y-96932138D01*
X107814743Y-97116680D01*
X107778713Y-97194301D01*
X107728301Y-97302905D01*
X107720688Y-97319305D01*
X107660989Y-97534570D01*
X107637251Y-97756695D01*
X107650110Y-97979715D01*
X107651247Y-97984761D01*
X107651248Y-97984767D01*
X107661442Y-98030000D01*
X107699222Y-98197639D01*
X107783266Y-98404616D01*
X107785965Y-98409020D01*
X107895436Y-98587661D01*
X107899987Y-98595088D01*
X108046250Y-98763938D01*
X108218126Y-98906632D01*
X108257991Y-98929927D01*
X108291445Y-98949476D01*
X108340169Y-99001114D01*
X108353240Y-99070897D01*
X108326509Y-99136669D01*
X108286055Y-99170027D01*
X108273607Y-99176507D01*
X108269474Y-99179610D01*
X108269471Y-99179612D01*
X108099100Y-99307530D01*
X108094965Y-99310635D01*
X107940629Y-99472138D01*
X107937715Y-99476410D01*
X107937714Y-99476411D01*
X107908100Y-99519824D01*
X107814743Y-99656680D01*
X107784514Y-99721803D01*
X107725293Y-99849385D01*
X107720688Y-99859305D01*
X107660989Y-100074570D01*
X107637251Y-100296695D01*
X104983052Y-100296695D01*
X104930299Y-71373134D01*
X126341500Y-71373134D01*
X126348255Y-71435316D01*
X126399385Y-71571705D01*
X126486739Y-71688261D01*
X126603295Y-71775615D01*
X126739684Y-71826745D01*
X126801866Y-71833500D01*
X126940500Y-71833500D01*
X127008621Y-71853502D01*
X127055114Y-71907158D01*
X127066500Y-71959500D01*
X127066500Y-79641233D01*
X127065973Y-79652416D01*
X127064298Y-79659909D01*
X127064547Y-79667835D01*
X127064547Y-79667836D01*
X127066438Y-79727986D01*
X127066500Y-79731945D01*
X127066500Y-79759856D01*
X127066997Y-79763790D01*
X127066997Y-79763791D01*
X127067005Y-79763856D01*
X127067938Y-79775693D01*
X127069327Y-79819889D01*
X127074978Y-79839339D01*
X127078987Y-79858700D01*
X127081526Y-79878797D01*
X127084445Y-79886168D01*
X127084445Y-79886170D01*
X127097804Y-79919912D01*
X127101649Y-79931142D01*
X127113982Y-79973593D01*
X127118015Y-79980412D01*
X127118017Y-79980417D01*
X127124293Y-79991028D01*
X127132988Y-80008776D01*
X127140448Y-80027617D01*
X127145110Y-80034033D01*
X127145110Y-80034034D01*
X127166436Y-80063387D01*
X127172952Y-80073307D01*
X127195458Y-80111362D01*
X127209779Y-80125683D01*
X127222619Y-80140716D01*
X127234528Y-80157107D01*
X127240634Y-80162158D01*
X127268605Y-80185298D01*
X127277384Y-80193288D01*
X129460848Y-82376752D01*
X129494874Y-82439064D01*
X129493459Y-82498459D01*
X129477882Y-82556591D01*
X129477881Y-82556598D01*
X129476457Y-82561913D01*
X129456502Y-82790000D01*
X129476457Y-83018087D01*
X129477881Y-83023400D01*
X129477881Y-83023402D01*
X129520780Y-83183500D01*
X129535716Y-83239243D01*
X129538039Y-83244224D01*
X129538039Y-83244225D01*
X129630151Y-83441762D01*
X129630154Y-83441767D01*
X129632477Y-83446749D01*
X129674092Y-83506181D01*
X129759921Y-83628757D01*
X129763802Y-83634300D01*
X129925700Y-83796198D01*
X129930208Y-83799355D01*
X129930211Y-83799357D01*
X129954047Y-83816047D01*
X130113251Y-83927523D01*
X130118233Y-83929846D01*
X130118238Y-83929849D01*
X130152457Y-83945805D01*
X130205742Y-83992722D01*
X130225203Y-84060999D01*
X130204661Y-84128959D01*
X130152457Y-84174195D01*
X130118238Y-84190151D01*
X130118233Y-84190154D01*
X130113251Y-84192477D01*
X130056491Y-84232221D01*
X129930211Y-84320643D01*
X129930208Y-84320645D01*
X129925700Y-84323802D01*
X129763802Y-84485700D01*
X129632477Y-84673251D01*
X129630154Y-84678233D01*
X129630151Y-84678238D01*
X129559576Y-84829588D01*
X129535716Y-84880757D01*
X129534294Y-84886065D01*
X129534293Y-84886067D01*
X129477881Y-85096598D01*
X129476457Y-85101913D01*
X129456502Y-85330000D01*
X129476457Y-85558087D01*
X129477881Y-85563400D01*
X129477881Y-85563402D01*
X129533062Y-85769337D01*
X129535716Y-85779243D01*
X129538039Y-85784224D01*
X129538039Y-85784225D01*
X129630151Y-85981762D01*
X129630154Y-85981767D01*
X129632477Y-85986749D01*
X129688838Y-86067240D01*
X129733150Y-86130524D01*
X129763802Y-86174300D01*
X129925700Y-86336198D01*
X129930208Y-86339355D01*
X129930211Y-86339357D01*
X129958470Y-86359144D01*
X130113251Y-86467523D01*
X130118233Y-86469846D01*
X130118238Y-86469849D01*
X130152457Y-86485805D01*
X130205742Y-86532722D01*
X130225203Y-86600999D01*
X130204661Y-86668959D01*
X130152457Y-86714195D01*
X130118238Y-86730151D01*
X130118233Y-86730154D01*
X130113251Y-86732477D01*
X130052739Y-86774848D01*
X129930211Y-86860643D01*
X129930208Y-86860645D01*
X129925700Y-86863802D01*
X129763802Y-87025700D01*
X129632477Y-87213251D01*
X129630154Y-87218233D01*
X129630151Y-87218238D01*
X129559576Y-87369588D01*
X129535716Y-87420757D01*
X129534294Y-87426065D01*
X129534293Y-87426067D01*
X129477881Y-87636598D01*
X129476457Y-87641913D01*
X129456502Y-87870000D01*
X129476457Y-88098087D01*
X129477881Y-88103400D01*
X129477881Y-88103402D01*
X129520780Y-88263500D01*
X129535716Y-88319243D01*
X129538039Y-88324224D01*
X129538039Y-88324225D01*
X129630151Y-88521762D01*
X129630154Y-88521767D01*
X129632477Y-88526749D01*
X129688838Y-88607240D01*
X129759344Y-88707933D01*
X129763802Y-88714300D01*
X129925700Y-88876198D01*
X129930208Y-88879355D01*
X129930211Y-88879357D01*
X129951469Y-88894242D01*
X130113251Y-89007523D01*
X130118233Y-89009846D01*
X130118238Y-89009849D01*
X130152457Y-89025805D01*
X130205742Y-89072722D01*
X130225203Y-89140999D01*
X130204661Y-89208959D01*
X130152457Y-89254195D01*
X130118238Y-89270151D01*
X130118233Y-89270154D01*
X130113251Y-89272477D01*
X130050507Y-89316411D01*
X129930211Y-89400643D01*
X129930208Y-89400645D01*
X129925700Y-89403802D01*
X129763802Y-89565700D01*
X129632477Y-89753251D01*
X129630154Y-89758233D01*
X129630151Y-89758238D01*
X129559576Y-89909588D01*
X129535716Y-89960757D01*
X129534294Y-89966065D01*
X129534293Y-89966067D01*
X129477881Y-90176598D01*
X129476457Y-90181913D01*
X129456502Y-90410000D01*
X129476457Y-90638087D01*
X129477881Y-90643400D01*
X129477881Y-90643402D01*
X129520780Y-90803500D01*
X129535716Y-90859243D01*
X129538039Y-90864224D01*
X129538039Y-90864225D01*
X129630151Y-91061762D01*
X129630154Y-91061767D01*
X129632477Y-91066749D01*
X129763802Y-91254300D01*
X129925700Y-91416198D01*
X129930208Y-91419355D01*
X129930211Y-91419357D01*
X129958470Y-91439144D01*
X130113251Y-91547523D01*
X130118233Y-91549846D01*
X130118238Y-91549849D01*
X130152457Y-91565805D01*
X130205742Y-91612722D01*
X130225203Y-91680999D01*
X130204661Y-91748959D01*
X130152457Y-91794195D01*
X130118238Y-91810151D01*
X130118233Y-91810154D01*
X130113251Y-91812477D01*
X130050507Y-91856411D01*
X129930211Y-91940643D01*
X129930208Y-91940645D01*
X129925700Y-91943802D01*
X129763802Y-92105700D01*
X129632477Y-92293251D01*
X129630154Y-92298233D01*
X129630151Y-92298238D01*
X129559576Y-92449588D01*
X129535716Y-92500757D01*
X129534294Y-92506065D01*
X129534293Y-92506067D01*
X129477881Y-92716598D01*
X129476457Y-92721913D01*
X129456502Y-92950000D01*
X129476457Y-93178087D01*
X129477881Y-93183400D01*
X129477881Y-93183402D01*
X129520780Y-93343500D01*
X129535716Y-93399243D01*
X129538039Y-93404224D01*
X129538039Y-93404225D01*
X129630151Y-93601762D01*
X129630154Y-93601767D01*
X129632477Y-93606749D01*
X129763802Y-93794300D01*
X129925700Y-93956198D01*
X129930208Y-93959355D01*
X129930211Y-93959357D01*
X129958470Y-93979144D01*
X130113251Y-94087523D01*
X130118233Y-94089846D01*
X130118238Y-94089849D01*
X130153049Y-94106081D01*
X130206334Y-94152998D01*
X130225795Y-94221275D01*
X130205253Y-94289235D01*
X130153049Y-94334471D01*
X130118489Y-94350586D01*
X130108993Y-94356069D01*
X129930533Y-94481028D01*
X129922125Y-94488084D01*
X129768084Y-94642125D01*
X129761028Y-94650533D01*
X129636069Y-94828993D01*
X129630586Y-94838489D01*
X129538510Y-95035947D01*
X129534764Y-95046239D01*
X129488606Y-95218503D01*
X129488942Y-95232599D01*
X129496884Y-95236000D01*
X132037967Y-95236000D01*
X132051498Y-95232027D01*
X132052727Y-95223478D01*
X132005236Y-95046239D01*
X132001490Y-95035947D01*
X131909414Y-94838489D01*
X131903931Y-94828993D01*
X131778972Y-94650533D01*
X131771916Y-94642125D01*
X131617875Y-94488084D01*
X131609467Y-94481028D01*
X131431007Y-94356069D01*
X131421511Y-94350586D01*
X131386951Y-94334471D01*
X131333666Y-94287554D01*
X131314205Y-94219277D01*
X131334747Y-94151317D01*
X131386951Y-94106081D01*
X131421762Y-94089849D01*
X131421767Y-94089846D01*
X131426749Y-94087523D01*
X131581530Y-93979144D01*
X131609789Y-93959357D01*
X131609792Y-93959355D01*
X131614300Y-93956198D01*
X131776198Y-93794300D01*
X131907523Y-93606749D01*
X131909846Y-93601767D01*
X131909849Y-93601762D01*
X132001961Y-93404225D01*
X132001961Y-93404224D01*
X132004284Y-93399243D01*
X132019221Y-93343500D01*
X132062119Y-93183402D01*
X132062119Y-93183400D01*
X132063543Y-93178087D01*
X132083498Y-92950000D01*
X132063543Y-92721913D01*
X132062119Y-92716598D01*
X132005707Y-92506067D01*
X132005706Y-92506065D01*
X132004284Y-92500757D01*
X131980424Y-92449588D01*
X131909849Y-92298238D01*
X131909846Y-92298233D01*
X131907523Y-92293251D01*
X131776198Y-92105700D01*
X131614300Y-91943802D01*
X131609792Y-91940645D01*
X131609789Y-91940643D01*
X131489493Y-91856411D01*
X131426749Y-91812477D01*
X131421767Y-91810154D01*
X131421762Y-91810151D01*
X131387543Y-91794195D01*
X131334258Y-91747278D01*
X131314797Y-91679001D01*
X131335339Y-91611041D01*
X131387543Y-91565805D01*
X131421762Y-91549849D01*
X131421767Y-91549846D01*
X131426749Y-91547523D01*
X131581530Y-91439144D01*
X131609789Y-91419357D01*
X131609792Y-91419355D01*
X131614300Y-91416198D01*
X131776198Y-91254300D01*
X131907523Y-91066749D01*
X131909846Y-91061767D01*
X131909849Y-91061762D01*
X132001961Y-90864225D01*
X132001961Y-90864224D01*
X132004284Y-90859243D01*
X132019221Y-90803500D01*
X132062119Y-90643402D01*
X132062119Y-90643400D01*
X132063543Y-90638087D01*
X132083498Y-90410000D01*
X132063543Y-90181913D01*
X132062119Y-90176598D01*
X132005707Y-89966067D01*
X132005706Y-89966065D01*
X132004284Y-89960757D01*
X131980424Y-89909588D01*
X131909849Y-89758238D01*
X131909846Y-89758233D01*
X131907523Y-89753251D01*
X131776198Y-89565700D01*
X131614300Y-89403802D01*
X131609792Y-89400645D01*
X131609789Y-89400643D01*
X131489493Y-89316411D01*
X131426749Y-89272477D01*
X131421767Y-89270154D01*
X131421762Y-89270151D01*
X131387543Y-89254195D01*
X131334258Y-89207278D01*
X131314797Y-89139001D01*
X131335339Y-89071041D01*
X131387543Y-89025805D01*
X131421762Y-89009849D01*
X131421767Y-89009846D01*
X131426749Y-89007523D01*
X131588531Y-88894242D01*
X131609789Y-88879357D01*
X131609792Y-88879355D01*
X131614300Y-88876198D01*
X131776198Y-88714300D01*
X131779357Y-88709789D01*
X131886181Y-88557229D01*
X131941638Y-88512901D01*
X131989394Y-88503500D01*
X134727490Y-88503500D01*
X134795611Y-88523502D01*
X134834923Y-88563665D01*
X134844987Y-88580088D01*
X134991250Y-88748938D01*
X135163126Y-88891632D01*
X135356000Y-89004338D01*
X135360825Y-89006180D01*
X135360826Y-89006181D01*
X135412216Y-89025805D01*
X135564692Y-89084030D01*
X135569760Y-89085061D01*
X135569763Y-89085062D01*
X135664243Y-89104284D01*
X135783597Y-89128567D01*
X135788772Y-89128757D01*
X135788774Y-89128757D01*
X136001673Y-89136564D01*
X136001677Y-89136564D01*
X136006837Y-89136753D01*
X136011957Y-89136097D01*
X136011959Y-89136097D01*
X136223288Y-89109025D01*
X136223289Y-89109025D01*
X136228416Y-89108368D01*
X136242029Y-89104284D01*
X136437429Y-89045661D01*
X136437434Y-89045659D01*
X136442384Y-89044174D01*
X136642994Y-88945896D01*
X136824860Y-88816173D01*
X136840191Y-88800896D01*
X136967359Y-88674171D01*
X136983096Y-88658489D01*
X137087289Y-88513489D01*
X137113453Y-88477077D01*
X137114776Y-88478028D01*
X137161645Y-88434857D01*
X137231580Y-88422625D01*
X137297026Y-88450144D01*
X137324875Y-88481994D01*
X137384987Y-88580088D01*
X137531250Y-88748938D01*
X137703126Y-88891632D01*
X137896000Y-89004338D01*
X137900825Y-89006180D01*
X137900826Y-89006181D01*
X137952216Y-89025805D01*
X138104692Y-89084030D01*
X138109760Y-89085061D01*
X138109763Y-89085062D01*
X138204243Y-89104284D01*
X138323597Y-89128567D01*
X138328772Y-89128757D01*
X138328774Y-89128757D01*
X138541673Y-89136564D01*
X138541677Y-89136564D01*
X138546837Y-89136753D01*
X138551957Y-89136097D01*
X138551959Y-89136097D01*
X138763288Y-89109025D01*
X138763289Y-89109025D01*
X138768416Y-89108368D01*
X138782029Y-89104284D01*
X138977429Y-89045661D01*
X138977434Y-89045659D01*
X138982384Y-89044174D01*
X139182994Y-88945896D01*
X139364860Y-88816173D01*
X139380191Y-88800896D01*
X139473479Y-88707933D01*
X139535851Y-88674017D01*
X139606658Y-88679205D01*
X139663419Y-88721851D01*
X139680401Y-88752954D01*
X139721676Y-88863054D01*
X139730214Y-88878649D01*
X139806715Y-88980724D01*
X139819276Y-88993285D01*
X139921351Y-89069786D01*
X139936946Y-89078324D01*
X140057394Y-89123478D01*
X140072649Y-89127105D01*
X140123514Y-89132631D01*
X140130328Y-89133000D01*
X140752885Y-89133000D01*
X140768124Y-89128525D01*
X140769329Y-89127135D01*
X140771000Y-89119452D01*
X140771000Y-89114884D01*
X141279000Y-89114884D01*
X141283475Y-89130123D01*
X141284865Y-89131328D01*
X141292548Y-89132999D01*
X141919669Y-89132999D01*
X141926490Y-89132629D01*
X141977352Y-89127105D01*
X141992604Y-89123479D01*
X142113054Y-89078324D01*
X142128649Y-89069786D01*
X142230724Y-88993285D01*
X142243285Y-88980724D01*
X142319786Y-88878649D01*
X142328324Y-88863054D01*
X142373478Y-88742606D01*
X142377105Y-88727351D01*
X142382631Y-88676486D01*
X142383000Y-88669672D01*
X142383000Y-88047115D01*
X142378525Y-88031876D01*
X142377135Y-88030671D01*
X142369452Y-88029000D01*
X141297115Y-88029000D01*
X141281876Y-88033475D01*
X141280671Y-88034865D01*
X141279000Y-88042548D01*
X141279000Y-89114884D01*
X140771000Y-89114884D01*
X140771000Y-87502885D01*
X141279000Y-87502885D01*
X141283475Y-87518124D01*
X141284865Y-87519329D01*
X141292548Y-87521000D01*
X142364884Y-87521000D01*
X142380123Y-87516525D01*
X142381328Y-87515135D01*
X142382999Y-87507452D01*
X142382999Y-86880331D01*
X142382629Y-86873510D01*
X142377105Y-86822648D01*
X142373479Y-86807396D01*
X142328324Y-86686946D01*
X142319786Y-86671351D01*
X142243285Y-86569276D01*
X142230724Y-86556715D01*
X142128649Y-86480214D01*
X142113054Y-86471676D01*
X141992606Y-86426522D01*
X141977351Y-86422895D01*
X141926486Y-86417369D01*
X141919672Y-86417000D01*
X141297115Y-86417000D01*
X141281876Y-86421475D01*
X141280671Y-86422865D01*
X141279000Y-86430548D01*
X141279000Y-87502885D01*
X140771000Y-87502885D01*
X140771000Y-86435116D01*
X140766525Y-86419877D01*
X140765135Y-86418672D01*
X140757452Y-86417001D01*
X140130331Y-86417001D01*
X140123510Y-86417371D01*
X140072648Y-86422895D01*
X140057396Y-86426521D01*
X139936946Y-86471676D01*
X139921351Y-86480214D01*
X139819276Y-86556715D01*
X139806715Y-86569276D01*
X139730214Y-86671351D01*
X139721676Y-86686946D01*
X139680297Y-86797322D01*
X139637655Y-86854087D01*
X139571093Y-86878786D01*
X139501744Y-86863578D01*
X139469121Y-86837891D01*
X139418151Y-86781876D01*
X139418145Y-86781870D01*
X139414670Y-86778051D01*
X139410619Y-86774852D01*
X139410615Y-86774848D01*
X139243414Y-86642800D01*
X139243410Y-86642798D01*
X139239359Y-86639598D01*
X139234836Y-86637101D01*
X139230525Y-86634237D01*
X139231302Y-86633067D01*
X139185886Y-86587243D01*
X139171104Y-86517802D01*
X139196212Y-86451393D01*
X139207647Y-86438257D01*
X141667253Y-83978652D01*
X141675539Y-83971112D01*
X141682018Y-83967000D01*
X141728644Y-83917348D01*
X141731398Y-83914507D01*
X141751135Y-83894770D01*
X141753615Y-83891573D01*
X141761320Y-83882551D01*
X141786159Y-83856100D01*
X141791586Y-83850321D01*
X141795405Y-83843375D01*
X141795407Y-83843372D01*
X141801348Y-83832566D01*
X141812199Y-83816047D01*
X141819758Y-83806301D01*
X141824614Y-83800041D01*
X141827759Y-83792772D01*
X141827762Y-83792768D01*
X141842174Y-83759463D01*
X141847391Y-83748813D01*
X141868695Y-83710060D01*
X141868695Y-83710059D01*
X141868770Y-83710100D01*
X141910089Y-83657143D01*
X141983568Y-83633500D01*
X142173134Y-83633500D01*
X142235316Y-83626745D01*
X142371705Y-83575615D01*
X142488261Y-83488261D01*
X142575615Y-83371705D01*
X142626745Y-83235316D01*
X142633500Y-83173134D01*
X142633500Y-81376866D01*
X142626745Y-81314684D01*
X142575615Y-81178295D01*
X142488261Y-81061739D01*
X142371705Y-80974385D01*
X142235316Y-80923255D01*
X142173134Y-80916500D01*
X140376866Y-80916500D01*
X140314684Y-80923255D01*
X140178295Y-80974385D01*
X140061739Y-81061739D01*
X139974385Y-81178295D01*
X139971233Y-81186703D01*
X139929919Y-81296907D01*
X139887277Y-81353671D01*
X139820716Y-81378371D01*
X139751367Y-81363163D01*
X139718743Y-81337476D01*
X139668151Y-81281875D01*
X139668142Y-81281866D01*
X139664670Y-81278051D01*
X139660619Y-81274852D01*
X139660615Y-81274848D01*
X139493414Y-81142800D01*
X139493410Y-81142798D01*
X139489359Y-81139598D01*
X139293789Y-81031638D01*
X139288920Y-81029914D01*
X139288916Y-81029912D01*
X139088087Y-80958795D01*
X139088083Y-80958794D01*
X139083212Y-80957069D01*
X139078119Y-80956162D01*
X139078116Y-80956161D01*
X138868373Y-80918800D01*
X138868367Y-80918799D01*
X138863284Y-80917894D01*
X138789452Y-80916992D01*
X138645081Y-80915228D01*
X138645079Y-80915228D01*
X138639911Y-80915165D01*
X138419091Y-80948955D01*
X138206756Y-81018357D01*
X138008607Y-81121507D01*
X138004474Y-81124610D01*
X138004471Y-81124612D01*
X137914893Y-81191869D01*
X137829965Y-81255635D01*
X137790718Y-81296705D01*
X137736280Y-81353671D01*
X137675629Y-81417138D01*
X137568201Y-81574621D01*
X137513293Y-81619621D01*
X137442768Y-81627792D01*
X137379021Y-81596538D01*
X137358324Y-81572054D01*
X137277822Y-81447617D01*
X137277820Y-81447614D01*
X137275014Y-81443277D01*
X137124670Y-81278051D01*
X137120619Y-81274852D01*
X137120615Y-81274848D01*
X136953414Y-81142800D01*
X136953410Y-81142798D01*
X136949359Y-81139598D01*
X136753789Y-81031638D01*
X136748920Y-81029914D01*
X136748916Y-81029912D01*
X136548087Y-80958795D01*
X136548083Y-80958794D01*
X136543212Y-80957069D01*
X136538119Y-80956162D01*
X136538116Y-80956161D01*
X136328373Y-80918800D01*
X136328367Y-80918799D01*
X136323284Y-80917894D01*
X136249452Y-80916992D01*
X136105081Y-80915228D01*
X136105079Y-80915228D01*
X136099911Y-80915165D01*
X135879091Y-80948955D01*
X135666756Y-81018357D01*
X135468607Y-81121507D01*
X135464474Y-81124610D01*
X135464471Y-81124612D01*
X135374893Y-81191869D01*
X135289965Y-81255635D01*
X135250718Y-81296705D01*
X135196280Y-81353671D01*
X135135629Y-81417138D01*
X135009743Y-81601680D01*
X134962716Y-81702992D01*
X134928136Y-81777489D01*
X134915688Y-81804305D01*
X134855989Y-82019570D01*
X134832251Y-82241695D01*
X134832548Y-82246848D01*
X134832548Y-82246851D01*
X134837963Y-82340757D01*
X134845110Y-82464715D01*
X134846247Y-82469761D01*
X134846248Y-82469767D01*
X134865815Y-82556591D01*
X134894222Y-82682639D01*
X134940040Y-82795475D01*
X134969185Y-82867251D01*
X134978266Y-82889616D01*
X135094987Y-83080088D01*
X135241250Y-83248938D01*
X135413126Y-83391632D01*
X135606000Y-83504338D01*
X135814692Y-83584030D01*
X135819760Y-83585061D01*
X135819763Y-83585062D01*
X135927017Y-83606883D01*
X136033597Y-83628567D01*
X136038771Y-83628757D01*
X136038773Y-83628757D01*
X136106293Y-83631233D01*
X136180649Y-83633959D01*
X136247990Y-83656443D01*
X136292486Y-83711767D01*
X136300008Y-83782364D01*
X136265126Y-83848969D01*
X135454500Y-84659595D01*
X135392188Y-84693621D01*
X135365405Y-84696500D01*
X131989394Y-84696500D01*
X131921273Y-84676498D01*
X131886181Y-84642771D01*
X131779357Y-84490211D01*
X131779355Y-84490208D01*
X131776198Y-84485700D01*
X131614300Y-84323802D01*
X131609792Y-84320645D01*
X131609789Y-84320643D01*
X131483509Y-84232221D01*
X131426749Y-84192477D01*
X131421767Y-84190154D01*
X131421762Y-84190151D01*
X131387543Y-84174195D01*
X131334258Y-84127278D01*
X131314797Y-84059001D01*
X131335339Y-83991041D01*
X131387543Y-83945805D01*
X131421762Y-83929849D01*
X131421767Y-83929846D01*
X131426749Y-83927523D01*
X131585953Y-83816047D01*
X131609789Y-83799357D01*
X131609792Y-83799355D01*
X131614300Y-83796198D01*
X131776198Y-83634300D01*
X131780080Y-83628757D01*
X131865908Y-83506181D01*
X131907523Y-83446749D01*
X131909846Y-83441767D01*
X131909849Y-83441762D01*
X132001961Y-83244225D01*
X132001961Y-83244224D01*
X132004284Y-83239243D01*
X132019221Y-83183500D01*
X132062119Y-83023402D01*
X132062119Y-83023400D01*
X132063543Y-83018087D01*
X132083498Y-82790000D01*
X132063543Y-82561913D01*
X132062117Y-82556591D01*
X132005707Y-82346067D01*
X132005706Y-82346065D01*
X132004284Y-82340757D01*
X132001961Y-82335775D01*
X131909849Y-82138238D01*
X131909846Y-82138233D01*
X131907523Y-82133251D01*
X131831519Y-82024707D01*
X131779357Y-81950211D01*
X131779355Y-81950208D01*
X131776198Y-81945700D01*
X131614300Y-81783802D01*
X131609792Y-81780645D01*
X131609789Y-81780643D01*
X131531611Y-81725902D01*
X131426749Y-81652477D01*
X131421767Y-81650154D01*
X131421762Y-81650151D01*
X131387543Y-81634195D01*
X131334258Y-81587278D01*
X131314797Y-81519001D01*
X131335339Y-81451041D01*
X131387543Y-81405805D01*
X131421762Y-81389849D01*
X131421767Y-81389846D01*
X131426749Y-81387523D01*
X131609766Y-81259373D01*
X131609789Y-81259357D01*
X131609792Y-81259355D01*
X131614300Y-81256198D01*
X131776198Y-81094300D01*
X131802766Y-81056358D01*
X131856392Y-80979771D01*
X131907523Y-80906749D01*
X131909846Y-80901767D01*
X131909849Y-80901762D01*
X132001961Y-80704225D01*
X132001961Y-80704224D01*
X132004284Y-80699243D01*
X132063543Y-80478087D01*
X132083498Y-80250000D01*
X132063543Y-80021913D01*
X132050596Y-79973593D01*
X132005707Y-79806067D01*
X132005706Y-79806065D01*
X132004284Y-79800757D01*
X132001961Y-79795775D01*
X131909849Y-79598238D01*
X131909846Y-79598233D01*
X131907523Y-79593251D01*
X131834098Y-79488389D01*
X131779357Y-79410211D01*
X131779355Y-79410208D01*
X131776198Y-79405700D01*
X131614300Y-79243802D01*
X131609792Y-79240645D01*
X131609789Y-79240643D01*
X131457229Y-79133819D01*
X131412901Y-79078362D01*
X131403500Y-79030606D01*
X131403500Y-74833767D01*
X131404027Y-74822584D01*
X131405702Y-74815091D01*
X131403562Y-74747014D01*
X131403500Y-74743055D01*
X131403500Y-74715144D01*
X131402995Y-74711144D01*
X131402062Y-74699301D01*
X131400922Y-74663029D01*
X131400673Y-74655110D01*
X131395022Y-74635658D01*
X131391014Y-74616306D01*
X131389467Y-74604063D01*
X131388474Y-74596203D01*
X131381389Y-74578307D01*
X131372200Y-74555097D01*
X131368355Y-74543870D01*
X131366950Y-74539034D01*
X131356018Y-74501407D01*
X131351984Y-74494585D01*
X131351981Y-74494579D01*
X131345706Y-74483968D01*
X131337010Y-74466218D01*
X131332472Y-74454756D01*
X131332469Y-74454751D01*
X131329552Y-74447383D01*
X131303573Y-74411625D01*
X131297057Y-74401707D01*
X131278575Y-74370457D01*
X131274542Y-74363637D01*
X131260218Y-74349313D01*
X131247376Y-74334278D01*
X131246082Y-74332497D01*
X131235472Y-74317893D01*
X131201406Y-74289711D01*
X131192627Y-74281722D01*
X130910405Y-73999500D01*
X130876379Y-73937188D01*
X130873500Y-73910405D01*
X130873500Y-71755427D01*
X130893502Y-71687306D01*
X130934618Y-71647550D01*
X130937994Y-71645896D01*
X131119860Y-71516173D01*
X131278096Y-71358489D01*
X131357941Y-71247373D01*
X131408453Y-71177077D01*
X131409776Y-71178028D01*
X131456645Y-71134857D01*
X131526580Y-71122625D01*
X131592026Y-71150144D01*
X131619875Y-71181994D01*
X131679987Y-71280088D01*
X131826250Y-71448938D01*
X131998126Y-71591632D01*
X132191000Y-71704338D01*
X132399692Y-71784030D01*
X132404760Y-71785061D01*
X132404763Y-71785062D01*
X132499862Y-71804410D01*
X132618597Y-71828567D01*
X132623772Y-71828757D01*
X132623774Y-71828757D01*
X132836673Y-71836564D01*
X132836677Y-71836564D01*
X132841837Y-71836753D01*
X132846957Y-71836097D01*
X132846959Y-71836097D01*
X133058288Y-71809025D01*
X133058289Y-71809025D01*
X133063416Y-71808368D01*
X133068366Y-71806883D01*
X133272429Y-71745661D01*
X133272434Y-71745659D01*
X133277384Y-71744174D01*
X133477994Y-71645896D01*
X133659860Y-71516173D01*
X133818096Y-71358489D01*
X133897941Y-71247373D01*
X133948453Y-71177077D01*
X133949640Y-71177930D01*
X133996960Y-71134362D01*
X134066897Y-71122145D01*
X134132338Y-71149678D01*
X134160166Y-71181511D01*
X134217694Y-71275388D01*
X134223777Y-71283699D01*
X134363213Y-71444667D01*
X134370580Y-71451883D01*
X134534434Y-71587916D01*
X134542881Y-71593831D01*
X134726756Y-71701279D01*
X134736042Y-71705729D01*
X134935001Y-71781703D01*
X134944899Y-71784579D01*
X135048250Y-71805606D01*
X135062299Y-71804410D01*
X135066000Y-71794065D01*
X135066000Y-71793517D01*
X135574000Y-71793517D01*
X135578064Y-71807359D01*
X135591478Y-71809393D01*
X135598184Y-71808534D01*
X135608262Y-71806392D01*
X135812255Y-71745191D01*
X135821842Y-71741433D01*
X136013095Y-71647739D01*
X136021945Y-71642464D01*
X136195328Y-71518792D01*
X136203200Y-71512139D01*
X136354052Y-71361812D01*
X136360730Y-71353965D01*
X136485003Y-71181020D01*
X136490313Y-71172183D01*
X136584670Y-70981267D01*
X136588469Y-70971672D01*
X136650377Y-70767910D01*
X136652555Y-70757837D01*
X136653986Y-70746962D01*
X136651775Y-70732778D01*
X136638617Y-70729000D01*
X135592115Y-70729000D01*
X135576876Y-70733475D01*
X135575671Y-70734865D01*
X135574000Y-70742548D01*
X135574000Y-71793517D01*
X135066000Y-71793517D01*
X135066000Y-70202885D01*
X135574000Y-70202885D01*
X135578475Y-70218124D01*
X135579865Y-70219329D01*
X135587548Y-70221000D01*
X136638344Y-70221000D01*
X136651875Y-70217027D01*
X136653180Y-70207947D01*
X136611214Y-70040875D01*
X136607894Y-70031124D01*
X136522972Y-69835814D01*
X136518105Y-69826739D01*
X136402426Y-69647926D01*
X136396136Y-69639757D01*
X136252806Y-69482240D01*
X136245273Y-69475215D01*
X136078139Y-69343222D01*
X136069552Y-69337517D01*
X135883117Y-69234599D01*
X135873705Y-69230369D01*
X135672959Y-69159280D01*
X135662988Y-69156646D01*
X135591837Y-69143972D01*
X135578540Y-69145432D01*
X135574000Y-69159989D01*
X135574000Y-70202885D01*
X135066000Y-70202885D01*
X135066000Y-69158102D01*
X135062082Y-69144758D01*
X135047806Y-69142771D01*
X135009324Y-69148660D01*
X134999288Y-69151051D01*
X134796868Y-69217212D01*
X134787359Y-69221209D01*
X134598463Y-69319542D01*
X134589738Y-69325036D01*
X134419433Y-69452905D01*
X134411726Y-69459748D01*
X134264590Y-69613717D01*
X134258109Y-69621722D01*
X134153498Y-69775074D01*
X134098587Y-69820076D01*
X134028062Y-69828247D01*
X133964315Y-69796993D01*
X133943618Y-69772509D01*
X133862822Y-69647617D01*
X133862820Y-69647614D01*
X133860014Y-69643277D01*
X133709670Y-69478051D01*
X133705619Y-69474852D01*
X133705615Y-69474848D01*
X133538414Y-69342800D01*
X133538410Y-69342798D01*
X133534359Y-69339598D01*
X133498028Y-69319542D01*
X133482136Y-69310769D01*
X133338789Y-69231638D01*
X133333920Y-69229914D01*
X133333916Y-69229912D01*
X133133087Y-69158795D01*
X133133083Y-69158794D01*
X133128212Y-69157069D01*
X133123119Y-69156162D01*
X133123116Y-69156161D01*
X132913373Y-69118800D01*
X132913367Y-69118799D01*
X132908284Y-69117894D01*
X132834452Y-69116992D01*
X132690081Y-69115228D01*
X132690079Y-69115228D01*
X132684911Y-69115165D01*
X132464091Y-69148955D01*
X132251756Y-69218357D01*
X132053607Y-69321507D01*
X132049474Y-69324610D01*
X132049471Y-69324612D01*
X131879100Y-69452530D01*
X131874965Y-69455635D01*
X131871393Y-69459373D01*
X131760930Y-69574966D01*
X131720629Y-69617138D01*
X131613201Y-69774621D01*
X131558293Y-69819621D01*
X131487768Y-69827792D01*
X131424021Y-69796538D01*
X131403324Y-69772054D01*
X131322822Y-69647617D01*
X131322820Y-69647614D01*
X131320014Y-69643277D01*
X131169670Y-69478051D01*
X131165619Y-69474852D01*
X131165615Y-69474848D01*
X130998414Y-69342800D01*
X130998410Y-69342798D01*
X130994359Y-69339598D01*
X130958028Y-69319542D01*
X130942136Y-69310769D01*
X130798789Y-69231638D01*
X130793920Y-69229914D01*
X130793916Y-69229912D01*
X130593087Y-69158795D01*
X130593083Y-69158794D01*
X130588212Y-69157069D01*
X130583119Y-69156162D01*
X130583116Y-69156161D01*
X130373373Y-69118800D01*
X130373367Y-69118799D01*
X130368284Y-69117894D01*
X130294452Y-69116992D01*
X130150081Y-69115228D01*
X130150079Y-69115228D01*
X130144911Y-69115165D01*
X129924091Y-69148955D01*
X129711756Y-69218357D01*
X129513607Y-69321507D01*
X129509474Y-69324610D01*
X129509471Y-69324612D01*
X129339100Y-69452530D01*
X129334965Y-69455635D01*
X129278537Y-69514684D01*
X129254283Y-69540064D01*
X129192759Y-69575494D01*
X129121846Y-69572037D01*
X129064060Y-69530791D01*
X129045207Y-69497243D01*
X129003767Y-69386703D01*
X129000615Y-69378295D01*
X128913261Y-69261739D01*
X128796705Y-69174385D01*
X128660316Y-69123255D01*
X128598134Y-69116500D01*
X126801866Y-69116500D01*
X126739684Y-69123255D01*
X126603295Y-69174385D01*
X126486739Y-69261739D01*
X126399385Y-69378295D01*
X126348255Y-69514684D01*
X126341500Y-69576866D01*
X126341500Y-71373134D01*
X104930299Y-71373134D01*
X104930164Y-71299015D01*
X104931664Y-71279400D01*
X104933883Y-71265151D01*
X104933883Y-71265148D01*
X104935264Y-71256279D01*
X104934100Y-71247377D01*
X104934100Y-71247373D01*
X104932604Y-71235936D01*
X104931663Y-71214033D01*
X104946975Y-70867719D01*
X104947957Y-70856634D01*
X104997791Y-70482847D01*
X104999748Y-70471891D01*
X105082366Y-70103975D01*
X105085281Y-70093235D01*
X105200046Y-69734033D01*
X105203898Y-69723591D01*
X105349912Y-69375917D01*
X105354670Y-69365857D01*
X105530792Y-69032424D01*
X105536420Y-69022822D01*
X105741278Y-68706230D01*
X105747731Y-68697163D01*
X105824491Y-68598802D01*
X105979723Y-68399887D01*
X105986936Y-68391440D01*
X106130134Y-68238043D01*
X106244273Y-68115775D01*
X106252220Y-68107983D01*
X106532854Y-67856122D01*
X106541456Y-67849062D01*
X106843230Y-67622939D01*
X106852423Y-67616665D01*
X107172967Y-67418056D01*
X107182677Y-67412618D01*
X107305868Y-67350606D01*
X107519498Y-67243068D01*
X107529644Y-67238510D01*
X107880125Y-67099337D01*
X107890619Y-67095698D01*
X108252014Y-66987995D01*
X108262810Y-66985291D01*
X108632286Y-66909900D01*
X108643278Y-66908159D01*
X108756424Y-66895327D01*
X109017960Y-66865665D01*
X109029054Y-66864900D01*
X109156273Y-66861773D01*
X109368166Y-66856565D01*
X109393081Y-66858431D01*
X109396383Y-66859012D01*
X109396395Y-66859012D01*
X109405229Y-66860566D01*
X109424485Y-66858431D01*
X109444130Y-66856253D01*
X109457620Y-66855487D01*
X126773114Y-66801252D01*
X140372807Y-66758655D01*
X140392581Y-66760154D01*
G37*
%TD.AperFunction*%
%TD*%
M02*
