%TF.GenerationSoftware,KiCad,Pcbnew,(6.0.7-1)-1*%
%TF.CreationDate,2023-03-08T09:28:20-05:00*%
%TF.ProjectId,pcb,7063622e-6b69-4636-9164-5f7063625858,rev?*%
%TF.SameCoordinates,Original*%
%TF.FileFunction,Paste,Top*%
%TF.FilePolarity,Positive*%
%FSLAX46Y46*%
G04 Gerber Fmt 4.6, Leading zero omitted, Abs format (unit mm)*
G04 Created by KiCad (PCBNEW (6.0.7-1)-1) date 2023-03-08 09:28:20*
%MOMM*%
%LPD*%
G01*
G04 APERTURE LIST*
G04 Aperture macros list*
%AMRoundRect*
0 Rectangle with rounded corners*
0 $1 Rounding radius*
0 $2 $3 $4 $5 $6 $7 $8 $9 X,Y pos of 4 corners*
0 Add a 4 corners polygon primitive as box body*
4,1,4,$2,$3,$4,$5,$6,$7,$8,$9,$2,$3,0*
0 Add four circle primitives for the rounded corners*
1,1,$1+$1,$2,$3*
1,1,$1+$1,$4,$5*
1,1,$1+$1,$6,$7*
1,1,$1+$1,$8,$9*
0 Add four rect primitives between the rounded corners*
20,1,$1+$1,$2,$3,$4,$5,0*
20,1,$1+$1,$4,$5,$6,$7,0*
20,1,$1+$1,$6,$7,$8,$9,0*
20,1,$1+$1,$8,$9,$2,$3,0*%
G04 Aperture macros list end*
%ADD10C,0.100000*%
%ADD11RoundRect,0.250000X-0.625000X0.312500X-0.625000X-0.312500X0.625000X-0.312500X0.625000X0.312500X0*%
%ADD12RoundRect,0.250000X-0.325000X-0.650000X0.325000X-0.650000X0.325000X0.650000X-0.325000X0.650000X0*%
%ADD13RoundRect,0.150000X-0.825000X-0.150000X0.825000X-0.150000X0.825000X0.150000X-0.825000X0.150000X0*%
%ADD14R,0.900000X1.200000*%
%ADD15R,1.333500X0.431800*%
%ADD16R,2.500000X2.300000*%
%ADD17R,2.300000X2.500000*%
%ADD18RoundRect,0.250000X0.700000X-0.275000X0.700000X0.275000X-0.700000X0.275000X-0.700000X-0.275000X0*%
%ADD19R,1.400000X1.200000*%
%ADD20RoundRect,0.150000X-0.875000X-0.150000X0.875000X-0.150000X0.875000X0.150000X-0.875000X0.150000X0*%
%ADD21RoundRect,0.250000X-0.275000X-0.700000X0.275000X-0.700000X0.275000X0.700000X-0.275000X0.700000X0*%
%ADD22RoundRect,0.250000X-0.312500X-0.625000X0.312500X-0.625000X0.312500X0.625000X-0.312500X0.625000X0*%
%ADD23RoundRect,0.250000X0.625000X-0.312500X0.625000X0.312500X-0.625000X0.312500X-0.625000X-0.312500X0*%
%ADD24RoundRect,0.250000X0.312500X0.625000X-0.312500X0.625000X-0.312500X-0.625000X0.312500X-0.625000X0*%
%ADD25RoundRect,0.250000X-0.625000X0.375000X-0.625000X-0.375000X0.625000X-0.375000X0.625000X0.375000X0*%
%ADD26RoundRect,0.250000X-0.650000X0.325000X-0.650000X-0.325000X0.650000X-0.325000X0.650000X0.325000X0*%
%ADD27RoundRect,0.250000X0.325000X0.650000X-0.325000X0.650000X-0.325000X-0.650000X0.325000X-0.650000X0*%
%ADD28R,1.800000X2.500000*%
G04 APERTURE END LIST*
%TO.C,U3*%
G36*
X119576300Y-90200000D02*
G01*
X118023700Y-90200000D01*
X118023700Y-88926800D01*
X119576300Y-88926800D01*
X119576300Y-90200000D01*
G37*
D10*
X119576300Y-90200000D02*
X118023700Y-90200000D01*
X118023700Y-88926800D01*
X119576300Y-88926800D01*
X119576300Y-90200000D01*
G36*
X119576300Y-91673200D02*
G01*
X118023700Y-91673200D01*
X118023700Y-90400000D01*
X119576300Y-90400000D01*
X119576300Y-91673200D01*
G37*
X119576300Y-91673200D02*
X118023700Y-91673200D01*
X118023700Y-90400000D01*
X119576300Y-90400000D01*
X119576300Y-91673200D01*
%TD*%
D11*
%TO.C,R11*%
X120500000Y-112637500D03*
X120500000Y-115562500D03*
%TD*%
D12*
%TO.C,C13*%
X114725000Y-116200000D03*
X117675000Y-116200000D03*
%TD*%
D13*
%TO.C,U4*%
X112660000Y-119060000D03*
X112660000Y-120330000D03*
X112660000Y-121600000D03*
X112660000Y-122870000D03*
X117610000Y-122870000D03*
X117610000Y-121600000D03*
X117610000Y-120330000D03*
X117610000Y-119060000D03*
%TD*%
D14*
%TO.C,D7*%
X121750000Y-118100000D03*
X125050000Y-118100000D03*
%TD*%
D12*
%TO.C,C4*%
X125225000Y-108300000D03*
X128175000Y-108300000D03*
%TD*%
D15*
%TO.C,U3*%
X116583850Y-88674400D03*
X116583850Y-89324640D03*
X116583850Y-89974880D03*
X116583850Y-90625120D03*
X116583850Y-91275360D03*
X116583850Y-91925600D03*
X121016150Y-91925600D03*
X121016150Y-91275360D03*
X121016150Y-90625120D03*
X121016150Y-89974880D03*
X121016150Y-89324640D03*
X121016150Y-88674400D03*
%TD*%
D12*
%TO.C,C8*%
X116325000Y-85300000D03*
X119275000Y-85300000D03*
%TD*%
D16*
%TO.C,D3*%
X123850000Y-82200000D03*
X128150000Y-82200000D03*
%TD*%
D17*
%TO.C,D5*%
X110900000Y-90650000D03*
X110900000Y-86350000D03*
%TD*%
D18*
%TO.C,L2*%
X127900000Y-90150000D03*
X127900000Y-87000000D03*
%TD*%
D19*
%TO.C,Y1*%
X133000000Y-109150000D03*
X130800000Y-109150000D03*
X130800000Y-110850000D03*
X133000000Y-110850000D03*
%TD*%
D20*
%TO.C,U2*%
X123425000Y-128990000D03*
X123425000Y-130260000D03*
X123425000Y-131530000D03*
X123425000Y-132800000D03*
X123425000Y-134070000D03*
X123425000Y-135340000D03*
X123425000Y-136610000D03*
X132725000Y-136610000D03*
X132725000Y-135340000D03*
X132725000Y-134070000D03*
X132725000Y-132800000D03*
X132725000Y-131530000D03*
X132725000Y-130260000D03*
X132725000Y-128990000D03*
%TD*%
D21*
%TO.C,L1*%
X136500000Y-129800000D03*
X139650000Y-129800000D03*
%TD*%
D22*
%TO.C,R2*%
X143850000Y-133300000D03*
X146775000Y-133300000D03*
%TD*%
D12*
%TO.C,C5*%
X125025000Y-112500000D03*
X127975000Y-112500000D03*
%TD*%
D23*
%TO.C,R8*%
X128600000Y-118762500D03*
X128600000Y-115837500D03*
%TD*%
D11*
%TO.C,R5*%
X127800000Y-93875000D03*
X127800000Y-96800000D03*
%TD*%
D24*
%TO.C,R6*%
X114262500Y-125500000D03*
X111337500Y-125500000D03*
%TD*%
D12*
%TO.C,C6*%
X136500000Y-133100000D03*
X139450000Y-133100000D03*
%TD*%
D25*
%TO.C,D1*%
X116000000Y-100600000D03*
X116000000Y-103400000D03*
%TD*%
D26*
%TO.C,C9*%
X124200000Y-86825000D03*
X124200000Y-89775000D03*
%TD*%
D27*
%TO.C,C12*%
X154750000Y-91300000D03*
X151800000Y-91300000D03*
%TD*%
D12*
%TO.C,C2*%
X146925000Y-105400000D03*
X149875000Y-105400000D03*
%TD*%
D24*
%TO.C,R10*%
X149062500Y-91100000D03*
X146137500Y-91100000D03*
%TD*%
D12*
%TO.C,C7*%
X143825000Y-130700000D03*
X146775000Y-130700000D03*
%TD*%
D23*
%TO.C,R4*%
X112200000Y-97100000D03*
X112200000Y-94175000D03*
%TD*%
D26*
%TO.C,C1*%
X132400000Y-103725000D03*
X132400000Y-106675000D03*
%TD*%
D23*
%TO.C,R7*%
X110100000Y-129575000D03*
X110100000Y-132500000D03*
%TD*%
D25*
%TO.C,D2*%
X112000000Y-100300000D03*
X112000000Y-103100000D03*
%TD*%
D22*
%TO.C,R1*%
X143750000Y-135900000D03*
X146675000Y-135900000D03*
%TD*%
D27*
%TO.C,C3*%
X149875000Y-108000000D03*
X146925000Y-108000000D03*
%TD*%
D12*
%TO.C,C11*%
X124775000Y-125400000D03*
X121825000Y-125400000D03*
%TD*%
D28*
%TO.C,D6*%
X151700000Y-124800000D03*
X151700000Y-120800000D03*
%TD*%
D24*
%TO.C,R9*%
X124962500Y-122100000D03*
X122037500Y-122100000D03*
%TD*%
D26*
%TO.C,C10*%
X128300000Y-102525000D03*
X128300000Y-105475000D03*
%TD*%
D28*
%TO.C,D4*%
X124200000Y-93100000D03*
X124200000Y-97100000D03*
%TD*%
D23*
%TO.C,R3*%
X116100000Y-97200000D03*
X116100000Y-94275000D03*
%TD*%
M02*
