%TF.GenerationSoftware,KiCad,Pcbnew,(6.0.7-1)-1*%
%TF.CreationDate,2023-03-08T09:28:20-05:00*%
%TF.ProjectId,pcb,7063622e-6b69-4636-9164-5f7063625858,rev?*%
%TF.SameCoordinates,Original*%
%TF.FileFunction,Legend,Top*%
%TF.FilePolarity,Positive*%
%FSLAX46Y46*%
G04 Gerber Fmt 4.6, Leading zero omitted, Abs format (unit mm)*
G04 Created by KiCad (PCBNEW (6.0.7-1)-1) date 2023-03-08 09:28:20*
%MOMM*%
%LPD*%
G01*
G04 APERTURE LIST*
%ADD10C,0.150000*%
%ADD11C,0.120000*%
%ADD12C,0.100000*%
G04 APERTURE END LIST*
D10*
%TO.C,R11*%
X122772380Y-114742857D02*
X122296190Y-115076190D01*
X122772380Y-115314285D02*
X121772380Y-115314285D01*
X121772380Y-114933333D01*
X121820000Y-114838095D01*
X121867619Y-114790476D01*
X121962857Y-114742857D01*
X122105714Y-114742857D01*
X122200952Y-114790476D01*
X122248571Y-114838095D01*
X122296190Y-114933333D01*
X122296190Y-115314285D01*
X122772380Y-113790476D02*
X122772380Y-114361904D01*
X122772380Y-114076190D02*
X121772380Y-114076190D01*
X121915238Y-114171428D01*
X122010476Y-114266666D01*
X122058095Y-114361904D01*
X122772380Y-112838095D02*
X122772380Y-113409523D01*
X122772380Y-113123809D02*
X121772380Y-113123809D01*
X121915238Y-113219047D01*
X122010476Y-113314285D01*
X122058095Y-113409523D01*
%TO.C,C13*%
X111657142Y-116557142D02*
X111609523Y-116604761D01*
X111466666Y-116652380D01*
X111371428Y-116652380D01*
X111228571Y-116604761D01*
X111133333Y-116509523D01*
X111085714Y-116414285D01*
X111038095Y-116223809D01*
X111038095Y-116080952D01*
X111085714Y-115890476D01*
X111133333Y-115795238D01*
X111228571Y-115700000D01*
X111371428Y-115652380D01*
X111466666Y-115652380D01*
X111609523Y-115700000D01*
X111657142Y-115747619D01*
X112609523Y-116652380D02*
X112038095Y-116652380D01*
X112323809Y-116652380D02*
X112323809Y-115652380D01*
X112228571Y-115795238D01*
X112133333Y-115890476D01*
X112038095Y-115938095D01*
X112942857Y-115652380D02*
X113561904Y-115652380D01*
X113228571Y-116033333D01*
X113371428Y-116033333D01*
X113466666Y-116080952D01*
X113514285Y-116128571D01*
X113561904Y-116223809D01*
X113561904Y-116461904D01*
X113514285Y-116557142D01*
X113466666Y-116604761D01*
X113371428Y-116652380D01*
X113085714Y-116652380D01*
X112990476Y-116604761D01*
X112942857Y-116557142D01*
%TO.C,U4*%
X114473095Y-121517380D02*
X114473095Y-122326904D01*
X114520714Y-122422142D01*
X114568333Y-122469761D01*
X114663571Y-122517380D01*
X114854047Y-122517380D01*
X114949285Y-122469761D01*
X114996904Y-122422142D01*
X115044523Y-122326904D01*
X115044523Y-121517380D01*
X115949285Y-121850714D02*
X115949285Y-122517380D01*
X115711190Y-121469761D02*
X115473095Y-122184047D01*
X116092142Y-122184047D01*
%TO.C,J9*%
X151366666Y-128282380D02*
X151366666Y-128996666D01*
X151319047Y-129139523D01*
X151223809Y-129234761D01*
X151080952Y-129282380D01*
X150985714Y-129282380D01*
X151890476Y-129282380D02*
X152080952Y-129282380D01*
X152176190Y-129234761D01*
X152223809Y-129187142D01*
X152319047Y-129044285D01*
X152366666Y-128853809D01*
X152366666Y-128472857D01*
X152319047Y-128377619D01*
X152271428Y-128330000D01*
X152176190Y-128282380D01*
X151985714Y-128282380D01*
X151890476Y-128330000D01*
X151842857Y-128377619D01*
X151795238Y-128472857D01*
X151795238Y-128710952D01*
X151842857Y-128806190D01*
X151890476Y-128853809D01*
X151985714Y-128901428D01*
X152176190Y-128901428D01*
X152271428Y-128853809D01*
X152319047Y-128806190D01*
X152366666Y-128710952D01*
%TO.C,D7*%
X122661904Y-116752380D02*
X122661904Y-115752380D01*
X122900000Y-115752380D01*
X123042857Y-115800000D01*
X123138095Y-115895238D01*
X123185714Y-115990476D01*
X123233333Y-116180952D01*
X123233333Y-116323809D01*
X123185714Y-116514285D01*
X123138095Y-116609523D01*
X123042857Y-116704761D01*
X122900000Y-116752380D01*
X122661904Y-116752380D01*
X123566666Y-115752380D02*
X124233333Y-115752380D01*
X123804761Y-116752380D01*
%TO.C,C4*%
X123233333Y-108657142D02*
X123185714Y-108704761D01*
X123042857Y-108752380D01*
X122947619Y-108752380D01*
X122804761Y-108704761D01*
X122709523Y-108609523D01*
X122661904Y-108514285D01*
X122614285Y-108323809D01*
X122614285Y-108180952D01*
X122661904Y-107990476D01*
X122709523Y-107895238D01*
X122804761Y-107800000D01*
X122947619Y-107752380D01*
X123042857Y-107752380D01*
X123185714Y-107800000D01*
X123233333Y-107847619D01*
X124090476Y-108085714D02*
X124090476Y-108752380D01*
X123852380Y-107704761D02*
X123614285Y-108419047D01*
X124233333Y-108419047D01*
%TO.C,U3*%
X117938095Y-86952380D02*
X117938095Y-87761904D01*
X117985714Y-87857142D01*
X118033333Y-87904761D01*
X118128571Y-87952380D01*
X118319047Y-87952380D01*
X118414285Y-87904761D01*
X118461904Y-87857142D01*
X118509523Y-87761904D01*
X118509523Y-86952380D01*
X118890476Y-86952380D02*
X119509523Y-86952380D01*
X119176190Y-87333333D01*
X119319047Y-87333333D01*
X119414285Y-87380952D01*
X119461904Y-87428571D01*
X119509523Y-87523809D01*
X119509523Y-87761904D01*
X119461904Y-87857142D01*
X119414285Y-87904761D01*
X119319047Y-87952380D01*
X119033333Y-87952380D01*
X118938095Y-87904761D01*
X118890476Y-87857142D01*
X114914285Y-77052380D02*
X114438095Y-77052380D01*
X114438095Y-76052380D01*
X115104761Y-76052380D02*
X115676190Y-76052380D01*
X115390476Y-77052380D02*
X115390476Y-76052380D01*
X115914285Y-76052380D02*
X116533333Y-76052380D01*
X116200000Y-76433333D01*
X116342857Y-76433333D01*
X116438095Y-76480952D01*
X116485714Y-76528571D01*
X116533333Y-76623809D01*
X116533333Y-76861904D01*
X116485714Y-76957142D01*
X116438095Y-77004761D01*
X116342857Y-77052380D01*
X116057142Y-77052380D01*
X115961904Y-77004761D01*
X115914285Y-76957142D01*
X117390476Y-76052380D02*
X117200000Y-76052380D01*
X117104761Y-76100000D01*
X117057142Y-76147619D01*
X116961904Y-76290476D01*
X116914285Y-76480952D01*
X116914285Y-76861904D01*
X116961904Y-76957142D01*
X117009523Y-77004761D01*
X117104761Y-77052380D01*
X117295238Y-77052380D01*
X117390476Y-77004761D01*
X117438095Y-76957142D01*
X117485714Y-76861904D01*
X117485714Y-76623809D01*
X117438095Y-76528571D01*
X117390476Y-76480952D01*
X117295238Y-76433333D01*
X117104761Y-76433333D01*
X117009523Y-76480952D01*
X116961904Y-76528571D01*
X116914285Y-76623809D01*
X118390476Y-76052380D02*
X117914285Y-76052380D01*
X117866666Y-76528571D01*
X117914285Y-76480952D01*
X118009523Y-76433333D01*
X118247619Y-76433333D01*
X118342857Y-76480952D01*
X118390476Y-76528571D01*
X118438095Y-76623809D01*
X118438095Y-76861904D01*
X118390476Y-76957142D01*
X118342857Y-77004761D01*
X118247619Y-77052380D01*
X118009523Y-77052380D01*
X117914285Y-77004761D01*
X117866666Y-76957142D01*
X119057142Y-76052380D02*
X119152380Y-76052380D01*
X119247619Y-76100000D01*
X119295238Y-76147619D01*
X119342857Y-76242857D01*
X119390476Y-76433333D01*
X119390476Y-76671428D01*
X119342857Y-76861904D01*
X119295238Y-76957142D01*
X119247619Y-77004761D01*
X119152380Y-77052380D01*
X119057142Y-77052380D01*
X118961904Y-77004761D01*
X118914285Y-76957142D01*
X118866666Y-76861904D01*
X118819047Y-76671428D01*
X118819047Y-76433333D01*
X118866666Y-76242857D01*
X118914285Y-76147619D01*
X118961904Y-76100000D01*
X119057142Y-76052380D01*
X119819047Y-76528571D02*
X120152380Y-76528571D01*
X120295238Y-77052380D02*
X119819047Y-77052380D01*
X119819047Y-76052380D01*
X120295238Y-76052380D01*
X120723809Y-77052380D02*
X120723809Y-76052380D01*
X121057142Y-76766666D01*
X121390476Y-76052380D01*
X121390476Y-77052380D01*
X121819047Y-77004761D02*
X121961904Y-77052380D01*
X122200000Y-77052380D01*
X122295238Y-77004761D01*
X122342857Y-76957142D01*
X122390476Y-76861904D01*
X122390476Y-76766666D01*
X122342857Y-76671428D01*
X122295238Y-76623809D01*
X122200000Y-76576190D01*
X122009523Y-76528571D01*
X121914285Y-76480952D01*
X121866666Y-76433333D01*
X121819047Y-76338095D01*
X121819047Y-76242857D01*
X121866666Y-76147619D01*
X121914285Y-76100000D01*
X122009523Y-76052380D01*
X122247619Y-76052380D01*
X122390476Y-76100000D01*
X122819047Y-76528571D02*
X123152380Y-76528571D01*
X123295238Y-77052380D02*
X122819047Y-77052380D01*
X122819047Y-76052380D01*
X123295238Y-76052380D01*
X123723809Y-76671428D02*
X124485714Y-76671428D01*
X125104761Y-76480952D02*
X125009523Y-76433333D01*
X124961904Y-76385714D01*
X124914285Y-76290476D01*
X124914285Y-76242857D01*
X124961904Y-76147619D01*
X125009523Y-76100000D01*
X125104761Y-76052380D01*
X125295238Y-76052380D01*
X125390476Y-76100000D01*
X125438095Y-76147619D01*
X125485714Y-76242857D01*
X125485714Y-76290476D01*
X125438095Y-76385714D01*
X125390476Y-76433333D01*
X125295238Y-76480952D01*
X125104761Y-76480952D01*
X125009523Y-76528571D01*
X124961904Y-76576190D01*
X124914285Y-76671428D01*
X124914285Y-76861904D01*
X124961904Y-76957142D01*
X125009523Y-77004761D01*
X125104761Y-77052380D01*
X125295238Y-77052380D01*
X125390476Y-77004761D01*
X125438095Y-76957142D01*
X125485714Y-76861904D01*
X125485714Y-76671428D01*
X125438095Y-76576190D01*
X125390476Y-76528571D01*
X125295238Y-76480952D01*
X125914285Y-76957142D02*
X125961904Y-77004761D01*
X125914285Y-77052380D01*
X125866666Y-77004761D01*
X125914285Y-76957142D01*
X125914285Y-77052380D01*
X126819047Y-76385714D02*
X126819047Y-77052380D01*
X126580952Y-76004761D02*
X126342857Y-76719047D01*
X126961904Y-76719047D01*
X127342857Y-76671428D02*
X128104761Y-76671428D01*
X128580952Y-77052380D02*
X128580952Y-76052380D01*
X128961904Y-76052380D01*
X129057142Y-76100000D01*
X129104761Y-76147619D01*
X129152380Y-76242857D01*
X129152380Y-76385714D01*
X129104761Y-76480952D01*
X129057142Y-76528571D01*
X128961904Y-76576190D01*
X128580952Y-76576190D01*
X129914285Y-76528571D02*
X130057142Y-76576190D01*
X130104761Y-76623809D01*
X130152380Y-76719047D01*
X130152380Y-76861904D01*
X130104761Y-76957142D01*
X130057142Y-77004761D01*
X129961904Y-77052380D01*
X129580952Y-77052380D01*
X129580952Y-76052380D01*
X129914285Y-76052380D01*
X130009523Y-76100000D01*
X130057142Y-76147619D01*
X130104761Y-76242857D01*
X130104761Y-76338095D01*
X130057142Y-76433333D01*
X130009523Y-76480952D01*
X129914285Y-76528571D01*
X129580952Y-76528571D01*
X130914285Y-76528571D02*
X130580952Y-76528571D01*
X130580952Y-77052380D02*
X130580952Y-76052380D01*
X131057142Y-76052380D01*
X117300000Y-87152380D02*
X117300000Y-87390476D01*
X117061904Y-87295238D02*
X117300000Y-87390476D01*
X117538095Y-87295238D01*
X117157142Y-87580952D02*
X117300000Y-87390476D01*
X117442857Y-87580952D01*
%TO.C,C8*%
X117633333Y-83807142D02*
X117585714Y-83854761D01*
X117442857Y-83902380D01*
X117347619Y-83902380D01*
X117204761Y-83854761D01*
X117109523Y-83759523D01*
X117061904Y-83664285D01*
X117014285Y-83473809D01*
X117014285Y-83330952D01*
X117061904Y-83140476D01*
X117109523Y-83045238D01*
X117204761Y-82950000D01*
X117347619Y-82902380D01*
X117442857Y-82902380D01*
X117585714Y-82950000D01*
X117633333Y-82997619D01*
X118204761Y-83330952D02*
X118109523Y-83283333D01*
X118061904Y-83235714D01*
X118014285Y-83140476D01*
X118014285Y-83092857D01*
X118061904Y-82997619D01*
X118109523Y-82950000D01*
X118204761Y-82902380D01*
X118395238Y-82902380D01*
X118490476Y-82950000D01*
X118538095Y-82997619D01*
X118585714Y-83092857D01*
X118585714Y-83140476D01*
X118538095Y-83235714D01*
X118490476Y-83283333D01*
X118395238Y-83330952D01*
X118204761Y-83330952D01*
X118109523Y-83378571D01*
X118061904Y-83426190D01*
X118014285Y-83521428D01*
X118014285Y-83711904D01*
X118061904Y-83807142D01*
X118109523Y-83854761D01*
X118204761Y-83902380D01*
X118395238Y-83902380D01*
X118490476Y-83854761D01*
X118538095Y-83807142D01*
X118585714Y-83711904D01*
X118585714Y-83521428D01*
X118538095Y-83426190D01*
X118490476Y-83378571D01*
X118395238Y-83330952D01*
%TO.C,D3*%
X125261904Y-79652380D02*
X125261904Y-78652380D01*
X125500000Y-78652380D01*
X125642857Y-78700000D01*
X125738095Y-78795238D01*
X125785714Y-78890476D01*
X125833333Y-79080952D01*
X125833333Y-79223809D01*
X125785714Y-79414285D01*
X125738095Y-79509523D01*
X125642857Y-79604761D01*
X125500000Y-79652380D01*
X125261904Y-79652380D01*
X126166666Y-78652380D02*
X126785714Y-78652380D01*
X126452380Y-79033333D01*
X126595238Y-79033333D01*
X126690476Y-79080952D01*
X126738095Y-79128571D01*
X126785714Y-79223809D01*
X126785714Y-79461904D01*
X126738095Y-79557142D01*
X126690476Y-79604761D01*
X126595238Y-79652380D01*
X126309523Y-79652380D01*
X126214285Y-79604761D01*
X126166666Y-79557142D01*
%TO.C,D5*%
X108352380Y-89238095D02*
X107352380Y-89238095D01*
X107352380Y-89000000D01*
X107400000Y-88857142D01*
X107495238Y-88761904D01*
X107590476Y-88714285D01*
X107780952Y-88666666D01*
X107923809Y-88666666D01*
X108114285Y-88714285D01*
X108209523Y-88761904D01*
X108304761Y-88857142D01*
X108352380Y-89000000D01*
X108352380Y-89238095D01*
X107352380Y-87761904D02*
X107352380Y-88238095D01*
X107828571Y-88285714D01*
X107780952Y-88238095D01*
X107733333Y-88142857D01*
X107733333Y-87904761D01*
X107780952Y-87809523D01*
X107828571Y-87761904D01*
X107923809Y-87714285D01*
X108161904Y-87714285D01*
X108257142Y-87761904D01*
X108304761Y-87809523D01*
X108352380Y-87904761D01*
X108352380Y-88142857D01*
X108304761Y-88238095D01*
X108257142Y-88285714D01*
%TO.C,J6*%
X128866666Y-98152380D02*
X128866666Y-98866666D01*
X128819047Y-99009523D01*
X128723809Y-99104761D01*
X128580952Y-99152380D01*
X128485714Y-99152380D01*
X129771428Y-98152380D02*
X129580952Y-98152380D01*
X129485714Y-98200000D01*
X129438095Y-98247619D01*
X129342857Y-98390476D01*
X129295238Y-98580952D01*
X129295238Y-98961904D01*
X129342857Y-99057142D01*
X129390476Y-99104761D01*
X129485714Y-99152380D01*
X129676190Y-99152380D01*
X129771428Y-99104761D01*
X129819047Y-99057142D01*
X129866666Y-98961904D01*
X129866666Y-98723809D01*
X129819047Y-98628571D01*
X129771428Y-98580952D01*
X129676190Y-98533333D01*
X129485714Y-98533333D01*
X129390476Y-98580952D01*
X129342857Y-98628571D01*
X129295238Y-98723809D01*
%TO.C,L2*%
X129952380Y-88741666D02*
X129952380Y-89217857D01*
X128952380Y-89217857D01*
X129047619Y-88455952D02*
X129000000Y-88408333D01*
X128952380Y-88313095D01*
X128952380Y-88075000D01*
X129000000Y-87979761D01*
X129047619Y-87932142D01*
X129142857Y-87884523D01*
X129238095Y-87884523D01*
X129380952Y-87932142D01*
X129952380Y-88503571D01*
X129952380Y-87884523D01*
%TO.C,Y1*%
X128723809Y-110376190D02*
X128723809Y-110852380D01*
X128390476Y-109852380D02*
X128723809Y-110376190D01*
X129057142Y-109852380D01*
X129914285Y-110852380D02*
X129342857Y-110852380D01*
X129628571Y-110852380D02*
X129628571Y-109852380D01*
X129533333Y-109995238D01*
X129438095Y-110090476D01*
X129342857Y-110138095D01*
%TO.C,U2*%
X127413095Y-132252380D02*
X127413095Y-133061904D01*
X127460714Y-133157142D01*
X127508333Y-133204761D01*
X127603571Y-133252380D01*
X127794047Y-133252380D01*
X127889285Y-133204761D01*
X127936904Y-133157142D01*
X127984523Y-133061904D01*
X127984523Y-132252380D01*
X128413095Y-132347619D02*
X128460714Y-132300000D01*
X128555952Y-132252380D01*
X128794047Y-132252380D01*
X128889285Y-132300000D01*
X128936904Y-132347619D01*
X128984523Y-132442857D01*
X128984523Y-132538095D01*
X128936904Y-132680952D01*
X128365476Y-133252380D01*
X128984523Y-133252380D01*
%TO.C,L1*%
X137908333Y-128352380D02*
X137432142Y-128352380D01*
X137432142Y-127352380D01*
X138765476Y-128352380D02*
X138194047Y-128352380D01*
X138479761Y-128352380D02*
X138479761Y-127352380D01*
X138384523Y-127495238D01*
X138289285Y-127590476D01*
X138194047Y-127638095D01*
%TO.C,R2*%
X148583333Y-133752380D02*
X148250000Y-133276190D01*
X148011904Y-133752380D02*
X148011904Y-132752380D01*
X148392857Y-132752380D01*
X148488095Y-132800000D01*
X148535714Y-132847619D01*
X148583333Y-132942857D01*
X148583333Y-133085714D01*
X148535714Y-133180952D01*
X148488095Y-133228571D01*
X148392857Y-133276190D01*
X148011904Y-133276190D01*
X148964285Y-132847619D02*
X149011904Y-132800000D01*
X149107142Y-132752380D01*
X149345238Y-132752380D01*
X149440476Y-132800000D01*
X149488095Y-132847619D01*
X149535714Y-132942857D01*
X149535714Y-133038095D01*
X149488095Y-133180952D01*
X148916666Y-133752380D01*
X149535714Y-133752380D01*
%TO.C,C5*%
X123033333Y-112357142D02*
X122985714Y-112404761D01*
X122842857Y-112452380D01*
X122747619Y-112452380D01*
X122604761Y-112404761D01*
X122509523Y-112309523D01*
X122461904Y-112214285D01*
X122414285Y-112023809D01*
X122414285Y-111880952D01*
X122461904Y-111690476D01*
X122509523Y-111595238D01*
X122604761Y-111500000D01*
X122747619Y-111452380D01*
X122842857Y-111452380D01*
X122985714Y-111500000D01*
X123033333Y-111547619D01*
X123938095Y-111452380D02*
X123461904Y-111452380D01*
X123414285Y-111928571D01*
X123461904Y-111880952D01*
X123557142Y-111833333D01*
X123795238Y-111833333D01*
X123890476Y-111880952D01*
X123938095Y-111928571D01*
X123985714Y-112023809D01*
X123985714Y-112261904D01*
X123938095Y-112357142D01*
X123890476Y-112404761D01*
X123795238Y-112452380D01*
X123557142Y-112452380D01*
X123461904Y-112404761D01*
X123414285Y-112357142D01*
%TO.C,J4*%
X154782380Y-88133333D02*
X155496666Y-88133333D01*
X155639523Y-88180952D01*
X155734761Y-88276190D01*
X155782380Y-88419047D01*
X155782380Y-88514285D01*
X155115714Y-87228571D02*
X155782380Y-87228571D01*
X154734761Y-87466666D02*
X155449047Y-87704761D01*
X155449047Y-87085714D01*
%TO.C,R8*%
X127232380Y-117466666D02*
X126756190Y-117800000D01*
X127232380Y-118038095D02*
X126232380Y-118038095D01*
X126232380Y-117657142D01*
X126280000Y-117561904D01*
X126327619Y-117514285D01*
X126422857Y-117466666D01*
X126565714Y-117466666D01*
X126660952Y-117514285D01*
X126708571Y-117561904D01*
X126756190Y-117657142D01*
X126756190Y-118038095D01*
X126660952Y-116895238D02*
X126613333Y-116990476D01*
X126565714Y-117038095D01*
X126470476Y-117085714D01*
X126422857Y-117085714D01*
X126327619Y-117038095D01*
X126280000Y-116990476D01*
X126232380Y-116895238D01*
X126232380Y-116704761D01*
X126280000Y-116609523D01*
X126327619Y-116561904D01*
X126422857Y-116514285D01*
X126470476Y-116514285D01*
X126565714Y-116561904D01*
X126613333Y-116609523D01*
X126660952Y-116704761D01*
X126660952Y-116895238D01*
X126708571Y-116990476D01*
X126756190Y-117038095D01*
X126851428Y-117085714D01*
X127041904Y-117085714D01*
X127137142Y-117038095D01*
X127184761Y-116990476D01*
X127232380Y-116895238D01*
X127232380Y-116704761D01*
X127184761Y-116609523D01*
X127137142Y-116561904D01*
X127041904Y-116514285D01*
X126851428Y-116514285D01*
X126756190Y-116561904D01*
X126708571Y-116609523D01*
X126660952Y-116704761D01*
%TO.C,J15*%
X130655476Y-125652380D02*
X130655476Y-126366666D01*
X130607857Y-126509523D01*
X130512619Y-126604761D01*
X130369761Y-126652380D01*
X130274523Y-126652380D01*
X131655476Y-126652380D02*
X131084047Y-126652380D01*
X131369761Y-126652380D02*
X131369761Y-125652380D01*
X131274523Y-125795238D01*
X131179285Y-125890476D01*
X131084047Y-125938095D01*
X132560238Y-125652380D02*
X132084047Y-125652380D01*
X132036428Y-126128571D01*
X132084047Y-126080952D01*
X132179285Y-126033333D01*
X132417380Y-126033333D01*
X132512619Y-126080952D01*
X132560238Y-126128571D01*
X132607857Y-126223809D01*
X132607857Y-126461904D01*
X132560238Y-126557142D01*
X132512619Y-126604761D01*
X132417380Y-126652380D01*
X132179285Y-126652380D01*
X132084047Y-126604761D01*
X132036428Y-126557142D01*
%TO.C,R5*%
X129952380Y-95466666D02*
X129476190Y-95800000D01*
X129952380Y-96038095D02*
X128952380Y-96038095D01*
X128952380Y-95657142D01*
X129000000Y-95561904D01*
X129047619Y-95514285D01*
X129142857Y-95466666D01*
X129285714Y-95466666D01*
X129380952Y-95514285D01*
X129428571Y-95561904D01*
X129476190Y-95657142D01*
X129476190Y-96038095D01*
X128952380Y-94561904D02*
X128952380Y-95038095D01*
X129428571Y-95085714D01*
X129380952Y-95038095D01*
X129333333Y-94942857D01*
X129333333Y-94704761D01*
X129380952Y-94609523D01*
X129428571Y-94561904D01*
X129523809Y-94514285D01*
X129761904Y-94514285D01*
X129857142Y-94561904D01*
X129904761Y-94609523D01*
X129952380Y-94704761D01*
X129952380Y-94942857D01*
X129904761Y-95038095D01*
X129857142Y-95085714D01*
%TO.C,R6*%
X112633333Y-127772380D02*
X112300000Y-127296190D01*
X112061904Y-127772380D02*
X112061904Y-126772380D01*
X112442857Y-126772380D01*
X112538095Y-126820000D01*
X112585714Y-126867619D01*
X112633333Y-126962857D01*
X112633333Y-127105714D01*
X112585714Y-127200952D01*
X112538095Y-127248571D01*
X112442857Y-127296190D01*
X112061904Y-127296190D01*
X113490476Y-126772380D02*
X113300000Y-126772380D01*
X113204761Y-126820000D01*
X113157142Y-126867619D01*
X113061904Y-127010476D01*
X113014285Y-127200952D01*
X113014285Y-127581904D01*
X113061904Y-127677142D01*
X113109523Y-127724761D01*
X113204761Y-127772380D01*
X113395238Y-127772380D01*
X113490476Y-127724761D01*
X113538095Y-127677142D01*
X113585714Y-127581904D01*
X113585714Y-127343809D01*
X113538095Y-127248571D01*
X113490476Y-127200952D01*
X113395238Y-127153333D01*
X113204761Y-127153333D01*
X113109523Y-127200952D01*
X113061904Y-127248571D01*
X113014285Y-127343809D01*
%TO.C,J8*%
X131866666Y-112582380D02*
X131866666Y-113296666D01*
X131819047Y-113439523D01*
X131723809Y-113534761D01*
X131580952Y-113582380D01*
X131485714Y-113582380D01*
X132485714Y-113010952D02*
X132390476Y-112963333D01*
X132342857Y-112915714D01*
X132295238Y-112820476D01*
X132295238Y-112772857D01*
X132342857Y-112677619D01*
X132390476Y-112630000D01*
X132485714Y-112582380D01*
X132676190Y-112582380D01*
X132771428Y-112630000D01*
X132819047Y-112677619D01*
X132866666Y-112772857D01*
X132866666Y-112820476D01*
X132819047Y-112915714D01*
X132771428Y-112963333D01*
X132676190Y-113010952D01*
X132485714Y-113010952D01*
X132390476Y-113058571D01*
X132342857Y-113106190D01*
X132295238Y-113201428D01*
X132295238Y-113391904D01*
X132342857Y-113487142D01*
X132390476Y-113534761D01*
X132485714Y-113582380D01*
X132676190Y-113582380D01*
X132771428Y-113534761D01*
X132819047Y-113487142D01*
X132866666Y-113391904D01*
X132866666Y-113201428D01*
X132819047Y-113106190D01*
X132771428Y-113058571D01*
X132676190Y-113010952D01*
%TO.C,J12*%
X107522380Y-81109523D02*
X108236666Y-81109523D01*
X108379523Y-81157142D01*
X108474761Y-81252380D01*
X108522380Y-81395238D01*
X108522380Y-81490476D01*
X108522380Y-80109523D02*
X108522380Y-80680952D01*
X108522380Y-80395238D02*
X107522380Y-80395238D01*
X107665238Y-80490476D01*
X107760476Y-80585714D01*
X107808095Y-80680952D01*
X107617619Y-79728571D02*
X107570000Y-79680952D01*
X107522380Y-79585714D01*
X107522380Y-79347619D01*
X107570000Y-79252380D01*
X107617619Y-79204761D01*
X107712857Y-79157142D01*
X107808095Y-79157142D01*
X107950952Y-79204761D01*
X108522380Y-79776190D01*
X108522380Y-79157142D01*
%TO.C,C6*%
X141108333Y-130257142D02*
X141060714Y-130304761D01*
X140917857Y-130352380D01*
X140822619Y-130352380D01*
X140679761Y-130304761D01*
X140584523Y-130209523D01*
X140536904Y-130114285D01*
X140489285Y-129923809D01*
X140489285Y-129780952D01*
X140536904Y-129590476D01*
X140584523Y-129495238D01*
X140679761Y-129400000D01*
X140822619Y-129352380D01*
X140917857Y-129352380D01*
X141060714Y-129400000D01*
X141108333Y-129447619D01*
X141965476Y-129352380D02*
X141775000Y-129352380D01*
X141679761Y-129400000D01*
X141632142Y-129447619D01*
X141536904Y-129590476D01*
X141489285Y-129780952D01*
X141489285Y-130161904D01*
X141536904Y-130257142D01*
X141584523Y-130304761D01*
X141679761Y-130352380D01*
X141870238Y-130352380D01*
X141965476Y-130304761D01*
X142013095Y-130257142D01*
X142060714Y-130161904D01*
X142060714Y-129923809D01*
X142013095Y-129828571D01*
X141965476Y-129780952D01*
X141870238Y-129733333D01*
X141679761Y-129733333D01*
X141584523Y-129780952D01*
X141536904Y-129828571D01*
X141489285Y-129923809D01*
%TO.C,D1*%
X114652380Y-102538095D02*
X113652380Y-102538095D01*
X113652380Y-102300000D01*
X113700000Y-102157142D01*
X113795238Y-102061904D01*
X113890476Y-102014285D01*
X114080952Y-101966666D01*
X114223809Y-101966666D01*
X114414285Y-102014285D01*
X114509523Y-102061904D01*
X114604761Y-102157142D01*
X114652380Y-102300000D01*
X114652380Y-102538095D01*
X114652380Y-101014285D02*
X114652380Y-101585714D01*
X114652380Y-101300000D02*
X113652380Y-101300000D01*
X113795238Y-101395238D01*
X113890476Y-101490476D01*
X113938095Y-101585714D01*
%TO.C,C9*%
X126157142Y-88366666D02*
X126204761Y-88414285D01*
X126252380Y-88557142D01*
X126252380Y-88652380D01*
X126204761Y-88795238D01*
X126109523Y-88890476D01*
X126014285Y-88938095D01*
X125823809Y-88985714D01*
X125680952Y-88985714D01*
X125490476Y-88938095D01*
X125395238Y-88890476D01*
X125300000Y-88795238D01*
X125252380Y-88652380D01*
X125252380Y-88557142D01*
X125300000Y-88414285D01*
X125347619Y-88366666D01*
X126252380Y-87890476D02*
X126252380Y-87700000D01*
X126204761Y-87604761D01*
X126157142Y-87557142D01*
X126014285Y-87461904D01*
X125823809Y-87414285D01*
X125442857Y-87414285D01*
X125347619Y-87461904D01*
X125300000Y-87509523D01*
X125252380Y-87604761D01*
X125252380Y-87795238D01*
X125300000Y-87890476D01*
X125347619Y-87938095D01*
X125442857Y-87985714D01*
X125680952Y-87985714D01*
X125776190Y-87938095D01*
X125823809Y-87890476D01*
X125871428Y-87795238D01*
X125871428Y-87604761D01*
X125823809Y-87509523D01*
X125776190Y-87461904D01*
X125680952Y-87414285D01*
%TO.C,J2*%
X154607380Y-102433333D02*
X155321666Y-102433333D01*
X155464523Y-102480952D01*
X155559761Y-102576190D01*
X155607380Y-102719047D01*
X155607380Y-102814285D01*
X154702619Y-102004761D02*
X154655000Y-101957142D01*
X154607380Y-101861904D01*
X154607380Y-101623809D01*
X154655000Y-101528571D01*
X154702619Y-101480952D01*
X154797857Y-101433333D01*
X154893095Y-101433333D01*
X155035952Y-101480952D01*
X155607380Y-102052380D01*
X155607380Y-101433333D01*
%TO.C,J11*%
X144290476Y-122352380D02*
X144290476Y-123066666D01*
X144242857Y-123209523D01*
X144147619Y-123304761D01*
X144004761Y-123352380D01*
X143909523Y-123352380D01*
X145290476Y-123352380D02*
X144719047Y-123352380D01*
X145004761Y-123352380D02*
X145004761Y-122352380D01*
X144909523Y-122495238D01*
X144814285Y-122590476D01*
X144719047Y-122638095D01*
X146242857Y-123352380D02*
X145671428Y-123352380D01*
X145957142Y-123352380D02*
X145957142Y-122352380D01*
X145861904Y-122495238D01*
X145766666Y-122590476D01*
X145671428Y-122638095D01*
%TO.C,C12*%
X152632142Y-93507142D02*
X152584523Y-93554761D01*
X152441666Y-93602380D01*
X152346428Y-93602380D01*
X152203571Y-93554761D01*
X152108333Y-93459523D01*
X152060714Y-93364285D01*
X152013095Y-93173809D01*
X152013095Y-93030952D01*
X152060714Y-92840476D01*
X152108333Y-92745238D01*
X152203571Y-92650000D01*
X152346428Y-92602380D01*
X152441666Y-92602380D01*
X152584523Y-92650000D01*
X152632142Y-92697619D01*
X153584523Y-93602380D02*
X153013095Y-93602380D01*
X153298809Y-93602380D02*
X153298809Y-92602380D01*
X153203571Y-92745238D01*
X153108333Y-92840476D01*
X153013095Y-92888095D01*
X153965476Y-92697619D02*
X154013095Y-92650000D01*
X154108333Y-92602380D01*
X154346428Y-92602380D01*
X154441666Y-92650000D01*
X154489285Y-92697619D01*
X154536904Y-92792857D01*
X154536904Y-92888095D01*
X154489285Y-93030952D01*
X153917857Y-93602380D01*
X154536904Y-93602380D01*
%TO.C,C2*%
X151733333Y-105657142D02*
X151685714Y-105704761D01*
X151542857Y-105752380D01*
X151447619Y-105752380D01*
X151304761Y-105704761D01*
X151209523Y-105609523D01*
X151161904Y-105514285D01*
X151114285Y-105323809D01*
X151114285Y-105180952D01*
X151161904Y-104990476D01*
X151209523Y-104895238D01*
X151304761Y-104800000D01*
X151447619Y-104752380D01*
X151542857Y-104752380D01*
X151685714Y-104800000D01*
X151733333Y-104847619D01*
X152114285Y-104847619D02*
X152161904Y-104800000D01*
X152257142Y-104752380D01*
X152495238Y-104752380D01*
X152590476Y-104800000D01*
X152638095Y-104847619D01*
X152685714Y-104942857D01*
X152685714Y-105038095D01*
X152638095Y-105180952D01*
X152066666Y-105752380D01*
X152685714Y-105752380D01*
%TO.C,J17*%
X112490476Y-134852380D02*
X112490476Y-135566666D01*
X112442857Y-135709523D01*
X112347619Y-135804761D01*
X112204761Y-135852380D01*
X112109523Y-135852380D01*
X113490476Y-135852380D02*
X112919047Y-135852380D01*
X113204761Y-135852380D02*
X113204761Y-134852380D01*
X113109523Y-134995238D01*
X113014285Y-135090476D01*
X112919047Y-135138095D01*
X113823809Y-134852380D02*
X114490476Y-134852380D01*
X114061904Y-135852380D01*
%TO.C,J14*%
X118590476Y-99122380D02*
X118590476Y-99836666D01*
X118542857Y-99979523D01*
X118447619Y-100074761D01*
X118304761Y-100122380D01*
X118209523Y-100122380D01*
X119590476Y-100122380D02*
X119019047Y-100122380D01*
X119304761Y-100122380D02*
X119304761Y-99122380D01*
X119209523Y-99265238D01*
X119114285Y-99360476D01*
X119019047Y-99408095D01*
X120447619Y-99455714D02*
X120447619Y-100122380D01*
X120209523Y-99074761D02*
X119971428Y-99789047D01*
X120590476Y-99789047D01*
%TO.C,R10*%
X146957142Y-93372380D02*
X146623809Y-92896190D01*
X146385714Y-93372380D02*
X146385714Y-92372380D01*
X146766666Y-92372380D01*
X146861904Y-92420000D01*
X146909523Y-92467619D01*
X146957142Y-92562857D01*
X146957142Y-92705714D01*
X146909523Y-92800952D01*
X146861904Y-92848571D01*
X146766666Y-92896190D01*
X146385714Y-92896190D01*
X147909523Y-93372380D02*
X147338095Y-93372380D01*
X147623809Y-93372380D02*
X147623809Y-92372380D01*
X147528571Y-92515238D01*
X147433333Y-92610476D01*
X147338095Y-92658095D01*
X148528571Y-92372380D02*
X148623809Y-92372380D01*
X148719047Y-92420000D01*
X148766666Y-92467619D01*
X148814285Y-92562857D01*
X148861904Y-92753333D01*
X148861904Y-92991428D01*
X148814285Y-93181904D01*
X148766666Y-93277142D01*
X148719047Y-93324761D01*
X148623809Y-93372380D01*
X148528571Y-93372380D01*
X148433333Y-93324761D01*
X148385714Y-93277142D01*
X148338095Y-93181904D01*
X148290476Y-92991428D01*
X148290476Y-92753333D01*
X148338095Y-92562857D01*
X148385714Y-92467619D01*
X148433333Y-92420000D01*
X148528571Y-92372380D01*
%TO.C,C7*%
X148333333Y-131057142D02*
X148285714Y-131104761D01*
X148142857Y-131152380D01*
X148047619Y-131152380D01*
X147904761Y-131104761D01*
X147809523Y-131009523D01*
X147761904Y-130914285D01*
X147714285Y-130723809D01*
X147714285Y-130580952D01*
X147761904Y-130390476D01*
X147809523Y-130295238D01*
X147904761Y-130200000D01*
X148047619Y-130152380D01*
X148142857Y-130152380D01*
X148285714Y-130200000D01*
X148333333Y-130247619D01*
X148666666Y-130152380D02*
X149333333Y-130152380D01*
X148904761Y-131152380D01*
%TO.C,R4*%
X110832380Y-95804166D02*
X110356190Y-96137500D01*
X110832380Y-96375595D02*
X109832380Y-96375595D01*
X109832380Y-95994642D01*
X109880000Y-95899404D01*
X109927619Y-95851785D01*
X110022857Y-95804166D01*
X110165714Y-95804166D01*
X110260952Y-95851785D01*
X110308571Y-95899404D01*
X110356190Y-95994642D01*
X110356190Y-96375595D01*
X110165714Y-94947023D02*
X110832380Y-94947023D01*
X109784761Y-95185119D02*
X110499047Y-95423214D01*
X110499047Y-94804166D01*
%TO.C,J1*%
X147466666Y-121082380D02*
X147466666Y-121796666D01*
X147419047Y-121939523D01*
X147323809Y-122034761D01*
X147180952Y-122082380D01*
X147085714Y-122082380D01*
X148466666Y-122082380D02*
X147895238Y-122082380D01*
X148180952Y-122082380D02*
X148180952Y-121082380D01*
X148085714Y-121225238D01*
X147990476Y-121320476D01*
X147895238Y-121368095D01*
%TO.C,C1*%
X131057142Y-106966666D02*
X131104761Y-107014285D01*
X131152380Y-107157142D01*
X131152380Y-107252380D01*
X131104761Y-107395238D01*
X131009523Y-107490476D01*
X130914285Y-107538095D01*
X130723809Y-107585714D01*
X130580952Y-107585714D01*
X130390476Y-107538095D01*
X130295238Y-107490476D01*
X130200000Y-107395238D01*
X130152380Y-107252380D01*
X130152380Y-107157142D01*
X130200000Y-107014285D01*
X130247619Y-106966666D01*
X131152380Y-106014285D02*
X131152380Y-106585714D01*
X131152380Y-106300000D02*
X130152380Y-106300000D01*
X130295238Y-106395238D01*
X130390476Y-106490476D01*
X130438095Y-106585714D01*
%TO.C,R7*%
X112152380Y-131104166D02*
X111676190Y-131437500D01*
X112152380Y-131675595D02*
X111152380Y-131675595D01*
X111152380Y-131294642D01*
X111200000Y-131199404D01*
X111247619Y-131151785D01*
X111342857Y-131104166D01*
X111485714Y-131104166D01*
X111580952Y-131151785D01*
X111628571Y-131199404D01*
X111676190Y-131294642D01*
X111676190Y-131675595D01*
X111152380Y-130770833D02*
X111152380Y-130104166D01*
X112152380Y-130532738D01*
%TO.C,D2*%
X110552380Y-102438095D02*
X109552380Y-102438095D01*
X109552380Y-102200000D01*
X109600000Y-102057142D01*
X109695238Y-101961904D01*
X109790476Y-101914285D01*
X109980952Y-101866666D01*
X110123809Y-101866666D01*
X110314285Y-101914285D01*
X110409523Y-101961904D01*
X110504761Y-102057142D01*
X110552380Y-102200000D01*
X110552380Y-102438095D01*
X109647619Y-101485714D02*
X109600000Y-101438095D01*
X109552380Y-101342857D01*
X109552380Y-101104761D01*
X109600000Y-101009523D01*
X109647619Y-100961904D01*
X109742857Y-100914285D01*
X109838095Y-100914285D01*
X109980952Y-100961904D01*
X110552380Y-101533333D01*
X110552380Y-100914285D01*
%TO.C,U1*%
X138948095Y-84662380D02*
X138948095Y-85471904D01*
X138995714Y-85567142D01*
X139043333Y-85614761D01*
X139138571Y-85662380D01*
X139329047Y-85662380D01*
X139424285Y-85614761D01*
X139471904Y-85567142D01*
X139519523Y-85471904D01*
X139519523Y-84662380D01*
X140519523Y-85662380D02*
X139948095Y-85662380D01*
X140233809Y-85662380D02*
X140233809Y-84662380D01*
X140138571Y-84805238D01*
X140043333Y-84900476D01*
X139948095Y-84948095D01*
%TO.C,J7*%
X140657380Y-125933333D02*
X141371666Y-125933333D01*
X141514523Y-125980952D01*
X141609761Y-126076190D01*
X141657380Y-126219047D01*
X141657380Y-126314285D01*
X140657380Y-125552380D02*
X140657380Y-124885714D01*
X141657380Y-125314285D01*
%TO.C,J16*%
X113890476Y-109252380D02*
X113890476Y-109966666D01*
X113842857Y-110109523D01*
X113747619Y-110204761D01*
X113604761Y-110252380D01*
X113509523Y-110252380D01*
X114890476Y-110252380D02*
X114319047Y-110252380D01*
X114604761Y-110252380D02*
X114604761Y-109252380D01*
X114509523Y-109395238D01*
X114414285Y-109490476D01*
X114319047Y-109538095D01*
X115747619Y-109252380D02*
X115557142Y-109252380D01*
X115461904Y-109300000D01*
X115414285Y-109347619D01*
X115319047Y-109490476D01*
X115271428Y-109680952D01*
X115271428Y-110061904D01*
X115319047Y-110157142D01*
X115366666Y-110204761D01*
X115461904Y-110252380D01*
X115652380Y-110252380D01*
X115747619Y-110204761D01*
X115795238Y-110157142D01*
X115842857Y-110061904D01*
X115842857Y-109823809D01*
X115795238Y-109728571D01*
X115747619Y-109680952D01*
X115652380Y-109633333D01*
X115461904Y-109633333D01*
X115366666Y-109680952D01*
X115319047Y-109728571D01*
X115271428Y-109823809D01*
%TO.C,R1*%
X148308333Y-136552380D02*
X147975000Y-136076190D01*
X147736904Y-136552380D02*
X147736904Y-135552380D01*
X148117857Y-135552380D01*
X148213095Y-135600000D01*
X148260714Y-135647619D01*
X148308333Y-135742857D01*
X148308333Y-135885714D01*
X148260714Y-135980952D01*
X148213095Y-136028571D01*
X148117857Y-136076190D01*
X147736904Y-136076190D01*
X149260714Y-136552380D02*
X148689285Y-136552380D01*
X148975000Y-136552380D02*
X148975000Y-135552380D01*
X148879761Y-135695238D01*
X148784523Y-135790476D01*
X148689285Y-135838095D01*
%TO.C,J13*%
X122690476Y-99022380D02*
X122690476Y-99736666D01*
X122642857Y-99879523D01*
X122547619Y-99974761D01*
X122404761Y-100022380D01*
X122309523Y-100022380D01*
X123690476Y-100022380D02*
X123119047Y-100022380D01*
X123404761Y-100022380D02*
X123404761Y-99022380D01*
X123309523Y-99165238D01*
X123214285Y-99260476D01*
X123119047Y-99308095D01*
X124023809Y-99022380D02*
X124642857Y-99022380D01*
X124309523Y-99403333D01*
X124452380Y-99403333D01*
X124547619Y-99450952D01*
X124595238Y-99498571D01*
X124642857Y-99593809D01*
X124642857Y-99831904D01*
X124595238Y-99927142D01*
X124547619Y-99974761D01*
X124452380Y-100022380D01*
X124166666Y-100022380D01*
X124071428Y-99974761D01*
X124023809Y-99927142D01*
%TO.C,J18*%
X118390476Y-125847380D02*
X118390476Y-126561666D01*
X118342857Y-126704523D01*
X118247619Y-126799761D01*
X118104761Y-126847380D01*
X118009523Y-126847380D01*
X119390476Y-126847380D02*
X118819047Y-126847380D01*
X119104761Y-126847380D02*
X119104761Y-125847380D01*
X119009523Y-125990238D01*
X118914285Y-126085476D01*
X118819047Y-126133095D01*
X119961904Y-126275952D02*
X119866666Y-126228333D01*
X119819047Y-126180714D01*
X119771428Y-126085476D01*
X119771428Y-126037857D01*
X119819047Y-125942619D01*
X119866666Y-125895000D01*
X119961904Y-125847380D01*
X120152380Y-125847380D01*
X120247619Y-125895000D01*
X120295238Y-125942619D01*
X120342857Y-126037857D01*
X120342857Y-126085476D01*
X120295238Y-126180714D01*
X120247619Y-126228333D01*
X120152380Y-126275952D01*
X119961904Y-126275952D01*
X119866666Y-126323571D01*
X119819047Y-126371190D01*
X119771428Y-126466428D01*
X119771428Y-126656904D01*
X119819047Y-126752142D01*
X119866666Y-126799761D01*
X119961904Y-126847380D01*
X120152380Y-126847380D01*
X120247619Y-126799761D01*
X120295238Y-126752142D01*
X120342857Y-126656904D01*
X120342857Y-126466428D01*
X120295238Y-126371190D01*
X120247619Y-126323571D01*
X120152380Y-126275952D01*
%TO.C,J3*%
X154907380Y-95433333D02*
X155621666Y-95433333D01*
X155764523Y-95480952D01*
X155859761Y-95576190D01*
X155907380Y-95719047D01*
X155907380Y-95814285D01*
X154907380Y-95052380D02*
X154907380Y-94433333D01*
X155288333Y-94766666D01*
X155288333Y-94623809D01*
X155335952Y-94528571D01*
X155383571Y-94480952D01*
X155478809Y-94433333D01*
X155716904Y-94433333D01*
X155812142Y-94480952D01*
X155859761Y-94528571D01*
X155907380Y-94623809D01*
X155907380Y-94909523D01*
X155859761Y-95004761D01*
X155812142Y-95052380D01*
%TO.C,C3*%
X151933333Y-108457142D02*
X151885714Y-108504761D01*
X151742857Y-108552380D01*
X151647619Y-108552380D01*
X151504761Y-108504761D01*
X151409523Y-108409523D01*
X151361904Y-108314285D01*
X151314285Y-108123809D01*
X151314285Y-107980952D01*
X151361904Y-107790476D01*
X151409523Y-107695238D01*
X151504761Y-107600000D01*
X151647619Y-107552380D01*
X151742857Y-107552380D01*
X151885714Y-107600000D01*
X151933333Y-107647619D01*
X152266666Y-107552380D02*
X152885714Y-107552380D01*
X152552380Y-107933333D01*
X152695238Y-107933333D01*
X152790476Y-107980952D01*
X152838095Y-108028571D01*
X152885714Y-108123809D01*
X152885714Y-108361904D01*
X152838095Y-108457142D01*
X152790476Y-108504761D01*
X152695238Y-108552380D01*
X152409523Y-108552380D01*
X152314285Y-108504761D01*
X152266666Y-108457142D01*
%TO.C,C11*%
X122657142Y-127757142D02*
X122609523Y-127804761D01*
X122466666Y-127852380D01*
X122371428Y-127852380D01*
X122228571Y-127804761D01*
X122133333Y-127709523D01*
X122085714Y-127614285D01*
X122038095Y-127423809D01*
X122038095Y-127280952D01*
X122085714Y-127090476D01*
X122133333Y-126995238D01*
X122228571Y-126900000D01*
X122371428Y-126852380D01*
X122466666Y-126852380D01*
X122609523Y-126900000D01*
X122657142Y-126947619D01*
X123609523Y-127852380D02*
X123038095Y-127852380D01*
X123323809Y-127852380D02*
X123323809Y-126852380D01*
X123228571Y-126995238D01*
X123133333Y-127090476D01*
X123038095Y-127138095D01*
X124561904Y-127852380D02*
X123990476Y-127852380D01*
X124276190Y-127852380D02*
X124276190Y-126852380D01*
X124180952Y-126995238D01*
X124085714Y-127090476D01*
X123990476Y-127138095D01*
%TO.C,D6*%
X149652380Y-123538095D02*
X148652380Y-123538095D01*
X148652380Y-123300000D01*
X148700000Y-123157142D01*
X148795238Y-123061904D01*
X148890476Y-123014285D01*
X149080952Y-122966666D01*
X149223809Y-122966666D01*
X149414285Y-123014285D01*
X149509523Y-123061904D01*
X149604761Y-123157142D01*
X149652380Y-123300000D01*
X149652380Y-123538095D01*
X148652380Y-122109523D02*
X148652380Y-122300000D01*
X148700000Y-122395238D01*
X148747619Y-122442857D01*
X148890476Y-122538095D01*
X149080952Y-122585714D01*
X149461904Y-122585714D01*
X149557142Y-122538095D01*
X149604761Y-122490476D01*
X149652380Y-122395238D01*
X149652380Y-122204761D01*
X149604761Y-122109523D01*
X149557142Y-122061904D01*
X149461904Y-122014285D01*
X149223809Y-122014285D01*
X149128571Y-122061904D01*
X149080952Y-122109523D01*
X149033333Y-122204761D01*
X149033333Y-122395238D01*
X149080952Y-122490476D01*
X149128571Y-122538095D01*
X149223809Y-122585714D01*
%TO.C,R9*%
X123333333Y-124152380D02*
X123000000Y-123676190D01*
X122761904Y-124152380D02*
X122761904Y-123152380D01*
X123142857Y-123152380D01*
X123238095Y-123200000D01*
X123285714Y-123247619D01*
X123333333Y-123342857D01*
X123333333Y-123485714D01*
X123285714Y-123580952D01*
X123238095Y-123628571D01*
X123142857Y-123676190D01*
X122761904Y-123676190D01*
X123809523Y-124152380D02*
X124000000Y-124152380D01*
X124095238Y-124104761D01*
X124142857Y-124057142D01*
X124238095Y-123914285D01*
X124285714Y-123723809D01*
X124285714Y-123342857D01*
X124238095Y-123247619D01*
X124190476Y-123200000D01*
X124095238Y-123152380D01*
X123904761Y-123152380D01*
X123809523Y-123200000D01*
X123761904Y-123247619D01*
X123714285Y-123342857D01*
X123714285Y-123580952D01*
X123761904Y-123676190D01*
X123809523Y-123723809D01*
X123904761Y-123771428D01*
X124095238Y-123771428D01*
X124190476Y-123723809D01*
X124238095Y-123676190D01*
X124285714Y-123580952D01*
%TO.C,C10*%
X130557142Y-103742857D02*
X130604761Y-103790476D01*
X130652380Y-103933333D01*
X130652380Y-104028571D01*
X130604761Y-104171428D01*
X130509523Y-104266666D01*
X130414285Y-104314285D01*
X130223809Y-104361904D01*
X130080952Y-104361904D01*
X129890476Y-104314285D01*
X129795238Y-104266666D01*
X129700000Y-104171428D01*
X129652380Y-104028571D01*
X129652380Y-103933333D01*
X129700000Y-103790476D01*
X129747619Y-103742857D01*
X130652380Y-102790476D02*
X130652380Y-103361904D01*
X130652380Y-103076190D02*
X129652380Y-103076190D01*
X129795238Y-103171428D01*
X129890476Y-103266666D01*
X129938095Y-103361904D01*
X129652380Y-102171428D02*
X129652380Y-102076190D01*
X129700000Y-101980952D01*
X129747619Y-101933333D01*
X129842857Y-101885714D01*
X130033333Y-101838095D01*
X130271428Y-101838095D01*
X130461904Y-101885714D01*
X130557142Y-101933333D01*
X130604761Y-101980952D01*
X130652380Y-102076190D01*
X130652380Y-102171428D01*
X130604761Y-102266666D01*
X130557142Y-102314285D01*
X130461904Y-102361904D01*
X130271428Y-102409523D01*
X130033333Y-102409523D01*
X129842857Y-102361904D01*
X129747619Y-102314285D01*
X129700000Y-102266666D01*
X129652380Y-102171428D01*
%TO.C,J10*%
X135230476Y-138752380D02*
X135230476Y-139466666D01*
X135182857Y-139609523D01*
X135087619Y-139704761D01*
X134944761Y-139752380D01*
X134849523Y-139752380D01*
X136230476Y-139752380D02*
X135659047Y-139752380D01*
X135944761Y-139752380D02*
X135944761Y-138752380D01*
X135849523Y-138895238D01*
X135754285Y-138990476D01*
X135659047Y-139038095D01*
X136849523Y-138752380D02*
X136944761Y-138752380D01*
X137040000Y-138800000D01*
X137087619Y-138847619D01*
X137135238Y-138942857D01*
X137182857Y-139133333D01*
X137182857Y-139371428D01*
X137135238Y-139561904D01*
X137087619Y-139657142D01*
X137040000Y-139704761D01*
X136944761Y-139752380D01*
X136849523Y-139752380D01*
X136754285Y-139704761D01*
X136706666Y-139657142D01*
X136659047Y-139561904D01*
X136611428Y-139371428D01*
X136611428Y-139133333D01*
X136659047Y-138942857D01*
X136706666Y-138847619D01*
X136754285Y-138800000D01*
X136849523Y-138752380D01*
%TO.C,J5*%
X132482380Y-78808333D02*
X133196666Y-78808333D01*
X133339523Y-78855952D01*
X133434761Y-78951190D01*
X133482380Y-79094047D01*
X133482380Y-79189285D01*
X132482380Y-77855952D02*
X132482380Y-78332142D01*
X132958571Y-78379761D01*
X132910952Y-78332142D01*
X132863333Y-78236904D01*
X132863333Y-77998809D01*
X132910952Y-77903571D01*
X132958571Y-77855952D01*
X133053809Y-77808333D01*
X133291904Y-77808333D01*
X133387142Y-77855952D01*
X133434761Y-77903571D01*
X133482380Y-77998809D01*
X133482380Y-78236904D01*
X133434761Y-78332142D01*
X133387142Y-78379761D01*
%TO.C,D4*%
X121652380Y-96038095D02*
X120652380Y-96038095D01*
X120652380Y-95800000D01*
X120700000Y-95657142D01*
X120795238Y-95561904D01*
X120890476Y-95514285D01*
X121080952Y-95466666D01*
X121223809Y-95466666D01*
X121414285Y-95514285D01*
X121509523Y-95561904D01*
X121604761Y-95657142D01*
X121652380Y-95800000D01*
X121652380Y-96038095D01*
X120985714Y-94609523D02*
X121652380Y-94609523D01*
X120604761Y-94847619D02*
X121319047Y-95085714D01*
X121319047Y-94466666D01*
%TO.C,R3*%
X114732380Y-95904166D02*
X114256190Y-96237500D01*
X114732380Y-96475595D02*
X113732380Y-96475595D01*
X113732380Y-96094642D01*
X113780000Y-95999404D01*
X113827619Y-95951785D01*
X113922857Y-95904166D01*
X114065714Y-95904166D01*
X114160952Y-95951785D01*
X114208571Y-95999404D01*
X114256190Y-96094642D01*
X114256190Y-96475595D01*
X113732380Y-95570833D02*
X113732380Y-94951785D01*
X114113333Y-95285119D01*
X114113333Y-95142261D01*
X114160952Y-95047023D01*
X114208571Y-94999404D01*
X114303809Y-94951785D01*
X114541904Y-94951785D01*
X114637142Y-94999404D01*
X114684761Y-95047023D01*
X114732380Y-95142261D01*
X114732380Y-95427976D01*
X114684761Y-95523214D01*
X114637142Y-95570833D01*
D11*
%TO.C,R11*%
X119590000Y-113372936D02*
X119590000Y-114827064D01*
X121410000Y-113372936D02*
X121410000Y-114827064D01*
%TO.C,C13*%
X115488748Y-115290000D02*
X116911252Y-115290000D01*
X115488748Y-117110000D02*
X116911252Y-117110000D01*
%TO.C,U4*%
X115135000Y-123525000D02*
X113185000Y-123525000D01*
X115135000Y-123525000D02*
X117085000Y-123525000D01*
X115135000Y-118405000D02*
X111685000Y-118405000D01*
X115135000Y-118405000D02*
X117085000Y-118405000D01*
%TO.C,J9*%
X150370000Y-131160000D02*
X150370000Y-129830000D01*
X150370000Y-135030000D02*
X153030000Y-135030000D01*
X150370000Y-132430000D02*
X150370000Y-135030000D01*
X150370000Y-132430000D02*
X153030000Y-132430000D01*
X150370000Y-129830000D02*
X151700000Y-129830000D01*
X153030000Y-132430000D02*
X153030000Y-135030000D01*
%TO.C,D7*%
X121150000Y-117100000D02*
X125050000Y-117100000D01*
X121150000Y-117100000D02*
X121150000Y-119100000D01*
X121150000Y-119100000D02*
X125050000Y-119100000D01*
%TO.C,C4*%
X125988748Y-109210000D02*
X127411252Y-109210000D01*
X125988748Y-107390000D02*
X127411252Y-107390000D01*
%TO.C,U3*%
X120476400Y-88102900D02*
X117123600Y-88102900D01*
X117123600Y-92497100D02*
X120476400Y-92497100D01*
G36*
X122190900Y-90165380D02*
G01*
X121936900Y-90165380D01*
X121936900Y-89784380D01*
X122190900Y-89784380D01*
X122190900Y-90165380D01*
G37*
D12*
X122190900Y-90165380D02*
X121936900Y-90165380D01*
X121936900Y-89784380D01*
X122190900Y-89784380D01*
X122190900Y-90165380D01*
D11*
%TO.C,C8*%
X117088748Y-84390000D02*
X118511252Y-84390000D01*
X117088748Y-86210000D02*
X118511252Y-86210000D01*
%TO.C,D3*%
X122450000Y-84350000D02*
X128150000Y-84350000D01*
X122450000Y-80050000D02*
X128150000Y-80050000D01*
X122450000Y-80050000D02*
X122450000Y-84350000D01*
%TO.C,D5*%
X108750000Y-92050000D02*
X113050000Y-92050000D01*
X113050000Y-92050000D02*
X113050000Y-86350000D01*
X108750000Y-92050000D02*
X108750000Y-86350000D01*
%TO.C,J6*%
X132830000Y-100150000D02*
X132830000Y-101480000D01*
X132830000Y-86120000D02*
X130170000Y-86120000D01*
X132830000Y-98880000D02*
X130170000Y-98880000D01*
X132830000Y-101480000D02*
X131500000Y-101480000D01*
X132830000Y-98880000D02*
X132830000Y-86120000D01*
X130170000Y-98880000D02*
X130170000Y-86120000D01*
%TO.C,L2*%
X126990000Y-89410242D02*
X126990000Y-87739758D01*
X128810000Y-89410242D02*
X128810000Y-87739758D01*
%TO.C,Y1*%
X133900000Y-111650000D02*
X133900000Y-108350000D01*
X133900000Y-108350000D02*
X129900000Y-108350000D01*
%TO.C,U2*%
X128075000Y-137410000D02*
X124215000Y-137410000D01*
X131935000Y-137410000D02*
X131935000Y-137170000D01*
X128075000Y-137410000D02*
X131935000Y-137410000D01*
X124215000Y-137410000D02*
X124215000Y-137170000D01*
X124215000Y-128430000D02*
X122400000Y-128430000D01*
X128075000Y-128190000D02*
X131935000Y-128190000D01*
X128075000Y-128190000D02*
X124215000Y-128190000D01*
X131935000Y-128190000D02*
X131935000Y-128430000D01*
X124215000Y-128190000D02*
X124215000Y-128430000D01*
%TO.C,L1*%
X137239758Y-130710000D02*
X138910242Y-130710000D01*
X137239758Y-128890000D02*
X138910242Y-128890000D01*
%TO.C,R2*%
X144585436Y-132390000D02*
X146039564Y-132390000D01*
X144585436Y-134210000D02*
X146039564Y-134210000D01*
%TO.C,C5*%
X125788748Y-111590000D02*
X127211252Y-111590000D01*
X125788748Y-113410000D02*
X127211252Y-113410000D01*
%TO.C,J4*%
X151730000Y-89130000D02*
X146590000Y-89130000D01*
X154330000Y-86470000D02*
X154330000Y-87800000D01*
X146590000Y-86470000D02*
X146590000Y-89130000D01*
X151730000Y-86470000D02*
X151730000Y-89130000D01*
X153000000Y-86470000D02*
X154330000Y-86470000D01*
X151730000Y-86470000D02*
X146590000Y-86470000D01*
%TO.C,R8*%
X129510000Y-118027064D02*
X129510000Y-116572936D01*
X127690000Y-118027064D02*
X127690000Y-116572936D01*
%TO.C,J15*%
X127570000Y-122970000D02*
X127570000Y-125630000D01*
X130170000Y-122970000D02*
X130170000Y-125630000D01*
X130170000Y-122970000D02*
X127570000Y-122970000D01*
X132770000Y-122970000D02*
X132770000Y-124300000D01*
X130170000Y-125630000D02*
X127570000Y-125630000D01*
X131440000Y-122970000D02*
X132770000Y-122970000D01*
%TO.C,R5*%
X126890000Y-94610436D02*
X126890000Y-96064564D01*
X128710000Y-94610436D02*
X128710000Y-96064564D01*
%TO.C,R6*%
X113527064Y-126410000D02*
X112072936Y-126410000D01*
X113527064Y-124590000D02*
X112072936Y-124590000D01*
%TO.C,J8*%
X130870000Y-116730000D02*
X133530000Y-116730000D01*
X130870000Y-119330000D02*
X133530000Y-119330000D01*
X130870000Y-116730000D02*
X130870000Y-119330000D01*
X130870000Y-115460000D02*
X130870000Y-114130000D01*
X130870000Y-114130000D02*
X132200000Y-114130000D01*
X133530000Y-116730000D02*
X133530000Y-119330000D01*
%TO.C,J12*%
X114270000Y-81630000D02*
X114270000Y-78970000D01*
X111670000Y-81630000D02*
X111670000Y-78970000D01*
X109070000Y-81630000D02*
X109070000Y-80300000D01*
X111670000Y-81630000D02*
X114270000Y-81630000D01*
X111670000Y-78970000D02*
X114270000Y-78970000D01*
X110400000Y-81630000D02*
X109070000Y-81630000D01*
%TO.C,C6*%
X137263748Y-134010000D02*
X138686252Y-134010000D01*
X137263748Y-132190000D02*
X138686252Y-132190000D01*
%TO.C,D1*%
X117135000Y-99715000D02*
X114865000Y-99715000D01*
X117135000Y-103600000D02*
X117135000Y-99715000D01*
X114865000Y-99715000D02*
X114865000Y-103600000D01*
%TO.C,C9*%
X123290000Y-87588748D02*
X123290000Y-89011252D01*
X125110000Y-87588748D02*
X125110000Y-89011252D01*
%TO.C,J2*%
X152825000Y-100770000D02*
X154155000Y-100770000D01*
X146415000Y-100770000D02*
X146415000Y-103430000D01*
X151555000Y-100770000D02*
X151555000Y-103430000D01*
X154155000Y-100770000D02*
X154155000Y-102100000D01*
X151555000Y-100770000D02*
X146415000Y-100770000D01*
X151555000Y-103430000D02*
X146415000Y-103430000D01*
%TO.C,J11*%
X147605000Y-124070000D02*
X147605000Y-125400000D01*
X146275000Y-124070000D02*
X147605000Y-124070000D01*
X145005000Y-124070000D02*
X145005000Y-126730000D01*
X142405000Y-124070000D02*
X142405000Y-126730000D01*
X145005000Y-124070000D02*
X142405000Y-124070000D01*
X145005000Y-126730000D02*
X142405000Y-126730000D01*
%TO.C,C12*%
X153986252Y-92210000D02*
X152563748Y-92210000D01*
X153986252Y-90390000D02*
X152563748Y-90390000D01*
%TO.C,C2*%
X147688748Y-104490000D02*
X149111252Y-104490000D01*
X147688748Y-106310000D02*
X149111252Y-106310000D01*
%TO.C,J17*%
X112870000Y-131195000D02*
X115530000Y-131195000D01*
X112870000Y-128595000D02*
X114200000Y-128595000D01*
X112870000Y-131195000D02*
X112870000Y-133795000D01*
X112870000Y-133795000D02*
X115530000Y-133795000D01*
X115530000Y-131195000D02*
X115530000Y-133795000D01*
X112870000Y-129925000D02*
X112870000Y-128595000D01*
%TO.C,J14*%
X118070000Y-103270000D02*
X118070000Y-105870000D01*
X118070000Y-102000000D02*
X118070000Y-100670000D01*
X120730000Y-103270000D02*
X120730000Y-105870000D01*
X118070000Y-103270000D02*
X120730000Y-103270000D01*
X118070000Y-100670000D02*
X119400000Y-100670000D01*
X118070000Y-105870000D02*
X120730000Y-105870000D01*
%TO.C,R10*%
X148327064Y-90190000D02*
X146872936Y-90190000D01*
X148327064Y-92010000D02*
X146872936Y-92010000D01*
%TO.C,C7*%
X144588748Y-131610000D02*
X146011252Y-131610000D01*
X144588748Y-129790000D02*
X146011252Y-129790000D01*
%TO.C,R4*%
X111290000Y-96364564D02*
X111290000Y-94910436D01*
X113110000Y-96364564D02*
X113110000Y-94910436D01*
%TO.C,J1*%
X149130000Y-118030000D02*
X149130000Y-112890000D01*
X149130000Y-118030000D02*
X146470000Y-118030000D01*
X146470000Y-118030000D02*
X146470000Y-112890000D01*
X149130000Y-112890000D02*
X146470000Y-112890000D01*
X149130000Y-120630000D02*
X147800000Y-120630000D01*
X149130000Y-119300000D02*
X149130000Y-120630000D01*
%TO.C,C1*%
X131490000Y-104488748D02*
X131490000Y-105911252D01*
X133310000Y-104488748D02*
X133310000Y-105911252D01*
%TO.C,R7*%
X109190000Y-131764564D02*
X109190000Y-130310436D01*
X111010000Y-131764564D02*
X111010000Y-130310436D01*
%TO.C,D2*%
X113135000Y-103300000D02*
X113135000Y-99415000D01*
X110865000Y-99415000D02*
X110865000Y-103300000D01*
X113135000Y-99415000D02*
X110865000Y-99415000D01*
%TO.C,U1*%
X144850000Y-121950000D02*
X144850000Y-86150000D01*
X144850000Y-86150000D02*
X134570000Y-86150000D01*
X137060000Y-86210000D02*
X137060000Y-121890000D01*
X137060000Y-121890000D02*
X142360000Y-121890000D01*
X138710000Y-86210000D02*
X137060000Y-86210000D01*
X142360000Y-121890000D02*
X142360000Y-86210000D01*
X142360000Y-86210000D02*
X140710000Y-86210000D01*
X134570000Y-86150000D02*
X134570000Y-121950000D01*
X134570000Y-121950000D02*
X144850000Y-121950000D01*
X138710000Y-86210000D02*
G75*
G03*
X140710000Y-86210000I1000000J0D01*
G01*
%TO.C,J7*%
X138875000Y-124270000D02*
X140205000Y-124270000D01*
X135005000Y-124270000D02*
X135005000Y-126930000D01*
X137605000Y-126930000D02*
X135005000Y-126930000D01*
X140205000Y-124270000D02*
X140205000Y-125600000D01*
X137605000Y-124270000D02*
X137605000Y-126930000D01*
X137605000Y-124270000D02*
X135005000Y-124270000D01*
%TO.C,J16*%
X114395000Y-113730000D02*
X114395000Y-111070000D01*
X116995000Y-113730000D02*
X116995000Y-111070000D01*
X113125000Y-113730000D02*
X111795000Y-113730000D01*
X114395000Y-113730000D02*
X116995000Y-113730000D01*
X114395000Y-111070000D02*
X116995000Y-111070000D01*
X111795000Y-113730000D02*
X111795000Y-112400000D01*
%TO.C,R1*%
X144485436Y-134990000D02*
X145939564Y-134990000D01*
X144485436Y-136810000D02*
X145939564Y-136810000D01*
%TO.C,J13*%
X122170000Y-100570000D02*
X123500000Y-100570000D01*
X124830000Y-103170000D02*
X124830000Y-105770000D01*
X122170000Y-101900000D02*
X122170000Y-100570000D01*
X122170000Y-103170000D02*
X122170000Y-105770000D01*
X122170000Y-103170000D02*
X124830000Y-103170000D01*
X122170000Y-105770000D02*
X124830000Y-105770000D01*
%TO.C,J18*%
X120530000Y-129995000D02*
X120530000Y-132595000D01*
X117870000Y-129995000D02*
X117870000Y-132595000D01*
X117870000Y-129995000D02*
X120530000Y-129995000D01*
X117870000Y-128725000D02*
X117870000Y-127395000D01*
X117870000Y-132595000D02*
X120530000Y-132595000D01*
X117870000Y-127395000D02*
X119200000Y-127395000D01*
%TO.C,J3*%
X146715000Y-93770000D02*
X146715000Y-96430000D01*
X151855000Y-96430000D02*
X146715000Y-96430000D01*
X154455000Y-93770000D02*
X154455000Y-95100000D01*
X151855000Y-93770000D02*
X151855000Y-96430000D01*
X151855000Y-93770000D02*
X146715000Y-93770000D01*
X153125000Y-93770000D02*
X154455000Y-93770000D01*
%TO.C,C3*%
X149111252Y-108910000D02*
X147688748Y-108910000D01*
X149111252Y-107090000D02*
X147688748Y-107090000D01*
%TO.C,C11*%
X122588748Y-124490000D02*
X124011252Y-124490000D01*
X122588748Y-126310000D02*
X124011252Y-126310000D01*
%TO.C,D6*%
X150050000Y-126200000D02*
X153350000Y-126200000D01*
X153350000Y-126200000D02*
X153350000Y-120800000D01*
X150050000Y-126200000D02*
X150050000Y-120800000D01*
%TO.C,R9*%
X124227064Y-123010000D02*
X122772936Y-123010000D01*
X124227064Y-121190000D02*
X122772936Y-121190000D01*
%TO.C,C10*%
X129210000Y-103288748D02*
X129210000Y-104711252D01*
X127390000Y-103288748D02*
X127390000Y-104711252D01*
%TO.C,J10*%
X141270000Y-137630000D02*
X141270000Y-134970000D01*
X138670000Y-137630000D02*
X141270000Y-137630000D01*
X138670000Y-137630000D02*
X138670000Y-134970000D01*
X138670000Y-134970000D02*
X141270000Y-134970000D01*
X137400000Y-137630000D02*
X136070000Y-137630000D01*
X136070000Y-137630000D02*
X136070000Y-136300000D01*
%TO.C,J5*%
X137070000Y-79805000D02*
X137070000Y-77145000D01*
X137070000Y-77145000D02*
X144750000Y-77145000D01*
X134470000Y-78475000D02*
X134470000Y-77145000D01*
X144750000Y-79805000D02*
X144750000Y-77145000D01*
X137070000Y-79805000D02*
X144750000Y-79805000D01*
X134470000Y-77145000D02*
X135800000Y-77145000D01*
%TO.C,D4*%
X125850000Y-91700000D02*
X122550000Y-91700000D01*
X122550000Y-91700000D02*
X122550000Y-97100000D01*
X125850000Y-91700000D02*
X125850000Y-97100000D01*
%TO.C,R3*%
X115190000Y-96464564D02*
X115190000Y-95010436D01*
X117010000Y-96464564D02*
X117010000Y-95010436D01*
%TD*%
M02*
