%TF.GenerationSoftware,KiCad,Pcbnew,(6.0.7-1)-1*%
%TF.CreationDate,2023-03-08T09:28:21-05:00*%
%TF.ProjectId,pcb,7063622e-6b69-4636-9164-5f7063625858,rev?*%
%TF.SameCoordinates,Original*%
%TF.FileFunction,Soldermask,Bot*%
%TF.FilePolarity,Negative*%
%FSLAX46Y46*%
G04 Gerber Fmt 4.6, Leading zero omitted, Abs format (unit mm)*
G04 Created by KiCad (PCBNEW (6.0.7-1)-1) date 2023-03-08 09:28:21*
%MOMM*%
%LPD*%
G01*
G04 APERTURE LIST*
%ADD10R,1.700000X1.700000*%
%ADD11O,1.700000X1.700000*%
%ADD12R,1.600000X1.600000*%
%ADD13O,1.600000X1.600000*%
G04 APERTURE END LIST*
D10*
%TO.C,J9*%
X151700000Y-131160000D03*
D11*
X151700000Y-133700000D03*
%TD*%
D10*
%TO.C,J6*%
X131500000Y-100150000D03*
D11*
X131500000Y-97610000D03*
X131500000Y-95070000D03*
X131500000Y-92530000D03*
X131500000Y-89990000D03*
X131500000Y-87450000D03*
%TD*%
D10*
%TO.C,J4*%
X153000000Y-87800000D03*
D11*
X150460000Y-87800000D03*
X147920000Y-87800000D03*
%TD*%
D10*
%TO.C,J15*%
X131440000Y-124300000D03*
D11*
X128900000Y-124300000D03*
%TD*%
D10*
%TO.C,J8*%
X132200000Y-115460000D03*
D11*
X132200000Y-118000000D03*
%TD*%
D10*
%TO.C,J12*%
X110400000Y-80300000D03*
D11*
X112940000Y-80300000D03*
%TD*%
D10*
%TO.C,J2*%
X152825000Y-102100000D03*
D11*
X150285000Y-102100000D03*
X147745000Y-102100000D03*
%TD*%
D10*
%TO.C,J11*%
X146275000Y-125400000D03*
D11*
X143735000Y-125400000D03*
%TD*%
D10*
%TO.C,J17*%
X114200000Y-129925000D03*
D11*
X114200000Y-132465000D03*
%TD*%
D10*
%TO.C,J14*%
X119400000Y-102000000D03*
D11*
X119400000Y-104540000D03*
%TD*%
D10*
%TO.C,J1*%
X147800000Y-119300000D03*
D11*
X147800000Y-116760000D03*
X147800000Y-114220000D03*
%TD*%
D12*
%TO.C,U1*%
X135900000Y-87540000D03*
D13*
X135900000Y-90080000D03*
X135900000Y-92620000D03*
X135900000Y-95160000D03*
X135900000Y-97700000D03*
X135900000Y-100240000D03*
X135900000Y-102780000D03*
X135900000Y-105320000D03*
X135900000Y-107860000D03*
X135900000Y-110400000D03*
X135900000Y-112940000D03*
X135900000Y-115480000D03*
X135900000Y-118020000D03*
X135900000Y-120560000D03*
X143520000Y-120560000D03*
X143520000Y-118020000D03*
X143520000Y-115480000D03*
X143520000Y-112940000D03*
X143520000Y-110400000D03*
X143520000Y-107860000D03*
X143520000Y-105320000D03*
X143520000Y-102780000D03*
X143520000Y-100240000D03*
X143520000Y-97700000D03*
X143520000Y-95160000D03*
X143520000Y-92620000D03*
X143520000Y-90080000D03*
X143520000Y-87540000D03*
%TD*%
D10*
%TO.C,J7*%
X138875000Y-125600000D03*
D11*
X136335000Y-125600000D03*
%TD*%
D10*
%TO.C,J16*%
X113125000Y-112400000D03*
D11*
X115665000Y-112400000D03*
%TD*%
D10*
%TO.C,J13*%
X123500000Y-101900000D03*
D11*
X123500000Y-104440000D03*
%TD*%
D10*
%TO.C,J18*%
X119200000Y-128725000D03*
D11*
X119200000Y-131265000D03*
%TD*%
D10*
%TO.C,J3*%
X153125000Y-95100000D03*
D11*
X150585000Y-95100000D03*
X148045000Y-95100000D03*
%TD*%
D10*
%TO.C,J10*%
X137400000Y-136300000D03*
D11*
X139940000Y-136300000D03*
%TD*%
D10*
%TO.C,J5*%
X135800000Y-78475000D03*
D11*
X138340000Y-78475000D03*
X140880000Y-78475000D03*
X143420000Y-78475000D03*
%TD*%
M02*
