M48
; DRILL file {KiCad (6.0.7-1)-1} date Wednesday, March 08, 2023 at 09:28:36 AM
; FORMAT={-:-/ absolute / inch / decimal}
; #@! TF.CreationDate,2023-03-08T09:28:36-05:00
; #@! TF.GenerationSoftware,Kicad,Pcbnew,(6.0.7-1)-1
; #@! TF.FileFunction,Plated,1,2,PTH
FMAT,2
INCH
; #@! TA.AperFunction,Plated,PTH,ViaDrill
T1C0.0157
; #@! TA.AperFunction,Plated,PTH,ComponentDrill
T2C0.0315
; #@! TA.AperFunction,Plated,PTH,ComponentDrill
T3C0.0394
%
G90
G05
T1
X4.5329Y-4.8372
X4.6772Y-3.5118
X4.6772Y-3.5512
X4.6772Y-3.5945
X4.7559Y-3.3583
X4.9793Y-5.3622
X4.9921Y-4.3465
X5.062Y-5.1969
X5.1339Y-3.2402
X5.1378Y-4.1378
X5.563Y-5.0394
X5.8386Y-5.0394
X5.8425Y-4.2008
X5.9567Y-4.1969
T2
X5.3504Y-3.4465
X5.3504Y-3.5465
X5.3504Y-3.6465
X5.3504Y-3.7465
X5.3504Y-3.8465
X5.3504Y-3.9465
X5.3504Y-4.0465
X5.3504Y-4.1465
X5.3504Y-4.2465
X5.3504Y-4.3465
X5.3504Y-4.4465
X5.3504Y-4.5465
X5.3504Y-4.6465
X5.3504Y-4.7465
X5.6504Y-3.4465
X5.6504Y-3.5465
X5.6504Y-3.6465
X5.6504Y-3.7465
X5.6504Y-3.8465
X5.6504Y-3.9465
X5.6504Y-4.0465
X5.6504Y-4.1465
X5.6504Y-4.2465
X5.6504Y-4.3465
X5.6504Y-4.4465
X5.6504Y-4.5465
X5.6504Y-4.6465
X5.6504Y-4.7465
T3
X4.3465Y-3.1614
X4.4465Y-3.1614
X4.4537Y-4.4252
X4.4961Y-5.1152
X4.4961Y-5.2152
X4.5537Y-4.4252
X4.6929Y-5.0679
X4.6929Y-5.1679
X4.7008Y-4.0157
X4.7008Y-4.1157
X4.8622Y-4.0118
X4.8622Y-4.1118
X5.0748Y-4.8937
X5.1748Y-4.8937
X5.1772Y-3.4429
X5.1772Y-3.5429
X5.1772Y-3.6429
X5.1772Y-3.7429
X5.1772Y-3.8429
X5.1772Y-3.9429
X5.2047Y-4.5457
X5.2047Y-4.6457
X5.3465Y-3.0896
X5.3675Y-4.9449
X5.4094Y-5.3661
X5.4465Y-3.0896
X5.4675Y-4.9449
X5.5094Y-5.3661
X5.5465Y-3.0896
X5.6465Y-3.0896
X5.6589Y-4.937
X5.7589Y-4.937
X5.8167Y-4.0197
X5.8189Y-4.4969
X5.8189Y-4.5969
X5.8189Y-4.6969
X5.8236Y-3.4567
X5.8285Y-3.7441
X5.9167Y-4.0197
X5.9236Y-3.4567
X5.9285Y-3.7441
X5.9724Y-5.1638
X5.9724Y-5.2638
X6.0167Y-4.0197
X6.0236Y-3.4567
X6.0285Y-3.7441
T0
M30
