%TF.GenerationSoftware,KiCad,Pcbnew,(6.0.7-1)-1*%
%TF.CreationDate,2023-05-02T22:47:36-04:00*%
%TF.ProjectId,pcb,7063622e-6b69-4636-9164-5f7063625858,rev?*%
%TF.SameCoordinates,Original*%
%TF.FileFunction,Soldermask,Bot*%
%TF.FilePolarity,Negative*%
%FSLAX46Y46*%
G04 Gerber Fmt 4.6, Leading zero omitted, Abs format (unit mm)*
G04 Created by KiCad (PCBNEW (6.0.7-1)-1) date 2023-05-02 22:47:36*
%MOMM*%
%LPD*%
G01*
G04 APERTURE LIST*
%ADD10R,1.700000X1.700000*%
%ADD11O,1.700000X1.700000*%
%ADD12O,1.600000X1.600000*%
%ADD13R,1.600000X1.600000*%
G04 APERTURE END LIST*
D10*
%TO.C,J7*%
X126900000Y-109400000D03*
D11*
X126900000Y-111940000D03*
X126900000Y-114480000D03*
%TD*%
D10*
%TO.C,J8*%
X132900000Y-110300000D03*
D11*
X132900000Y-112840000D03*
X132900000Y-115380000D03*
%TD*%
D12*
%TO.C,U1*%
X151915000Y-72175000D03*
X151915000Y-74715000D03*
X151915000Y-77255000D03*
X151915000Y-79795000D03*
X151915000Y-82335000D03*
X151915000Y-84875000D03*
X151915000Y-87415000D03*
X151915000Y-89955000D03*
X151915000Y-92495000D03*
X151915000Y-95035000D03*
X151915000Y-97575000D03*
X151915000Y-100115000D03*
X151915000Y-102655000D03*
X151915000Y-105195000D03*
X151915000Y-107735000D03*
X151915000Y-110275000D03*
X151915000Y-112815000D03*
X151915000Y-115355000D03*
X151915000Y-117895000D03*
X151915000Y-120435000D03*
X136675000Y-120435000D03*
X136675000Y-117895000D03*
X136675000Y-115355000D03*
X136675000Y-112815000D03*
X136675000Y-110275000D03*
X136675000Y-107735000D03*
X136675000Y-105195000D03*
X136675000Y-102655000D03*
X136675000Y-100115000D03*
X136675000Y-97575000D03*
X136675000Y-95035000D03*
X136675000Y-92495000D03*
X136675000Y-89955000D03*
X136675000Y-87415000D03*
X136675000Y-84875000D03*
X136675000Y-82335000D03*
X136675000Y-79795000D03*
X136675000Y-77255000D03*
X136675000Y-74715000D03*
D13*
X136675000Y-72175000D03*
%TD*%
D10*
%TO.C,J6*%
X133000000Y-91850000D03*
D11*
X133000000Y-89310000D03*
X133000000Y-86770000D03*
X133000000Y-84230000D03*
X133000000Y-81690000D03*
X133000000Y-79150000D03*
%TD*%
D10*
%TO.C,J4*%
X163125000Y-82900000D03*
D11*
X160585000Y-82900000D03*
X158045000Y-82900000D03*
%TD*%
D10*
%TO.C,J12*%
X110400000Y-80300000D03*
D11*
X110400000Y-77760000D03*
%TD*%
D10*
%TO.C,J2*%
X163480000Y-71500000D03*
D11*
X160940000Y-71500000D03*
X158400000Y-71500000D03*
%TD*%
D10*
%TO.C,J1*%
X163200000Y-118700000D03*
D11*
X160660000Y-118700000D03*
X158120000Y-118700000D03*
%TD*%
D10*
%TO.C,J13*%
X123500000Y-101900000D03*
D11*
X123500000Y-104440000D03*
%TD*%
D10*
%TO.C,J3*%
X163625000Y-75300000D03*
D11*
X161085000Y-75300000D03*
X158545000Y-75300000D03*
%TD*%
D13*
%TO.C,U4*%
X109900000Y-115800000D03*
D12*
X109900000Y-118340000D03*
X109900000Y-120880000D03*
X109900000Y-123420000D03*
X117520000Y-123420000D03*
X117520000Y-120880000D03*
X117520000Y-118340000D03*
X117520000Y-115800000D03*
%TD*%
D10*
%TO.C,J5*%
X163200000Y-110900000D03*
D11*
X163200000Y-108360000D03*
X163200000Y-105820000D03*
X163200000Y-103280000D03*
%TD*%
M02*
