%TF.GenerationSoftware,KiCad,Pcbnew,(6.0.7-1)-1*%
%TF.CreationDate,2023-05-02T22:47:35-04:00*%
%TF.ProjectId,pcb,7063622e-6b69-4636-9164-5f7063625858,rev?*%
%TF.SameCoordinates,Original*%
%TF.FileFunction,Legend,Top*%
%TF.FilePolarity,Positive*%
%FSLAX46Y46*%
G04 Gerber Fmt 4.6, Leading zero omitted, Abs format (unit mm)*
G04 Created by KiCad (PCBNEW (6.0.7-1)-1) date 2023-05-02 22:47:35*
%MOMM*%
%LPD*%
G01*
G04 APERTURE LIST*
%ADD10C,0.150000*%
%ADD11C,0.120000*%
%ADD12C,0.100000*%
G04 APERTURE END LIST*
D10*
%TO.C,L2*%
X125943333Y-83682380D02*
X125467142Y-83682380D01*
X125467142Y-82682380D01*
X126229047Y-82777619D02*
X126276666Y-82730000D01*
X126371904Y-82682380D01*
X126610000Y-82682380D01*
X126705238Y-82730000D01*
X126752857Y-82777619D01*
X126800476Y-82872857D01*
X126800476Y-82968095D01*
X126752857Y-83110952D01*
X126181428Y-83682380D01*
X126800476Y-83682380D01*
%TO.C,J7*%
X126566666Y-106522380D02*
X126566666Y-107236666D01*
X126519047Y-107379523D01*
X126423809Y-107474761D01*
X126280952Y-107522380D01*
X126185714Y-107522380D01*
X126947619Y-106522380D02*
X127614285Y-106522380D01*
X127185714Y-107522380D01*
%TO.C,J8*%
X132566666Y-107422380D02*
X132566666Y-108136666D01*
X132519047Y-108279523D01*
X132423809Y-108374761D01*
X132280952Y-108422380D01*
X132185714Y-108422380D01*
X133185714Y-107850952D02*
X133090476Y-107803333D01*
X133042857Y-107755714D01*
X132995238Y-107660476D01*
X132995238Y-107612857D01*
X133042857Y-107517619D01*
X133090476Y-107470000D01*
X133185714Y-107422380D01*
X133376190Y-107422380D01*
X133471428Y-107470000D01*
X133519047Y-107517619D01*
X133566666Y-107612857D01*
X133566666Y-107660476D01*
X133519047Y-107755714D01*
X133471428Y-107803333D01*
X133376190Y-107850952D01*
X133185714Y-107850952D01*
X133090476Y-107898571D01*
X133042857Y-107946190D01*
X132995238Y-108041428D01*
X132995238Y-108231904D01*
X133042857Y-108327142D01*
X133090476Y-108374761D01*
X133185714Y-108422380D01*
X133376190Y-108422380D01*
X133471428Y-108374761D01*
X133519047Y-108327142D01*
X133566666Y-108231904D01*
X133566666Y-108041428D01*
X133519047Y-107946190D01*
X133471428Y-107898571D01*
X133376190Y-107850952D01*
%TO.C,C4*%
X132333333Y-106357142D02*
X132285714Y-106404761D01*
X132142857Y-106452380D01*
X132047619Y-106452380D01*
X131904761Y-106404761D01*
X131809523Y-106309523D01*
X131761904Y-106214285D01*
X131714285Y-106023809D01*
X131714285Y-105880952D01*
X131761904Y-105690476D01*
X131809523Y-105595238D01*
X131904761Y-105500000D01*
X132047619Y-105452380D01*
X132142857Y-105452380D01*
X132285714Y-105500000D01*
X132333333Y-105547619D01*
X133190476Y-105785714D02*
X133190476Y-106452380D01*
X132952380Y-105404761D02*
X132714285Y-106119047D01*
X133333333Y-106119047D01*
%TO.C,Y1*%
X129023809Y-100676190D02*
X129023809Y-101152380D01*
X128690476Y-100152380D02*
X129023809Y-100676190D01*
X129357142Y-100152380D01*
X130214285Y-101152380D02*
X129642857Y-101152380D01*
X129928571Y-101152380D02*
X129928571Y-100152380D01*
X129833333Y-100295238D01*
X129738095Y-100390476D01*
X129642857Y-100438095D01*
%TO.C,U1*%
X143533095Y-69297380D02*
X143533095Y-70106904D01*
X143580714Y-70202142D01*
X143628333Y-70249761D01*
X143723571Y-70297380D01*
X143914047Y-70297380D01*
X144009285Y-70249761D01*
X144056904Y-70202142D01*
X144104523Y-70106904D01*
X144104523Y-69297380D01*
X145104523Y-70297380D02*
X144533095Y-70297380D01*
X144818809Y-70297380D02*
X144818809Y-69297380D01*
X144723571Y-69440238D01*
X144628333Y-69535476D01*
X144533095Y-69583095D01*
%TO.C,C5*%
X128833333Y-98757142D02*
X128785714Y-98804761D01*
X128642857Y-98852380D01*
X128547619Y-98852380D01*
X128404761Y-98804761D01*
X128309523Y-98709523D01*
X128261904Y-98614285D01*
X128214285Y-98423809D01*
X128214285Y-98280952D01*
X128261904Y-98090476D01*
X128309523Y-97995238D01*
X128404761Y-97900000D01*
X128547619Y-97852380D01*
X128642857Y-97852380D01*
X128785714Y-97900000D01*
X128833333Y-97947619D01*
X129738095Y-97852380D02*
X129261904Y-97852380D01*
X129214285Y-98328571D01*
X129261904Y-98280952D01*
X129357142Y-98233333D01*
X129595238Y-98233333D01*
X129690476Y-98280952D01*
X129738095Y-98328571D01*
X129785714Y-98423809D01*
X129785714Y-98661904D01*
X129738095Y-98757142D01*
X129690476Y-98804761D01*
X129595238Y-98852380D01*
X129357142Y-98852380D01*
X129261904Y-98804761D01*
X129214285Y-98757142D01*
%TO.C,U3*%
X117938095Y-86952380D02*
X117938095Y-87761904D01*
X117985714Y-87857142D01*
X118033333Y-87904761D01*
X118128571Y-87952380D01*
X118319047Y-87952380D01*
X118414285Y-87904761D01*
X118461904Y-87857142D01*
X118509523Y-87761904D01*
X118509523Y-86952380D01*
X118890476Y-86952380D02*
X119509523Y-86952380D01*
X119176190Y-87333333D01*
X119319047Y-87333333D01*
X119414285Y-87380952D01*
X119461904Y-87428571D01*
X119509523Y-87523809D01*
X119509523Y-87761904D01*
X119461904Y-87857142D01*
X119414285Y-87904761D01*
X119319047Y-87952380D01*
X119033333Y-87952380D01*
X118938095Y-87904761D01*
X118890476Y-87857142D01*
X107352380Y-105785714D02*
X107352380Y-106261904D01*
X106352380Y-106261904D01*
X106352380Y-105595238D02*
X106352380Y-105023809D01*
X107352380Y-105309523D02*
X106352380Y-105309523D01*
X106352380Y-104785714D02*
X106352380Y-104166666D01*
X106733333Y-104500000D01*
X106733333Y-104357142D01*
X106780952Y-104261904D01*
X106828571Y-104214285D01*
X106923809Y-104166666D01*
X107161904Y-104166666D01*
X107257142Y-104214285D01*
X107304761Y-104261904D01*
X107352380Y-104357142D01*
X107352380Y-104642857D01*
X107304761Y-104738095D01*
X107257142Y-104785714D01*
X106352380Y-103309523D02*
X106352380Y-103500000D01*
X106400000Y-103595238D01*
X106447619Y-103642857D01*
X106590476Y-103738095D01*
X106780952Y-103785714D01*
X107161904Y-103785714D01*
X107257142Y-103738095D01*
X107304761Y-103690476D01*
X107352380Y-103595238D01*
X107352380Y-103404761D01*
X107304761Y-103309523D01*
X107257142Y-103261904D01*
X107161904Y-103214285D01*
X106923809Y-103214285D01*
X106828571Y-103261904D01*
X106780952Y-103309523D01*
X106733333Y-103404761D01*
X106733333Y-103595238D01*
X106780952Y-103690476D01*
X106828571Y-103738095D01*
X106923809Y-103785714D01*
X106352380Y-102309523D02*
X106352380Y-102785714D01*
X106828571Y-102833333D01*
X106780952Y-102785714D01*
X106733333Y-102690476D01*
X106733333Y-102452380D01*
X106780952Y-102357142D01*
X106828571Y-102309523D01*
X106923809Y-102261904D01*
X107161904Y-102261904D01*
X107257142Y-102309523D01*
X107304761Y-102357142D01*
X107352380Y-102452380D01*
X107352380Y-102690476D01*
X107304761Y-102785714D01*
X107257142Y-102833333D01*
X106352380Y-101642857D02*
X106352380Y-101547619D01*
X106400000Y-101452380D01*
X106447619Y-101404761D01*
X106542857Y-101357142D01*
X106733333Y-101309523D01*
X106971428Y-101309523D01*
X107161904Y-101357142D01*
X107257142Y-101404761D01*
X107304761Y-101452380D01*
X107352380Y-101547619D01*
X107352380Y-101642857D01*
X107304761Y-101738095D01*
X107257142Y-101785714D01*
X107161904Y-101833333D01*
X106971428Y-101880952D01*
X106733333Y-101880952D01*
X106542857Y-101833333D01*
X106447619Y-101785714D01*
X106400000Y-101738095D01*
X106352380Y-101642857D01*
X106828571Y-100880952D02*
X106828571Y-100547619D01*
X107352380Y-100404761D02*
X107352380Y-100880952D01*
X106352380Y-100880952D01*
X106352380Y-100404761D01*
X107352380Y-99976190D02*
X106352380Y-99976190D01*
X107066666Y-99642857D01*
X106352380Y-99309523D01*
X107352380Y-99309523D01*
X107304761Y-98880952D02*
X107352380Y-98738095D01*
X107352380Y-98500000D01*
X107304761Y-98404761D01*
X107257142Y-98357142D01*
X107161904Y-98309523D01*
X107066666Y-98309523D01*
X106971428Y-98357142D01*
X106923809Y-98404761D01*
X106876190Y-98500000D01*
X106828571Y-98690476D01*
X106780952Y-98785714D01*
X106733333Y-98833333D01*
X106638095Y-98880952D01*
X106542857Y-98880952D01*
X106447619Y-98833333D01*
X106400000Y-98785714D01*
X106352380Y-98690476D01*
X106352380Y-98452380D01*
X106400000Y-98309523D01*
X106828571Y-97880952D02*
X106828571Y-97547619D01*
X107352380Y-97404761D02*
X107352380Y-97880952D01*
X106352380Y-97880952D01*
X106352380Y-97404761D01*
X106971428Y-96976190D02*
X106971428Y-96214285D01*
X106780952Y-95595238D02*
X106733333Y-95690476D01*
X106685714Y-95738095D01*
X106590476Y-95785714D01*
X106542857Y-95785714D01*
X106447619Y-95738095D01*
X106400000Y-95690476D01*
X106352380Y-95595238D01*
X106352380Y-95404761D01*
X106400000Y-95309523D01*
X106447619Y-95261904D01*
X106542857Y-95214285D01*
X106590476Y-95214285D01*
X106685714Y-95261904D01*
X106733333Y-95309523D01*
X106780952Y-95404761D01*
X106780952Y-95595238D01*
X106828571Y-95690476D01*
X106876190Y-95738095D01*
X106971428Y-95785714D01*
X107161904Y-95785714D01*
X107257142Y-95738095D01*
X107304761Y-95690476D01*
X107352380Y-95595238D01*
X107352380Y-95404761D01*
X107304761Y-95309523D01*
X107257142Y-95261904D01*
X107161904Y-95214285D01*
X106971428Y-95214285D01*
X106876190Y-95261904D01*
X106828571Y-95309523D01*
X106780952Y-95404761D01*
X107257142Y-94785714D02*
X107304761Y-94738095D01*
X107352380Y-94785714D01*
X107304761Y-94833333D01*
X107257142Y-94785714D01*
X107352380Y-94785714D01*
X106685714Y-93880952D02*
X107352380Y-93880952D01*
X106304761Y-94119047D02*
X107019047Y-94357142D01*
X107019047Y-93738095D01*
X106971428Y-93357142D02*
X106971428Y-92595238D01*
X107352380Y-92119047D02*
X106352380Y-92119047D01*
X106352380Y-91738095D01*
X106400000Y-91642857D01*
X106447619Y-91595238D01*
X106542857Y-91547619D01*
X106685714Y-91547619D01*
X106780952Y-91595238D01*
X106828571Y-91642857D01*
X106876190Y-91738095D01*
X106876190Y-92119047D01*
X106828571Y-90785714D02*
X106876190Y-90642857D01*
X106923809Y-90595238D01*
X107019047Y-90547619D01*
X107161904Y-90547619D01*
X107257142Y-90595238D01*
X107304761Y-90642857D01*
X107352380Y-90738095D01*
X107352380Y-91119047D01*
X106352380Y-91119047D01*
X106352380Y-90785714D01*
X106400000Y-90690476D01*
X106447619Y-90642857D01*
X106542857Y-90595238D01*
X106638095Y-90595238D01*
X106733333Y-90642857D01*
X106780952Y-90690476D01*
X106828571Y-90785714D01*
X106828571Y-91119047D01*
X106828571Y-89785714D02*
X106828571Y-90119047D01*
X107352380Y-90119047D02*
X106352380Y-90119047D01*
X106352380Y-89642857D01*
X117300000Y-87152380D02*
X117300000Y-87390476D01*
X117061904Y-87295238D02*
X117300000Y-87390476D01*
X117538095Y-87295238D01*
X117157142Y-87580952D02*
X117300000Y-87390476D01*
X117442857Y-87580952D01*
%TO.C,C8*%
X115833333Y-83857142D02*
X115785714Y-83904761D01*
X115642857Y-83952380D01*
X115547619Y-83952380D01*
X115404761Y-83904761D01*
X115309523Y-83809523D01*
X115261904Y-83714285D01*
X115214285Y-83523809D01*
X115214285Y-83380952D01*
X115261904Y-83190476D01*
X115309523Y-83095238D01*
X115404761Y-83000000D01*
X115547619Y-82952380D01*
X115642857Y-82952380D01*
X115785714Y-83000000D01*
X115833333Y-83047619D01*
X116404761Y-83380952D02*
X116309523Y-83333333D01*
X116261904Y-83285714D01*
X116214285Y-83190476D01*
X116214285Y-83142857D01*
X116261904Y-83047619D01*
X116309523Y-83000000D01*
X116404761Y-82952380D01*
X116595238Y-82952380D01*
X116690476Y-83000000D01*
X116738095Y-83047619D01*
X116785714Y-83142857D01*
X116785714Y-83190476D01*
X116738095Y-83285714D01*
X116690476Y-83333333D01*
X116595238Y-83380952D01*
X116404761Y-83380952D01*
X116309523Y-83428571D01*
X116261904Y-83476190D01*
X116214285Y-83571428D01*
X116214285Y-83761904D01*
X116261904Y-83857142D01*
X116309523Y-83904761D01*
X116404761Y-83952380D01*
X116595238Y-83952380D01*
X116690476Y-83904761D01*
X116738095Y-83857142D01*
X116785714Y-83761904D01*
X116785714Y-83571428D01*
X116738095Y-83476190D01*
X116690476Y-83428571D01*
X116595238Y-83380952D01*
%TO.C,D3*%
X115152380Y-79588095D02*
X114152380Y-79588095D01*
X114152380Y-79350000D01*
X114200000Y-79207142D01*
X114295238Y-79111904D01*
X114390476Y-79064285D01*
X114580952Y-79016666D01*
X114723809Y-79016666D01*
X114914285Y-79064285D01*
X115009523Y-79111904D01*
X115104761Y-79207142D01*
X115152380Y-79350000D01*
X115152380Y-79588095D01*
X114152380Y-78683333D02*
X114152380Y-78064285D01*
X114533333Y-78397619D01*
X114533333Y-78254761D01*
X114580952Y-78159523D01*
X114628571Y-78111904D01*
X114723809Y-78064285D01*
X114961904Y-78064285D01*
X115057142Y-78111904D01*
X115104761Y-78159523D01*
X115152380Y-78254761D01*
X115152380Y-78540476D01*
X115104761Y-78635714D01*
X115057142Y-78683333D01*
%TO.C,C13*%
X117557142Y-109842857D02*
X117604761Y-109890476D01*
X117652380Y-110033333D01*
X117652380Y-110128571D01*
X117604761Y-110271428D01*
X117509523Y-110366666D01*
X117414285Y-110414285D01*
X117223809Y-110461904D01*
X117080952Y-110461904D01*
X116890476Y-110414285D01*
X116795238Y-110366666D01*
X116700000Y-110271428D01*
X116652380Y-110128571D01*
X116652380Y-110033333D01*
X116700000Y-109890476D01*
X116747619Y-109842857D01*
X117652380Y-108890476D02*
X117652380Y-109461904D01*
X117652380Y-109176190D02*
X116652380Y-109176190D01*
X116795238Y-109271428D01*
X116890476Y-109366666D01*
X116938095Y-109461904D01*
X116652380Y-108557142D02*
X116652380Y-107938095D01*
X117033333Y-108271428D01*
X117033333Y-108128571D01*
X117080952Y-108033333D01*
X117128571Y-107985714D01*
X117223809Y-107938095D01*
X117461904Y-107938095D01*
X117557142Y-107985714D01*
X117604761Y-108033333D01*
X117652380Y-108128571D01*
X117652380Y-108414285D01*
X117604761Y-108509523D01*
X117557142Y-108557142D01*
%TO.C,D5*%
X108352380Y-89238095D02*
X107352380Y-89238095D01*
X107352380Y-89000000D01*
X107400000Y-88857142D01*
X107495238Y-88761904D01*
X107590476Y-88714285D01*
X107780952Y-88666666D01*
X107923809Y-88666666D01*
X108114285Y-88714285D01*
X108209523Y-88761904D01*
X108304761Y-88857142D01*
X108352380Y-89000000D01*
X108352380Y-89238095D01*
X107352380Y-87761904D02*
X107352380Y-88238095D01*
X107828571Y-88285714D01*
X107780952Y-88238095D01*
X107733333Y-88142857D01*
X107733333Y-87904761D01*
X107780952Y-87809523D01*
X107828571Y-87761904D01*
X107923809Y-87714285D01*
X108161904Y-87714285D01*
X108257142Y-87761904D01*
X108304761Y-87809523D01*
X108352380Y-87904761D01*
X108352380Y-88142857D01*
X108304761Y-88238095D01*
X108257142Y-88285714D01*
%TO.C,R14*%
X156419642Y-81264880D02*
X156086309Y-80788690D01*
X155848214Y-81264880D02*
X155848214Y-80264880D01*
X156229166Y-80264880D01*
X156324404Y-80312500D01*
X156372023Y-80360119D01*
X156419642Y-80455357D01*
X156419642Y-80598214D01*
X156372023Y-80693452D01*
X156324404Y-80741071D01*
X156229166Y-80788690D01*
X155848214Y-80788690D01*
X157372023Y-81264880D02*
X156800595Y-81264880D01*
X157086309Y-81264880D02*
X157086309Y-80264880D01*
X156991071Y-80407738D01*
X156895833Y-80502976D01*
X156800595Y-80550595D01*
X158229166Y-80598214D02*
X158229166Y-81264880D01*
X157991071Y-80217261D02*
X157752976Y-80931547D01*
X158372023Y-80931547D01*
%TO.C,J6*%
X130366666Y-89852380D02*
X130366666Y-90566666D01*
X130319047Y-90709523D01*
X130223809Y-90804761D01*
X130080952Y-90852380D01*
X129985714Y-90852380D01*
X131271428Y-89852380D02*
X131080952Y-89852380D01*
X130985714Y-89900000D01*
X130938095Y-89947619D01*
X130842857Y-90090476D01*
X130795238Y-90280952D01*
X130795238Y-90661904D01*
X130842857Y-90757142D01*
X130890476Y-90804761D01*
X130985714Y-90852380D01*
X131176190Y-90852380D01*
X131271428Y-90804761D01*
X131319047Y-90757142D01*
X131366666Y-90661904D01*
X131366666Y-90423809D01*
X131319047Y-90328571D01*
X131271428Y-90280952D01*
X131176190Y-90233333D01*
X130985714Y-90233333D01*
X130890476Y-90280952D01*
X130842857Y-90328571D01*
X130795238Y-90423809D01*
%TO.C,U2*%
X124638095Y-132152380D02*
X124638095Y-132961904D01*
X124685714Y-133057142D01*
X124733333Y-133104761D01*
X124828571Y-133152380D01*
X125019047Y-133152380D01*
X125114285Y-133104761D01*
X125161904Y-133057142D01*
X125209523Y-132961904D01*
X125209523Y-132152380D01*
X125638095Y-132247619D02*
X125685714Y-132200000D01*
X125780952Y-132152380D01*
X126019047Y-132152380D01*
X126114285Y-132200000D01*
X126161904Y-132247619D01*
X126209523Y-132342857D01*
X126209523Y-132438095D01*
X126161904Y-132580952D01*
X125590476Y-133152380D01*
X126209523Y-133152380D01*
%TO.C,L1*%
X136833333Y-123352380D02*
X136357142Y-123352380D01*
X136357142Y-122352380D01*
X137690476Y-123352380D02*
X137119047Y-123352380D01*
X137404761Y-123352380D02*
X137404761Y-122352380D01*
X137309523Y-122495238D01*
X137214285Y-122590476D01*
X137119047Y-122638095D01*
%TO.C,R2*%
X148583333Y-133752380D02*
X148250000Y-133276190D01*
X148011904Y-133752380D02*
X148011904Y-132752380D01*
X148392857Y-132752380D01*
X148488095Y-132800000D01*
X148535714Y-132847619D01*
X148583333Y-132942857D01*
X148583333Y-133085714D01*
X148535714Y-133180952D01*
X148488095Y-133228571D01*
X148392857Y-133276190D01*
X148011904Y-133276190D01*
X148964285Y-132847619D02*
X149011904Y-132800000D01*
X149107142Y-132752380D01*
X149345238Y-132752380D01*
X149440476Y-132800000D01*
X149488095Y-132847619D01*
X149535714Y-132942857D01*
X149535714Y-133038095D01*
X149488095Y-133180952D01*
X148916666Y-133752380D01*
X149535714Y-133752380D01*
%TO.C,J4*%
X164907380Y-83233333D02*
X165621666Y-83233333D01*
X165764523Y-83280952D01*
X165859761Y-83376190D01*
X165907380Y-83519047D01*
X165907380Y-83614285D01*
X165240714Y-82328571D02*
X165907380Y-82328571D01*
X164859761Y-82566666D02*
X165574047Y-82804761D01*
X165574047Y-82185714D01*
%TO.C,R8*%
X129970833Y-118732380D02*
X129637500Y-118256190D01*
X129399404Y-118732380D02*
X129399404Y-117732380D01*
X129780357Y-117732380D01*
X129875595Y-117780000D01*
X129923214Y-117827619D01*
X129970833Y-117922857D01*
X129970833Y-118065714D01*
X129923214Y-118160952D01*
X129875595Y-118208571D01*
X129780357Y-118256190D01*
X129399404Y-118256190D01*
X130542261Y-118160952D02*
X130447023Y-118113333D01*
X130399404Y-118065714D01*
X130351785Y-117970476D01*
X130351785Y-117922857D01*
X130399404Y-117827619D01*
X130447023Y-117780000D01*
X130542261Y-117732380D01*
X130732738Y-117732380D01*
X130827976Y-117780000D01*
X130875595Y-117827619D01*
X130923214Y-117922857D01*
X130923214Y-117970476D01*
X130875595Y-118065714D01*
X130827976Y-118113333D01*
X130732738Y-118160952D01*
X130542261Y-118160952D01*
X130447023Y-118208571D01*
X130399404Y-118256190D01*
X130351785Y-118351428D01*
X130351785Y-118541904D01*
X130399404Y-118637142D01*
X130447023Y-118684761D01*
X130542261Y-118732380D01*
X130732738Y-118732380D01*
X130827976Y-118684761D01*
X130875595Y-118637142D01*
X130923214Y-118541904D01*
X130923214Y-118351428D01*
X130875595Y-118256190D01*
X130827976Y-118208571D01*
X130732738Y-118160952D01*
%TO.C,R11*%
X124072380Y-110205357D02*
X123596190Y-110538690D01*
X124072380Y-110776785D02*
X123072380Y-110776785D01*
X123072380Y-110395833D01*
X123120000Y-110300595D01*
X123167619Y-110252976D01*
X123262857Y-110205357D01*
X123405714Y-110205357D01*
X123500952Y-110252976D01*
X123548571Y-110300595D01*
X123596190Y-110395833D01*
X123596190Y-110776785D01*
X124072380Y-109252976D02*
X124072380Y-109824404D01*
X124072380Y-109538690D02*
X123072380Y-109538690D01*
X123215238Y-109633928D01*
X123310476Y-109729166D01*
X123358095Y-109824404D01*
X124072380Y-108300595D02*
X124072380Y-108872023D01*
X124072380Y-108586309D02*
X123072380Y-108586309D01*
X123215238Y-108681547D01*
X123310476Y-108776785D01*
X123358095Y-108872023D01*
%TO.C,R5*%
X129952380Y-95466666D02*
X129476190Y-95800000D01*
X129952380Y-96038095D02*
X128952380Y-96038095D01*
X128952380Y-95657142D01*
X129000000Y-95561904D01*
X129047619Y-95514285D01*
X129142857Y-95466666D01*
X129285714Y-95466666D01*
X129380952Y-95514285D01*
X129428571Y-95561904D01*
X129476190Y-95657142D01*
X129476190Y-96038095D01*
X128952380Y-94561904D02*
X128952380Y-95038095D01*
X129428571Y-95085714D01*
X129380952Y-95038095D01*
X129333333Y-94942857D01*
X129333333Y-94704761D01*
X129380952Y-94609523D01*
X129428571Y-94561904D01*
X129523809Y-94514285D01*
X129761904Y-94514285D01*
X129857142Y-94561904D01*
X129904761Y-94609523D01*
X129952380Y-94704761D01*
X129952380Y-94942857D01*
X129904761Y-95038095D01*
X129857142Y-95085714D01*
%TO.C,R6*%
X114095833Y-113672380D02*
X113762500Y-113196190D01*
X113524404Y-113672380D02*
X113524404Y-112672380D01*
X113905357Y-112672380D01*
X114000595Y-112720000D01*
X114048214Y-112767619D01*
X114095833Y-112862857D01*
X114095833Y-113005714D01*
X114048214Y-113100952D01*
X114000595Y-113148571D01*
X113905357Y-113196190D01*
X113524404Y-113196190D01*
X114952976Y-112672380D02*
X114762500Y-112672380D01*
X114667261Y-112720000D01*
X114619642Y-112767619D01*
X114524404Y-112910476D01*
X114476785Y-113100952D01*
X114476785Y-113481904D01*
X114524404Y-113577142D01*
X114572023Y-113624761D01*
X114667261Y-113672380D01*
X114857738Y-113672380D01*
X114952976Y-113624761D01*
X115000595Y-113577142D01*
X115048214Y-113481904D01*
X115048214Y-113243809D01*
X115000595Y-113148571D01*
X114952976Y-113100952D01*
X114857738Y-113053333D01*
X114667261Y-113053333D01*
X114572023Y-113100952D01*
X114524404Y-113148571D01*
X114476785Y-113243809D01*
%TO.C,J12*%
X109590476Y-82082380D02*
X109590476Y-82796666D01*
X109542857Y-82939523D01*
X109447619Y-83034761D01*
X109304761Y-83082380D01*
X109209523Y-83082380D01*
X110590476Y-83082380D02*
X110019047Y-83082380D01*
X110304761Y-83082380D02*
X110304761Y-82082380D01*
X110209523Y-82225238D01*
X110114285Y-82320476D01*
X110019047Y-82368095D01*
X110971428Y-82177619D02*
X111019047Y-82130000D01*
X111114285Y-82082380D01*
X111352380Y-82082380D01*
X111447619Y-82130000D01*
X111495238Y-82177619D01*
X111542857Y-82272857D01*
X111542857Y-82368095D01*
X111495238Y-82510952D01*
X110923809Y-83082380D01*
X111542857Y-83082380D01*
%TO.C,C6*%
X115433333Y-138057142D02*
X115385714Y-138104761D01*
X115242857Y-138152380D01*
X115147619Y-138152380D01*
X115004761Y-138104761D01*
X114909523Y-138009523D01*
X114861904Y-137914285D01*
X114814285Y-137723809D01*
X114814285Y-137580952D01*
X114861904Y-137390476D01*
X114909523Y-137295238D01*
X115004761Y-137200000D01*
X115147619Y-137152380D01*
X115242857Y-137152380D01*
X115385714Y-137200000D01*
X115433333Y-137247619D01*
X116290476Y-137152380D02*
X116100000Y-137152380D01*
X116004761Y-137200000D01*
X115957142Y-137247619D01*
X115861904Y-137390476D01*
X115814285Y-137580952D01*
X115814285Y-137961904D01*
X115861904Y-138057142D01*
X115909523Y-138104761D01*
X116004761Y-138152380D01*
X116195238Y-138152380D01*
X116290476Y-138104761D01*
X116338095Y-138057142D01*
X116385714Y-137961904D01*
X116385714Y-137723809D01*
X116338095Y-137628571D01*
X116290476Y-137580952D01*
X116195238Y-137533333D01*
X116004761Y-137533333D01*
X115909523Y-137580952D01*
X115861904Y-137628571D01*
X115814285Y-137723809D01*
%TO.C,D1*%
X114652380Y-102538095D02*
X113652380Y-102538095D01*
X113652380Y-102300000D01*
X113700000Y-102157142D01*
X113795238Y-102061904D01*
X113890476Y-102014285D01*
X114080952Y-101966666D01*
X114223809Y-101966666D01*
X114414285Y-102014285D01*
X114509523Y-102061904D01*
X114604761Y-102157142D01*
X114652380Y-102300000D01*
X114652380Y-102538095D01*
X114652380Y-101014285D02*
X114652380Y-101585714D01*
X114652380Y-101300000D02*
X113652380Y-101300000D01*
X113795238Y-101395238D01*
X113890476Y-101490476D01*
X113938095Y-101585714D01*
%TO.C,C9*%
X122457142Y-87066666D02*
X122504761Y-87114285D01*
X122552380Y-87257142D01*
X122552380Y-87352380D01*
X122504761Y-87495238D01*
X122409523Y-87590476D01*
X122314285Y-87638095D01*
X122123809Y-87685714D01*
X121980952Y-87685714D01*
X121790476Y-87638095D01*
X121695238Y-87590476D01*
X121600000Y-87495238D01*
X121552380Y-87352380D01*
X121552380Y-87257142D01*
X121600000Y-87114285D01*
X121647619Y-87066666D01*
X122552380Y-86590476D02*
X122552380Y-86400000D01*
X122504761Y-86304761D01*
X122457142Y-86257142D01*
X122314285Y-86161904D01*
X122123809Y-86114285D01*
X121742857Y-86114285D01*
X121647619Y-86161904D01*
X121600000Y-86209523D01*
X121552380Y-86304761D01*
X121552380Y-86495238D01*
X121600000Y-86590476D01*
X121647619Y-86638095D01*
X121742857Y-86685714D01*
X121980952Y-86685714D01*
X122076190Y-86638095D01*
X122123809Y-86590476D01*
X122171428Y-86495238D01*
X122171428Y-86304761D01*
X122123809Y-86209523D01*
X122076190Y-86161904D01*
X121980952Y-86114285D01*
%TO.C,J2*%
X165262380Y-71833333D02*
X165976666Y-71833333D01*
X166119523Y-71880952D01*
X166214761Y-71976190D01*
X166262380Y-72119047D01*
X166262380Y-72214285D01*
X165357619Y-71404761D02*
X165310000Y-71357142D01*
X165262380Y-71261904D01*
X165262380Y-71023809D01*
X165310000Y-70928571D01*
X165357619Y-70880952D01*
X165452857Y-70833333D01*
X165548095Y-70833333D01*
X165690952Y-70880952D01*
X166262380Y-71452380D01*
X166262380Y-70833333D01*
%TO.C,C12*%
X162757142Y-89107142D02*
X162709523Y-89154761D01*
X162566666Y-89202380D01*
X162471428Y-89202380D01*
X162328571Y-89154761D01*
X162233333Y-89059523D01*
X162185714Y-88964285D01*
X162138095Y-88773809D01*
X162138095Y-88630952D01*
X162185714Y-88440476D01*
X162233333Y-88345238D01*
X162328571Y-88250000D01*
X162471428Y-88202380D01*
X162566666Y-88202380D01*
X162709523Y-88250000D01*
X162757142Y-88297619D01*
X163709523Y-89202380D02*
X163138095Y-89202380D01*
X163423809Y-89202380D02*
X163423809Y-88202380D01*
X163328571Y-88345238D01*
X163233333Y-88440476D01*
X163138095Y-88488095D01*
X164090476Y-88297619D02*
X164138095Y-88250000D01*
X164233333Y-88202380D01*
X164471428Y-88202380D01*
X164566666Y-88250000D01*
X164614285Y-88297619D01*
X164661904Y-88392857D01*
X164661904Y-88488095D01*
X164614285Y-88630952D01*
X164042857Y-89202380D01*
X164661904Y-89202380D01*
%TO.C,C2*%
X160233333Y-92857142D02*
X160185714Y-92904761D01*
X160042857Y-92952380D01*
X159947619Y-92952380D01*
X159804761Y-92904761D01*
X159709523Y-92809523D01*
X159661904Y-92714285D01*
X159614285Y-92523809D01*
X159614285Y-92380952D01*
X159661904Y-92190476D01*
X159709523Y-92095238D01*
X159804761Y-92000000D01*
X159947619Y-91952380D01*
X160042857Y-91952380D01*
X160185714Y-92000000D01*
X160233333Y-92047619D01*
X160614285Y-92047619D02*
X160661904Y-92000000D01*
X160757142Y-91952380D01*
X160995238Y-91952380D01*
X161090476Y-92000000D01*
X161138095Y-92047619D01*
X161185714Y-92142857D01*
X161185714Y-92238095D01*
X161138095Y-92380952D01*
X160566666Y-92952380D01*
X161185714Y-92952380D01*
%TO.C,R10*%
X156219642Y-89172380D02*
X155886309Y-88696190D01*
X155648214Y-89172380D02*
X155648214Y-88172380D01*
X156029166Y-88172380D01*
X156124404Y-88220000D01*
X156172023Y-88267619D01*
X156219642Y-88362857D01*
X156219642Y-88505714D01*
X156172023Y-88600952D01*
X156124404Y-88648571D01*
X156029166Y-88696190D01*
X155648214Y-88696190D01*
X157172023Y-89172380D02*
X156600595Y-89172380D01*
X156886309Y-89172380D02*
X156886309Y-88172380D01*
X156791071Y-88315238D01*
X156695833Y-88410476D01*
X156600595Y-88458095D01*
X157791071Y-88172380D02*
X157886309Y-88172380D01*
X157981547Y-88220000D01*
X158029166Y-88267619D01*
X158076785Y-88362857D01*
X158124404Y-88553333D01*
X158124404Y-88791428D01*
X158076785Y-88981904D01*
X158029166Y-89077142D01*
X157981547Y-89124761D01*
X157886309Y-89172380D01*
X157791071Y-89172380D01*
X157695833Y-89124761D01*
X157648214Y-89077142D01*
X157600595Y-88981904D01*
X157552976Y-88791428D01*
X157552976Y-88553333D01*
X157600595Y-88362857D01*
X157648214Y-88267619D01*
X157695833Y-88220000D01*
X157791071Y-88172380D01*
%TO.C,C7*%
X154758333Y-130957142D02*
X154710714Y-131004761D01*
X154567857Y-131052380D01*
X154472619Y-131052380D01*
X154329761Y-131004761D01*
X154234523Y-130909523D01*
X154186904Y-130814285D01*
X154139285Y-130623809D01*
X154139285Y-130480952D01*
X154186904Y-130290476D01*
X154234523Y-130195238D01*
X154329761Y-130100000D01*
X154472619Y-130052380D01*
X154567857Y-130052380D01*
X154710714Y-130100000D01*
X154758333Y-130147619D01*
X155091666Y-130052380D02*
X155758333Y-130052380D01*
X155329761Y-131052380D01*
%TO.C,R4*%
X110832380Y-95804166D02*
X110356190Y-96137500D01*
X110832380Y-96375595D02*
X109832380Y-96375595D01*
X109832380Y-95994642D01*
X109880000Y-95899404D01*
X109927619Y-95851785D01*
X110022857Y-95804166D01*
X110165714Y-95804166D01*
X110260952Y-95851785D01*
X110308571Y-95899404D01*
X110356190Y-95994642D01*
X110356190Y-96375595D01*
X110165714Y-94947023D02*
X110832380Y-94947023D01*
X109784761Y-95185119D02*
X110499047Y-95423214D01*
X110499047Y-94804166D01*
%TO.C,J1*%
X164982380Y-119033333D02*
X165696666Y-119033333D01*
X165839523Y-119080952D01*
X165934761Y-119176190D01*
X165982380Y-119319047D01*
X165982380Y-119414285D01*
X165982380Y-118033333D02*
X165982380Y-118604761D01*
X165982380Y-118319047D02*
X164982380Y-118319047D01*
X165125238Y-118414285D01*
X165220476Y-118509523D01*
X165268095Y-118604761D01*
%TO.C,C1*%
X130433333Y-93257142D02*
X130385714Y-93304761D01*
X130242857Y-93352380D01*
X130147619Y-93352380D01*
X130004761Y-93304761D01*
X129909523Y-93209523D01*
X129861904Y-93114285D01*
X129814285Y-92923809D01*
X129814285Y-92780952D01*
X129861904Y-92590476D01*
X129909523Y-92495238D01*
X130004761Y-92400000D01*
X130147619Y-92352380D01*
X130242857Y-92352380D01*
X130385714Y-92400000D01*
X130433333Y-92447619D01*
X131385714Y-93352380D02*
X130814285Y-93352380D01*
X131100000Y-93352380D02*
X131100000Y-92352380D01*
X131004761Y-92495238D01*
X130909523Y-92590476D01*
X130814285Y-92638095D01*
%TO.C,R7*%
X108552380Y-109104166D02*
X108076190Y-109437500D01*
X108552380Y-109675595D02*
X107552380Y-109675595D01*
X107552380Y-109294642D01*
X107600000Y-109199404D01*
X107647619Y-109151785D01*
X107742857Y-109104166D01*
X107885714Y-109104166D01*
X107980952Y-109151785D01*
X108028571Y-109199404D01*
X108076190Y-109294642D01*
X108076190Y-109675595D01*
X107552380Y-108770833D02*
X107552380Y-108104166D01*
X108552380Y-108532738D01*
%TO.C,D2*%
X110552380Y-102438095D02*
X109552380Y-102438095D01*
X109552380Y-102200000D01*
X109600000Y-102057142D01*
X109695238Y-101961904D01*
X109790476Y-101914285D01*
X109980952Y-101866666D01*
X110123809Y-101866666D01*
X110314285Y-101914285D01*
X110409523Y-101961904D01*
X110504761Y-102057142D01*
X110552380Y-102200000D01*
X110552380Y-102438095D01*
X109647619Y-101485714D02*
X109600000Y-101438095D01*
X109552380Y-101342857D01*
X109552380Y-101104761D01*
X109600000Y-101009523D01*
X109647619Y-100961904D01*
X109742857Y-100914285D01*
X109838095Y-100914285D01*
X109980952Y-100961904D01*
X110552380Y-101533333D01*
X110552380Y-100914285D01*
%TO.C,R12*%
X114557142Y-129152380D02*
X114223809Y-128676190D01*
X113985714Y-129152380D02*
X113985714Y-128152380D01*
X114366666Y-128152380D01*
X114461904Y-128200000D01*
X114509523Y-128247619D01*
X114557142Y-128342857D01*
X114557142Y-128485714D01*
X114509523Y-128580952D01*
X114461904Y-128628571D01*
X114366666Y-128676190D01*
X113985714Y-128676190D01*
X115509523Y-129152380D02*
X114938095Y-129152380D01*
X115223809Y-129152380D02*
X115223809Y-128152380D01*
X115128571Y-128295238D01*
X115033333Y-128390476D01*
X114938095Y-128438095D01*
X115890476Y-128247619D02*
X115938095Y-128200000D01*
X116033333Y-128152380D01*
X116271428Y-128152380D01*
X116366666Y-128200000D01*
X116414285Y-128247619D01*
X116461904Y-128342857D01*
X116461904Y-128438095D01*
X116414285Y-128580952D01*
X115842857Y-129152380D01*
X116461904Y-129152380D01*
%TO.C,R1*%
X147633333Y-136052380D02*
X147300000Y-135576190D01*
X147061904Y-136052380D02*
X147061904Y-135052380D01*
X147442857Y-135052380D01*
X147538095Y-135100000D01*
X147585714Y-135147619D01*
X147633333Y-135242857D01*
X147633333Y-135385714D01*
X147585714Y-135480952D01*
X147538095Y-135528571D01*
X147442857Y-135576190D01*
X147061904Y-135576190D01*
X148585714Y-136052380D02*
X148014285Y-136052380D01*
X148300000Y-136052380D02*
X148300000Y-135052380D01*
X148204761Y-135195238D01*
X148109523Y-135290476D01*
X148014285Y-135338095D01*
%TO.C,J13*%
X119890476Y-102252380D02*
X119890476Y-102966666D01*
X119842857Y-103109523D01*
X119747619Y-103204761D01*
X119604761Y-103252380D01*
X119509523Y-103252380D01*
X120890476Y-103252380D02*
X120319047Y-103252380D01*
X120604761Y-103252380D02*
X120604761Y-102252380D01*
X120509523Y-102395238D01*
X120414285Y-102490476D01*
X120319047Y-102538095D01*
X121223809Y-102252380D02*
X121842857Y-102252380D01*
X121509523Y-102633333D01*
X121652380Y-102633333D01*
X121747619Y-102680952D01*
X121795238Y-102728571D01*
X121842857Y-102823809D01*
X121842857Y-103061904D01*
X121795238Y-103157142D01*
X121747619Y-103204761D01*
X121652380Y-103252380D01*
X121366666Y-103252380D01*
X121271428Y-103204761D01*
X121223809Y-103157142D01*
%TO.C,C14*%
X163144642Y-81249642D02*
X163097023Y-81297261D01*
X162954166Y-81344880D01*
X162858928Y-81344880D01*
X162716071Y-81297261D01*
X162620833Y-81202023D01*
X162573214Y-81106785D01*
X162525595Y-80916309D01*
X162525595Y-80773452D01*
X162573214Y-80582976D01*
X162620833Y-80487738D01*
X162716071Y-80392500D01*
X162858928Y-80344880D01*
X162954166Y-80344880D01*
X163097023Y-80392500D01*
X163144642Y-80440119D01*
X164097023Y-81344880D02*
X163525595Y-81344880D01*
X163811309Y-81344880D02*
X163811309Y-80344880D01*
X163716071Y-80487738D01*
X163620833Y-80582976D01*
X163525595Y-80630595D01*
X164954166Y-80678214D02*
X164954166Y-81344880D01*
X164716071Y-80297261D02*
X164477976Y-81011547D01*
X165097023Y-81011547D01*
%TO.C,J3*%
X165407380Y-75633333D02*
X166121666Y-75633333D01*
X166264523Y-75680952D01*
X166359761Y-75776190D01*
X166407380Y-75919047D01*
X166407380Y-76014285D01*
X165407380Y-75252380D02*
X165407380Y-74633333D01*
X165788333Y-74966666D01*
X165788333Y-74823809D01*
X165835952Y-74728571D01*
X165883571Y-74680952D01*
X165978809Y-74633333D01*
X166216904Y-74633333D01*
X166312142Y-74680952D01*
X166359761Y-74728571D01*
X166407380Y-74823809D01*
X166407380Y-75109523D01*
X166359761Y-75204761D01*
X166312142Y-75252380D01*
%TO.C,C3*%
X160433333Y-98257142D02*
X160385714Y-98304761D01*
X160242857Y-98352380D01*
X160147619Y-98352380D01*
X160004761Y-98304761D01*
X159909523Y-98209523D01*
X159861904Y-98114285D01*
X159814285Y-97923809D01*
X159814285Y-97780952D01*
X159861904Y-97590476D01*
X159909523Y-97495238D01*
X160004761Y-97400000D01*
X160147619Y-97352380D01*
X160242857Y-97352380D01*
X160385714Y-97400000D01*
X160433333Y-97447619D01*
X160766666Y-97352380D02*
X161385714Y-97352380D01*
X161052380Y-97733333D01*
X161195238Y-97733333D01*
X161290476Y-97780952D01*
X161338095Y-97828571D01*
X161385714Y-97923809D01*
X161385714Y-98161904D01*
X161338095Y-98257142D01*
X161290476Y-98304761D01*
X161195238Y-98352380D01*
X160909523Y-98352380D01*
X160814285Y-98304761D01*
X160766666Y-98257142D01*
%TO.C,R13*%
X114857142Y-131152380D02*
X114523809Y-130676190D01*
X114285714Y-131152380D02*
X114285714Y-130152380D01*
X114666666Y-130152380D01*
X114761904Y-130200000D01*
X114809523Y-130247619D01*
X114857142Y-130342857D01*
X114857142Y-130485714D01*
X114809523Y-130580952D01*
X114761904Y-130628571D01*
X114666666Y-130676190D01*
X114285714Y-130676190D01*
X115809523Y-131152380D02*
X115238095Y-131152380D01*
X115523809Y-131152380D02*
X115523809Y-130152380D01*
X115428571Y-130295238D01*
X115333333Y-130390476D01*
X115238095Y-130438095D01*
X116142857Y-130152380D02*
X116761904Y-130152380D01*
X116428571Y-130533333D01*
X116571428Y-130533333D01*
X116666666Y-130580952D01*
X116714285Y-130628571D01*
X116761904Y-130723809D01*
X116761904Y-130961904D01*
X116714285Y-131057142D01*
X116666666Y-131104761D01*
X116571428Y-131152380D01*
X116285714Y-131152380D01*
X116190476Y-131104761D01*
X116142857Y-131057142D01*
%TO.C,C11*%
X123132142Y-127057142D02*
X123084523Y-127104761D01*
X122941666Y-127152380D01*
X122846428Y-127152380D01*
X122703571Y-127104761D01*
X122608333Y-127009523D01*
X122560714Y-126914285D01*
X122513095Y-126723809D01*
X122513095Y-126580952D01*
X122560714Y-126390476D01*
X122608333Y-126295238D01*
X122703571Y-126200000D01*
X122846428Y-126152380D01*
X122941666Y-126152380D01*
X123084523Y-126200000D01*
X123132142Y-126247619D01*
X124084523Y-127152380D02*
X123513095Y-127152380D01*
X123798809Y-127152380D02*
X123798809Y-126152380D01*
X123703571Y-126295238D01*
X123608333Y-126390476D01*
X123513095Y-126438095D01*
X125036904Y-127152380D02*
X124465476Y-127152380D01*
X124751190Y-127152380D02*
X124751190Y-126152380D01*
X124655952Y-126295238D01*
X124560714Y-126390476D01*
X124465476Y-126438095D01*
%TO.C,D7*%
X122661904Y-116752380D02*
X122661904Y-115752380D01*
X122900000Y-115752380D01*
X123042857Y-115800000D01*
X123138095Y-115895238D01*
X123185714Y-115990476D01*
X123233333Y-116180952D01*
X123233333Y-116323809D01*
X123185714Y-116514285D01*
X123138095Y-116609523D01*
X123042857Y-116704761D01*
X122900000Y-116752380D01*
X122661904Y-116752380D01*
X123566666Y-115752380D02*
X124233333Y-115752380D01*
X123804761Y-116752380D01*
%TO.C,D6*%
X154761904Y-125152380D02*
X154761904Y-124152380D01*
X155000000Y-124152380D01*
X155142857Y-124200000D01*
X155238095Y-124295238D01*
X155285714Y-124390476D01*
X155333333Y-124580952D01*
X155333333Y-124723809D01*
X155285714Y-124914285D01*
X155238095Y-125009523D01*
X155142857Y-125104761D01*
X155000000Y-125152380D01*
X154761904Y-125152380D01*
X156190476Y-124152380D02*
X156000000Y-124152380D01*
X155904761Y-124200000D01*
X155857142Y-124247619D01*
X155761904Y-124390476D01*
X155714285Y-124580952D01*
X155714285Y-124961904D01*
X155761904Y-125057142D01*
X155809523Y-125104761D01*
X155904761Y-125152380D01*
X156095238Y-125152380D01*
X156190476Y-125104761D01*
X156238095Y-125057142D01*
X156285714Y-124961904D01*
X156285714Y-124723809D01*
X156238095Y-124628571D01*
X156190476Y-124580952D01*
X156095238Y-124533333D01*
X155904761Y-124533333D01*
X155809523Y-124580952D01*
X155761904Y-124628571D01*
X155714285Y-124723809D01*
%TO.C,R9*%
X123533333Y-120752380D02*
X123200000Y-120276190D01*
X122961904Y-120752380D02*
X122961904Y-119752380D01*
X123342857Y-119752380D01*
X123438095Y-119800000D01*
X123485714Y-119847619D01*
X123533333Y-119942857D01*
X123533333Y-120085714D01*
X123485714Y-120180952D01*
X123438095Y-120228571D01*
X123342857Y-120276190D01*
X122961904Y-120276190D01*
X124009523Y-120752380D02*
X124200000Y-120752380D01*
X124295238Y-120704761D01*
X124342857Y-120657142D01*
X124438095Y-120514285D01*
X124485714Y-120323809D01*
X124485714Y-119942857D01*
X124438095Y-119847619D01*
X124390476Y-119800000D01*
X124295238Y-119752380D01*
X124104761Y-119752380D01*
X124009523Y-119800000D01*
X123961904Y-119847619D01*
X123914285Y-119942857D01*
X123914285Y-120180952D01*
X123961904Y-120276190D01*
X124009523Y-120323809D01*
X124104761Y-120371428D01*
X124295238Y-120371428D01*
X124390476Y-120323809D01*
X124438095Y-120276190D01*
X124485714Y-120180952D01*
%TO.C,U4*%
X112738095Y-117452380D02*
X112738095Y-118261904D01*
X112785714Y-118357142D01*
X112833333Y-118404761D01*
X112928571Y-118452380D01*
X113119047Y-118452380D01*
X113214285Y-118404761D01*
X113261904Y-118357142D01*
X113309523Y-118261904D01*
X113309523Y-117452380D01*
X114214285Y-117785714D02*
X114214285Y-118452380D01*
X113976190Y-117404761D02*
X113738095Y-118119047D01*
X114357142Y-118119047D01*
%TO.C,C10*%
X126857142Y-104542857D02*
X126904761Y-104590476D01*
X126952380Y-104733333D01*
X126952380Y-104828571D01*
X126904761Y-104971428D01*
X126809523Y-105066666D01*
X126714285Y-105114285D01*
X126523809Y-105161904D01*
X126380952Y-105161904D01*
X126190476Y-105114285D01*
X126095238Y-105066666D01*
X126000000Y-104971428D01*
X125952380Y-104828571D01*
X125952380Y-104733333D01*
X126000000Y-104590476D01*
X126047619Y-104542857D01*
X126952380Y-103590476D02*
X126952380Y-104161904D01*
X126952380Y-103876190D02*
X125952380Y-103876190D01*
X126095238Y-103971428D01*
X126190476Y-104066666D01*
X126238095Y-104161904D01*
X125952380Y-102971428D02*
X125952380Y-102876190D01*
X126000000Y-102780952D01*
X126047619Y-102733333D01*
X126142857Y-102685714D01*
X126333333Y-102638095D01*
X126571428Y-102638095D01*
X126761904Y-102685714D01*
X126857142Y-102733333D01*
X126904761Y-102780952D01*
X126952380Y-102876190D01*
X126952380Y-102971428D01*
X126904761Y-103066666D01*
X126857142Y-103114285D01*
X126761904Y-103161904D01*
X126571428Y-103209523D01*
X126333333Y-103209523D01*
X126142857Y-103161904D01*
X126047619Y-103114285D01*
X126000000Y-103066666D01*
X125952380Y-102971428D01*
%TO.C,J5*%
X162866666Y-113122380D02*
X162866666Y-113836666D01*
X162819047Y-113979523D01*
X162723809Y-114074761D01*
X162580952Y-114122380D01*
X162485714Y-114122380D01*
X163819047Y-113122380D02*
X163342857Y-113122380D01*
X163295238Y-113598571D01*
X163342857Y-113550952D01*
X163438095Y-113503333D01*
X163676190Y-113503333D01*
X163771428Y-113550952D01*
X163819047Y-113598571D01*
X163866666Y-113693809D01*
X163866666Y-113931904D01*
X163819047Y-114027142D01*
X163771428Y-114074761D01*
X163676190Y-114122380D01*
X163438095Y-114122380D01*
X163342857Y-114074761D01*
X163295238Y-114027142D01*
%TO.C,D4*%
X121852380Y-96638095D02*
X120852380Y-96638095D01*
X120852380Y-96400000D01*
X120900000Y-96257142D01*
X120995238Y-96161904D01*
X121090476Y-96114285D01*
X121280952Y-96066666D01*
X121423809Y-96066666D01*
X121614285Y-96114285D01*
X121709523Y-96161904D01*
X121804761Y-96257142D01*
X121852380Y-96400000D01*
X121852380Y-96638095D01*
X121185714Y-95209523D02*
X121852380Y-95209523D01*
X120804761Y-95447619D02*
X121519047Y-95685714D01*
X121519047Y-95066666D01*
%TO.C,R3*%
X114732380Y-95904166D02*
X114256190Y-96237500D01*
X114732380Y-96475595D02*
X113732380Y-96475595D01*
X113732380Y-96094642D01*
X113780000Y-95999404D01*
X113827619Y-95951785D01*
X113922857Y-95904166D01*
X114065714Y-95904166D01*
X114160952Y-95951785D01*
X114208571Y-95999404D01*
X114256190Y-96094642D01*
X114256190Y-96475595D01*
X113732380Y-95570833D02*
X113732380Y-94951785D01*
X114113333Y-95285119D01*
X114113333Y-95142261D01*
X114160952Y-95047023D01*
X114208571Y-94999404D01*
X114303809Y-94951785D01*
X114541904Y-94951785D01*
X114637142Y-94999404D01*
X114684761Y-95047023D01*
X114732380Y-95142261D01*
X114732380Y-95427976D01*
X114684761Y-95523214D01*
X114637142Y-95570833D01*
D11*
%TO.C,L2*%
X127450000Y-73800000D02*
X124950000Y-73800000D01*
X124950000Y-82200000D02*
X127450000Y-82200000D01*
%TO.C,J7*%
X125570000Y-115810000D02*
X128230000Y-115810000D01*
X125570000Y-110670000D02*
X125570000Y-115810000D01*
X125570000Y-109400000D02*
X125570000Y-108070000D01*
X128230000Y-110670000D02*
X128230000Y-115810000D01*
X125570000Y-108070000D02*
X126900000Y-108070000D01*
X125570000Y-110670000D02*
X128230000Y-110670000D01*
%TO.C,J8*%
X131570000Y-116710000D02*
X134230000Y-116710000D01*
X131570000Y-111570000D02*
X131570000Y-116710000D01*
X131570000Y-110300000D02*
X131570000Y-108970000D01*
X134230000Y-111570000D02*
X134230000Y-116710000D01*
X131570000Y-108970000D02*
X132900000Y-108970000D01*
X131570000Y-111570000D02*
X134230000Y-111570000D01*
%TO.C,C4*%
X131888748Y-105210000D02*
X133311252Y-105210000D01*
X131888748Y-103390000D02*
X133311252Y-103390000D01*
%TO.C,Y1*%
X134500000Y-99350000D02*
X130500000Y-99350000D01*
X134500000Y-102650000D02*
X134500000Y-99350000D01*
%TO.C,U1*%
X143295000Y-70845000D02*
G75*
G03*
X145295000Y-70845000I1000000J0D01*
G01*
X143295000Y-70845000D02*
X137835000Y-70845000D01*
X150755000Y-70845000D02*
X145295000Y-70845000D01*
X137835000Y-70845000D02*
X137835000Y-121765000D01*
X137835000Y-121765000D02*
X150755000Y-121765000D01*
X150755000Y-121765000D02*
X150755000Y-70845000D01*
%TO.C,C5*%
X132911252Y-98610000D02*
X131488748Y-98610000D01*
X132911252Y-96790000D02*
X131488748Y-96790000D01*
%TO.C,U3*%
X120476400Y-88102900D02*
X117123600Y-88102900D01*
X117123600Y-92497100D02*
X120476400Y-92497100D01*
G36*
X122190900Y-90165380D02*
G01*
X121936900Y-90165380D01*
X121936900Y-89784380D01*
X122190900Y-89784380D01*
X122190900Y-90165380D01*
G37*
D12*
X122190900Y-90165380D02*
X121936900Y-90165380D01*
X121936900Y-89784380D01*
X122190900Y-89784380D01*
X122190900Y-90165380D01*
D11*
%TO.C,C8*%
X117088748Y-84390000D02*
X118511252Y-84390000D01*
X117088748Y-86210000D02*
X118511252Y-86210000D01*
%TO.C,D3*%
X119850000Y-82400000D02*
X119850000Y-76700000D01*
X115550000Y-82400000D02*
X115550000Y-76700000D01*
X115550000Y-82400000D02*
X119850000Y-82400000D01*
%TO.C,C13*%
X117990000Y-110011252D02*
X117990000Y-108588748D01*
X119810000Y-110011252D02*
X119810000Y-108588748D01*
%TO.C,D5*%
X108750000Y-92050000D02*
X113050000Y-92050000D01*
X113050000Y-92050000D02*
X113050000Y-86350000D01*
X108750000Y-92050000D02*
X108750000Y-86350000D01*
%TO.C,R14*%
X157789564Y-78082500D02*
X156335436Y-78082500D01*
X157789564Y-79902500D02*
X156335436Y-79902500D01*
%TO.C,J6*%
X134330000Y-91850000D02*
X134330000Y-93180000D01*
X134330000Y-77820000D02*
X131670000Y-77820000D01*
X134330000Y-90580000D02*
X131670000Y-90580000D01*
X134330000Y-93180000D02*
X133000000Y-93180000D01*
X134330000Y-90580000D02*
X134330000Y-77820000D01*
X131670000Y-90580000D02*
X131670000Y-77820000D01*
%TO.C,U2*%
X125300000Y-137310000D02*
X121440000Y-137310000D01*
X129160000Y-137310000D02*
X129160000Y-137070000D01*
X125300000Y-137310000D02*
X129160000Y-137310000D01*
X121440000Y-137310000D02*
X121440000Y-137070000D01*
X121440000Y-128330000D02*
X119625000Y-128330000D01*
X125300000Y-128090000D02*
X129160000Y-128090000D01*
X125300000Y-128090000D02*
X121440000Y-128090000D01*
X129160000Y-128090000D02*
X129160000Y-128330000D01*
X121440000Y-128090000D02*
X121440000Y-128330000D01*
%TO.C,L1*%
X139050000Y-123650000D02*
X141150000Y-125750000D01*
X134950000Y-131950000D02*
X132850000Y-129850000D01*
X134950000Y-123650000D02*
X139050000Y-123650000D01*
X139050000Y-131950000D02*
X134950000Y-131950000D01*
X134950000Y-123650000D02*
X132850000Y-125750000D01*
%TO.C,R2*%
X144585436Y-132390000D02*
X146039564Y-132390000D01*
X144585436Y-134210000D02*
X146039564Y-134210000D01*
%TO.C,J4*%
X161855000Y-84230000D02*
X156715000Y-84230000D01*
X164455000Y-81570000D02*
X164455000Y-82900000D01*
X156715000Y-81570000D02*
X156715000Y-84230000D01*
X161855000Y-81570000D02*
X161855000Y-84230000D01*
X163125000Y-81570000D02*
X164455000Y-81570000D01*
X161855000Y-81570000D02*
X156715000Y-81570000D01*
%TO.C,R8*%
X129410436Y-121010000D02*
X130864564Y-121010000D01*
X129410436Y-119190000D02*
X130864564Y-119190000D01*
%TO.C,R11*%
X120890000Y-108835436D02*
X120890000Y-110289564D01*
X122710000Y-108835436D02*
X122710000Y-110289564D01*
%TO.C,R5*%
X126890000Y-94610436D02*
X126890000Y-96064564D01*
X128710000Y-94610436D02*
X128710000Y-96064564D01*
%TO.C,R6*%
X114989564Y-112310000D02*
X113535436Y-112310000D01*
X114989564Y-110490000D02*
X113535436Y-110490000D01*
%TO.C,J12*%
X111730000Y-76430000D02*
X109070000Y-76430000D01*
X111730000Y-79030000D02*
X109070000Y-79030000D01*
X111730000Y-81630000D02*
X110400000Y-81630000D01*
X111730000Y-79030000D02*
X111730000Y-76430000D01*
X109070000Y-79030000D02*
X109070000Y-76430000D01*
X111730000Y-80300000D02*
X111730000Y-81630000D01*
%TO.C,C6*%
X116436252Y-133990000D02*
X115013748Y-133990000D01*
X116436252Y-135810000D02*
X115013748Y-135810000D01*
%TO.C,D1*%
X117135000Y-99715000D02*
X114865000Y-99715000D01*
X117135000Y-103600000D02*
X117135000Y-99715000D01*
X114865000Y-99715000D02*
X114865000Y-103600000D01*
%TO.C,C9*%
X122990000Y-86363748D02*
X122990000Y-87786252D01*
X124810000Y-86363748D02*
X124810000Y-87786252D01*
%TO.C,J2*%
X163480000Y-70170000D02*
X164810000Y-70170000D01*
X157070000Y-70170000D02*
X157070000Y-72830000D01*
X162210000Y-70170000D02*
X162210000Y-72830000D01*
X164810000Y-70170000D02*
X164810000Y-71500000D01*
X162210000Y-70170000D02*
X157070000Y-70170000D01*
X162210000Y-72830000D02*
X157070000Y-72830000D01*
%TO.C,C12*%
X164111252Y-87810000D02*
X162688748Y-87810000D01*
X164111252Y-85990000D02*
X162688748Y-85990000D01*
%TO.C,C2*%
X156188748Y-93510000D02*
X157611252Y-93510000D01*
X156188748Y-91690000D02*
X157611252Y-91690000D01*
%TO.C,R10*%
X157589564Y-85990000D02*
X156135436Y-85990000D01*
X157589564Y-87810000D02*
X156135436Y-87810000D01*
%TO.C,C7*%
X151013748Y-131510000D02*
X152436252Y-131510000D01*
X151013748Y-129690000D02*
X152436252Y-129690000D01*
%TO.C,R4*%
X111290000Y-96364564D02*
X111290000Y-94910436D01*
X113110000Y-96364564D02*
X113110000Y-94910436D01*
%TO.C,J1*%
X161930000Y-117370000D02*
X156790000Y-117370000D01*
X161930000Y-117370000D02*
X161930000Y-120030000D01*
X161930000Y-120030000D02*
X156790000Y-120030000D01*
X156790000Y-117370000D02*
X156790000Y-120030000D01*
X164530000Y-117370000D02*
X164530000Y-118700000D01*
X163200000Y-117370000D02*
X164530000Y-117370000D01*
%TO.C,C1*%
X133236252Y-94190000D02*
X131813748Y-94190000D01*
X133236252Y-96010000D02*
X131813748Y-96010000D01*
%TO.C,R7*%
X108790000Y-108110436D02*
X108790000Y-109564564D01*
X110610000Y-108110436D02*
X110610000Y-109564564D01*
%TO.C,D2*%
X113135000Y-103300000D02*
X113135000Y-99415000D01*
X110865000Y-99415000D02*
X110865000Y-103300000D01*
X113135000Y-99415000D02*
X110865000Y-99415000D01*
%TO.C,R12*%
X114710436Y-127810000D02*
X116164564Y-127810000D01*
X114710436Y-125990000D02*
X116164564Y-125990000D01*
%TO.C,R1*%
X151789564Y-136710000D02*
X150335436Y-136710000D01*
X151789564Y-134890000D02*
X150335436Y-134890000D01*
%TO.C,J13*%
X122170000Y-100570000D02*
X123500000Y-100570000D01*
X124830000Y-103170000D02*
X124830000Y-105770000D01*
X122170000Y-101900000D02*
X122170000Y-100570000D01*
X122170000Y-103170000D02*
X122170000Y-105770000D01*
X122170000Y-103170000D02*
X124830000Y-103170000D01*
X122170000Y-105770000D02*
X124830000Y-105770000D01*
%TO.C,C14*%
X164498752Y-78282500D02*
X163076248Y-78282500D01*
X164498752Y-80102500D02*
X163076248Y-80102500D01*
%TO.C,J3*%
X157215000Y-73970000D02*
X157215000Y-76630000D01*
X162355000Y-76630000D02*
X157215000Y-76630000D01*
X164955000Y-73970000D02*
X164955000Y-75300000D01*
X162355000Y-73970000D02*
X162355000Y-76630000D01*
X162355000Y-73970000D02*
X157215000Y-73970000D01*
X163625000Y-73970000D02*
X164955000Y-73970000D01*
%TO.C,C3*%
X157611252Y-96890000D02*
X156188748Y-96890000D01*
X157611252Y-98710000D02*
X156188748Y-98710000D01*
%TO.C,R13*%
X116427064Y-133210000D02*
X114972936Y-133210000D01*
X116427064Y-131390000D02*
X114972936Y-131390000D01*
%TO.C,C11*%
X123063748Y-125610000D02*
X124486252Y-125610000D01*
X123063748Y-123790000D02*
X124486252Y-123790000D01*
%TO.C,D7*%
X121150000Y-119100000D02*
X125050000Y-119100000D01*
X121150000Y-117100000D02*
X125050000Y-117100000D01*
X121150000Y-117100000D02*
X121150000Y-119100000D01*
%TO.C,D6*%
X152400000Y-125450000D02*
X152400000Y-128750000D01*
X152400000Y-128750000D02*
X157800000Y-128750000D01*
X152400000Y-125450000D02*
X157800000Y-125450000D01*
%TO.C,R9*%
X124489564Y-122810000D02*
X123035436Y-122810000D01*
X124489564Y-120990000D02*
X123035436Y-120990000D01*
%TO.C,U4*%
X116360000Y-124750000D02*
X116360000Y-114470000D01*
X111060000Y-124750000D02*
X116360000Y-124750000D01*
X111060000Y-114470000D02*
X111060000Y-124750000D01*
X112710000Y-114470000D02*
X111060000Y-114470000D01*
X116360000Y-114470000D02*
X114710000Y-114470000D01*
X112710000Y-114470000D02*
G75*
G03*
X114710000Y-114470000I1000000J0D01*
G01*
%TO.C,C10*%
X129210000Y-103288748D02*
X129210000Y-104711252D01*
X127390000Y-103288748D02*
X127390000Y-104711252D01*
%TO.C,J5*%
X164530000Y-109630000D02*
X161870000Y-109630000D01*
X161870000Y-109630000D02*
X161870000Y-101950000D01*
X163200000Y-112230000D02*
X161870000Y-112230000D01*
X164530000Y-101950000D02*
X161870000Y-101950000D01*
X164530000Y-109630000D02*
X164530000Y-101950000D01*
X161870000Y-112230000D02*
X161870000Y-110900000D01*
%TO.C,D4*%
X126050000Y-92300000D02*
X122750000Y-92300000D01*
X122750000Y-92300000D02*
X122750000Y-97700000D01*
X126050000Y-92300000D02*
X126050000Y-97700000D01*
%TO.C,R3*%
X115190000Y-96464564D02*
X115190000Y-95010436D01*
X117010000Y-96464564D02*
X117010000Y-95010436D01*
%TD*%
M02*
