M48
; DRILL file {KiCad (6.0.7-1)-1} date Tuesday, May 02, 2023 at 10:47:41 PM
; FORMAT={-:-/ absolute / inch / decimal}
; #@! TF.CreationDate,2023-05-02T22:47:41-04:00
; #@! TF.GenerationSoftware,Kicad,Pcbnew,(6.0.7-1)-1
; #@! TF.FileFunction,Plated,1,2,PTH
FMAT,2
INCH
; #@! TA.AperFunction,Plated,PTH,ViaDrill
T1C0.0157
; #@! TA.AperFunction,Plated,PTH,ComponentDrill
T2C0.0315
; #@! TA.AperFunction,Plated,PTH,ComponentDrill
T3C0.0394
%
G90
G05
T1
X4.5329Y-4.8372
X4.6772Y-3.5118
X4.6772Y-3.5512
X4.6772Y-3.5945
X4.685Y-4.4921
X4.685Y-5.1417
X4.7559Y-3.3583
X4.8425Y-3.6024
X4.8583Y-5.2402
X4.9793Y-5.3622
X4.9803Y-3.622
X5.0394Y-4.8543
X5.2126Y-5.2323
X5.4764Y-4.4331
X5.5551Y-5.1969
X5.6378Y-5.0354
X5.8898Y-5.0354
X6.1772Y-3.7992
X6.2913Y-3.7953
X6.3307Y-3.6974
T2
X4.3268Y-4.5591
X4.3268Y-4.6591
X4.3268Y-4.7591
X4.3268Y-4.8591
X4.6268Y-4.5591
X4.6268Y-4.6591
X4.6268Y-4.7591
X4.6268Y-4.8591
X5.3809Y-2.8415
X5.3809Y-2.9415
X5.3809Y-3.0415
X5.3809Y-3.1415
X5.3809Y-3.2415
X5.3809Y-3.3415
X5.3809Y-3.4415
X5.3809Y-3.5415
X5.3809Y-3.6415
X5.3809Y-3.7415
X5.3809Y-3.8415
X5.3809Y-3.9415
X5.3809Y-4.0415
X5.3809Y-4.1415
X5.3809Y-4.2415
X5.3809Y-4.3415
X5.3809Y-4.4415
X5.3809Y-4.5415
X5.3809Y-4.6415
X5.3809Y-4.7415
X5.9809Y-2.8415
X5.9809Y-2.9415
X5.9809Y-3.0415
X5.9809Y-3.1415
X5.9809Y-3.2415
X5.9809Y-3.3415
X5.9809Y-3.4415
X5.9809Y-3.5415
X5.9809Y-3.6415
X5.9809Y-3.7415
X5.9809Y-3.8415
X5.9809Y-3.9415
X5.9809Y-4.0415
X5.9809Y-4.1415
X5.9809Y-4.2415
X5.9809Y-4.3415
X5.9809Y-4.4415
X5.9809Y-4.5415
X5.9809Y-4.6415
X5.9809Y-4.7415
T3
X4.3465Y-3.0614
X4.3465Y-3.1614
X4.8622Y-4.0118
X4.8622Y-4.1118
X4.9961Y-4.3071
X4.9961Y-4.4071
X4.9961Y-4.5071
X5.2323Y-4.3425
X5.2323Y-4.4425
X5.2323Y-4.5425
X5.2362Y-3.1161
X5.2362Y-3.2161
X5.2362Y-3.3161
X5.2362Y-3.4161
X5.2362Y-3.5161
X5.2362Y-3.6161
X6.2222Y-3.2638
X6.2252Y-4.6732
X6.2362Y-2.815
X6.2419Y-2.9646
X6.3222Y-3.2638
X6.3252Y-4.6732
X6.3362Y-2.815
X6.3419Y-2.9646
X6.4222Y-3.2638
X6.4252Y-4.0661
X6.4252Y-4.1661
X6.4252Y-4.2661
X6.4252Y-4.3661
X6.4252Y-4.6732
X6.4362Y-2.815
X6.4419Y-2.9646
T0
M30
