%TF.GenerationSoftware,KiCad,Pcbnew,(6.0.7-1)-1*%
%TF.CreationDate,2023-05-02T22:47:36-04:00*%
%TF.ProjectId,pcb,7063622e-6b69-4636-9164-5f7063625858,rev?*%
%TF.SameCoordinates,Original*%
%TF.FileFunction,Soldermask,Top*%
%TF.FilePolarity,Negative*%
%FSLAX46Y46*%
G04 Gerber Fmt 4.6, Leading zero omitted, Abs format (unit mm)*
G04 Created by KiCad (PCBNEW (6.0.7-1)-1) date 2023-05-02 22:47:36*
%MOMM*%
%LPD*%
G01*
G04 APERTURE LIST*
G04 Aperture macros list*
%AMRoundRect*
0 Rectangle with rounded corners*
0 $1 Rounding radius*
0 $2 $3 $4 $5 $6 $7 $8 $9 X,Y pos of 4 corners*
0 Add a 4 corners polygon primitive as box body*
4,1,4,$2,$3,$4,$5,$6,$7,$8,$9,$2,$3,0*
0 Add four circle primitives for the rounded corners*
1,1,$1+$1,$2,$3*
1,1,$1+$1,$4,$5*
1,1,$1+$1,$6,$7*
1,1,$1+$1,$8,$9*
0 Add four rect primitives between the rounded corners*
20,1,$1+$1,$2,$3,$4,$5,0*
20,1,$1+$1,$4,$5,$6,$7,0*
20,1,$1+$1,$6,$7,$8,$9,0*
20,1,$1+$1,$8,$9,$2,$3,0*%
G04 Aperture macros list end*
%ADD10R,2.600000X8.200000*%
%ADD11R,1.700000X1.700000*%
%ADD12O,1.700000X1.700000*%
%ADD13RoundRect,0.250000X-0.325000X-0.650000X0.325000X-0.650000X0.325000X0.650000X-0.325000X0.650000X0*%
%ADD14R,1.400000X1.200000*%
%ADD15O,1.600000X1.600000*%
%ADD16R,1.600000X1.600000*%
%ADD17RoundRect,0.250000X0.325000X0.650000X-0.325000X0.650000X-0.325000X-0.650000X0.325000X-0.650000X0*%
%ADD18R,1.333500X0.431800*%
%ADD19R,1.752600X2.946400*%
%ADD20R,2.300000X2.500000*%
%ADD21RoundRect,0.250000X0.650000X-0.325000X0.650000X0.325000X-0.650000X0.325000X-0.650000X-0.325000X0*%
%ADD22RoundRect,0.250000X0.312500X0.625000X-0.312500X0.625000X-0.312500X-0.625000X0.312500X-0.625000X0*%
%ADD23RoundRect,0.150000X-0.875000X-0.150000X0.875000X-0.150000X0.875000X0.150000X-0.875000X0.150000X0*%
%ADD24R,2.000000X3.200000*%
%ADD25RoundRect,0.250000X-0.312500X-0.625000X0.312500X-0.625000X0.312500X0.625000X-0.312500X0.625000X0*%
%ADD26RoundRect,0.250000X-0.625000X0.312500X-0.625000X-0.312500X0.625000X-0.312500X0.625000X0.312500X0*%
%ADD27RoundRect,0.250000X-0.625000X0.375000X-0.625000X-0.375000X0.625000X-0.375000X0.625000X0.375000X0*%
%ADD28RoundRect,0.250000X-0.650000X0.325000X-0.650000X-0.325000X0.650000X-0.325000X0.650000X0.325000X0*%
%ADD29RoundRect,0.250000X0.625000X-0.312500X0.625000X0.312500X-0.625000X0.312500X-0.625000X-0.312500X0*%
%ADD30R,0.900000X1.200000*%
%ADD31R,2.500000X1.800000*%
%ADD32R,1.800000X2.500000*%
G04 APERTURE END LIST*
D10*
%TO.C,L2*%
X123400000Y-78000000D03*
X129000000Y-78000000D03*
%TD*%
D11*
%TO.C,J7*%
X126900000Y-109400000D03*
D12*
X126900000Y-111940000D03*
X126900000Y-114480000D03*
%TD*%
D11*
%TO.C,J8*%
X132900000Y-110300000D03*
D12*
X132900000Y-112840000D03*
X132900000Y-115380000D03*
%TD*%
D13*
%TO.C,C4*%
X134075000Y-104300000D03*
X131125000Y-104300000D03*
%TD*%
D14*
%TO.C,Y1*%
X133600000Y-100150000D03*
X131400000Y-100150000D03*
X131400000Y-101850000D03*
X133600000Y-101850000D03*
%TD*%
D15*
%TO.C,U1*%
X151915000Y-72175000D03*
X151915000Y-74715000D03*
X151915000Y-77255000D03*
X151915000Y-79795000D03*
X151915000Y-82335000D03*
X151915000Y-84875000D03*
X151915000Y-87415000D03*
X151915000Y-89955000D03*
X151915000Y-92495000D03*
X151915000Y-95035000D03*
X151915000Y-97575000D03*
X151915000Y-100115000D03*
X151915000Y-102655000D03*
X151915000Y-105195000D03*
X151915000Y-107735000D03*
X151915000Y-110275000D03*
X151915000Y-112815000D03*
X151915000Y-115355000D03*
X151915000Y-117895000D03*
X151915000Y-120435000D03*
X136675000Y-120435000D03*
X136675000Y-117895000D03*
X136675000Y-115355000D03*
X136675000Y-112815000D03*
X136675000Y-110275000D03*
X136675000Y-107735000D03*
X136675000Y-105195000D03*
X136675000Y-102655000D03*
X136675000Y-100115000D03*
X136675000Y-97575000D03*
X136675000Y-95035000D03*
X136675000Y-92495000D03*
X136675000Y-89955000D03*
X136675000Y-87415000D03*
X136675000Y-84875000D03*
X136675000Y-82335000D03*
X136675000Y-79795000D03*
X136675000Y-77255000D03*
X136675000Y-74715000D03*
D16*
X136675000Y-72175000D03*
%TD*%
D17*
%TO.C,C5*%
X133675000Y-97700000D03*
X130725000Y-97700000D03*
%TD*%
D18*
%TO.C,U3*%
X116583850Y-88674400D03*
X116583850Y-89324640D03*
X116583850Y-89974880D03*
X116583850Y-90625120D03*
X116583850Y-91275360D03*
X116583850Y-91925600D03*
X121016150Y-91925600D03*
X121016150Y-91275360D03*
X121016150Y-90625120D03*
X121016150Y-89974880D03*
X121016150Y-89324640D03*
X121016150Y-88674400D03*
D19*
X118800000Y-90300000D03*
%TD*%
D13*
%TO.C,C8*%
X116325000Y-85300000D03*
X119275000Y-85300000D03*
%TD*%
D20*
%TO.C,D3*%
X117700000Y-81000000D03*
X117700000Y-76700000D03*
%TD*%
D21*
%TO.C,C13*%
X118900000Y-110775000D03*
X118900000Y-107825000D03*
%TD*%
D20*
%TO.C,D5*%
X110900000Y-90650000D03*
X110900000Y-86350000D03*
%TD*%
D22*
%TO.C,R14*%
X158525000Y-78992500D03*
X155600000Y-78992500D03*
%TD*%
D11*
%TO.C,J6*%
X133000000Y-91850000D03*
D12*
X133000000Y-89310000D03*
X133000000Y-86770000D03*
X133000000Y-84230000D03*
X133000000Y-81690000D03*
X133000000Y-79150000D03*
%TD*%
D23*
%TO.C,U2*%
X120650000Y-128890000D03*
X120650000Y-130160000D03*
X120650000Y-131430000D03*
X120650000Y-132700000D03*
X120650000Y-133970000D03*
X120650000Y-135240000D03*
X120650000Y-136510000D03*
X129950000Y-136510000D03*
X129950000Y-135240000D03*
X129950000Y-133970000D03*
X129950000Y-132700000D03*
X129950000Y-131430000D03*
X129950000Y-130160000D03*
X129950000Y-128890000D03*
%TD*%
D24*
%TO.C,L1*%
X140900000Y-127800000D03*
X133100000Y-127800000D03*
%TD*%
D25*
%TO.C,R2*%
X143850000Y-133300000D03*
X146775000Y-133300000D03*
%TD*%
D11*
%TO.C,J4*%
X163125000Y-82900000D03*
D12*
X160585000Y-82900000D03*
X158045000Y-82900000D03*
%TD*%
D25*
%TO.C,R8*%
X128675000Y-120100000D03*
X131600000Y-120100000D03*
%TD*%
D26*
%TO.C,R11*%
X121800000Y-108100000D03*
X121800000Y-111025000D03*
%TD*%
%TO.C,R5*%
X127800000Y-93875000D03*
X127800000Y-96800000D03*
%TD*%
D22*
%TO.C,R6*%
X115725000Y-111400000D03*
X112800000Y-111400000D03*
%TD*%
D11*
%TO.C,J12*%
X110400000Y-80300000D03*
D12*
X110400000Y-77760000D03*
%TD*%
D17*
%TO.C,C6*%
X117200000Y-134900000D03*
X114250000Y-134900000D03*
%TD*%
D27*
%TO.C,D1*%
X116000000Y-100600000D03*
X116000000Y-103400000D03*
%TD*%
D28*
%TO.C,C9*%
X123900000Y-85600000D03*
X123900000Y-88550000D03*
%TD*%
D11*
%TO.C,J2*%
X163480000Y-71500000D03*
D12*
X160940000Y-71500000D03*
X158400000Y-71500000D03*
%TD*%
D17*
%TO.C,C12*%
X164875000Y-86900000D03*
X161925000Y-86900000D03*
%TD*%
D13*
%TO.C,C2*%
X158375000Y-92600000D03*
X155425000Y-92600000D03*
%TD*%
D22*
%TO.C,R10*%
X158325000Y-86900000D03*
X155400000Y-86900000D03*
%TD*%
D13*
%TO.C,C7*%
X150250000Y-130600000D03*
X153200000Y-130600000D03*
%TD*%
D29*
%TO.C,R4*%
X112200000Y-97100000D03*
X112200000Y-94175000D03*
%TD*%
D11*
%TO.C,J1*%
X163200000Y-118700000D03*
D12*
X160660000Y-118700000D03*
X158120000Y-118700000D03*
%TD*%
D17*
%TO.C,C1*%
X134000000Y-95100000D03*
X131050000Y-95100000D03*
%TD*%
D26*
%TO.C,R7*%
X109700000Y-107375000D03*
X109700000Y-110300000D03*
%TD*%
D27*
%TO.C,D2*%
X112000000Y-100300000D03*
X112000000Y-103100000D03*
%TD*%
D25*
%TO.C,R12*%
X113975000Y-126900000D03*
X116900000Y-126900000D03*
%TD*%
D22*
%TO.C,R1*%
X152525000Y-135800000D03*
X149600000Y-135800000D03*
%TD*%
D11*
%TO.C,J13*%
X123500000Y-101900000D03*
D12*
X123500000Y-104440000D03*
%TD*%
D17*
%TO.C,C14*%
X165262500Y-79192500D03*
X162312500Y-79192500D03*
%TD*%
D11*
%TO.C,J3*%
X163625000Y-75300000D03*
D12*
X161085000Y-75300000D03*
X158545000Y-75300000D03*
%TD*%
D17*
%TO.C,C3*%
X155425000Y-97800000D03*
X158375000Y-97800000D03*
%TD*%
D22*
%TO.C,R13*%
X117162500Y-132300000D03*
X114237500Y-132300000D03*
%TD*%
D13*
%TO.C,C11*%
X122300000Y-124700000D03*
X125250000Y-124700000D03*
%TD*%
D30*
%TO.C,D7*%
X121750000Y-118100000D03*
X125050000Y-118100000D03*
%TD*%
D31*
%TO.C,D6*%
X153800000Y-127100000D03*
X157800000Y-127100000D03*
%TD*%
D22*
%TO.C,R9*%
X125225000Y-121900000D03*
X122300000Y-121900000D03*
%TD*%
D16*
%TO.C,U4*%
X109900000Y-115800000D03*
D15*
X109900000Y-118340000D03*
X109900000Y-120880000D03*
X109900000Y-123420000D03*
X117520000Y-123420000D03*
X117520000Y-120880000D03*
X117520000Y-118340000D03*
X117520000Y-115800000D03*
%TD*%
D28*
%TO.C,C10*%
X128300000Y-102525000D03*
X128300000Y-105475000D03*
%TD*%
D11*
%TO.C,J5*%
X163200000Y-110900000D03*
D12*
X163200000Y-108360000D03*
X163200000Y-105820000D03*
X163200000Y-103280000D03*
%TD*%
D32*
%TO.C,D4*%
X124400000Y-93700000D03*
X124400000Y-97700000D03*
%TD*%
D29*
%TO.C,R3*%
X116100000Y-97200000D03*
X116100000Y-94275000D03*
%TD*%
M02*
